<?xml version="1.0" encoding="UTF-8" standalone="no"?>
<!DOCTYPE svg PUBLIC "-//W3C//DTD SVG 1.1//EN"
 "http://www.w3.org/Graphics/SVG/1.1/DTD/svg11.dtd">
<!-- Generated by graphviz version 2.38.0 (20140413.2041)
 -->
<!-- Title: controllers_diagram Pages: 1 -->
<svg width="804pt" height="762pt"
 viewBox="0.00 0.00 803.50 762.00" xmlns="http://www.w3.org/2000/svg" xmlns:xlink="http://www.w3.org/1999/xlink">
<g id="graph0" class="graph" transform="scale(1 1) rotate(0) translate(328 416)">
<title>controllers_diagram</title>
<polygon fill="none" stroke="none" points="-328,346 -328,-416 475.5,-416 475.5,346 -328,346"/>
<!-- _diagram_info -->
<g id="node1" class="node"><title>_diagram_info</title>
<text text-anchor="start" x="116" y="152.4" font-family="Times,serif" font-size="13.00">Controllers diagram</text>
<text text-anchor="start" x="116" y="166.4" font-family="Times,serif" font-size="13.00">Date: Nov 17 2016 &#45; 22:40</text>
<text text-anchor="start" x="116" y="180.4" font-family="Times,serif" font-size="13.00">Migration version: 20161019232321</text>
<text text-anchor="start" x="116" y="194.4" font-family="Times,serif" font-size="13.00">Generated by RailRoady 1.5.2</text>
<text text-anchor="start" x="116" y="208.4" font-family="Times,serif" font-size="13.00">http://railroady.prestonlee.com</text>
</g>
<!-- MessagesController -->
<g id="node2" class="node"><title>MessagesController</title>
<path fill="none" stroke="black" d="M-276.5,287C-276.5,287 -175.5,287 -175.5,287 -169.5,287 -163.5,281 -163.5,275 -163.5,275 -163.5,161 -163.5,161 -163.5,155 -169.5,149 -175.5,149 -175.5,149 -276.5,149 -276.5,149 -282.5,149 -288.5,155 -288.5,161 -288.5,161 -288.5,275 -288.5,275 -288.5,281 -282.5,287 -276.5,287"/>
<text text-anchor="middle" x="-226" y="164.2" font-family="Times,serif" font-size="14.00">MessagesController</text>
<polyline fill="none" stroke="black" points="-288.5,172 -163.5,172 "/>
<text text-anchor="start" x="-280.5" y="187.2" font-family="Times,serif" font-size="14.00">create</text>
<text text-anchor="start" x="-280.5" y="202.2" font-family="Times,serif" font-size="14.00">mailboxer_email</text>
<text text-anchor="start" x="-280.5" y="217.2" font-family="Times,serif" font-size="14.00">name</text>
<text text-anchor="start" x="-280.5" y="232.2" font-family="Times,serif" font-size="14.00">new</text>
<polyline fill="none" stroke="black" points="-288.5,240 -163.5,240 "/>
<polyline fill="none" stroke="black" points="-288.5,264 -163.5,264 "/>
<text text-anchor="start" x="-280.5" y="279.2" font-family="Times,serif" font-size="14.00">_layout</text>
</g>
<!-- PasswordsController -->
<g id="node3" class="node"><title>PasswordsController</title>
<path fill="none" stroke="black" d="M354.5,107.5C354.5,107.5 459.5,107.5 459.5,107.5 465.5,107.5 471.5,101.5 471.5,95.5 471.5,95.5 471.5,-3.5 471.5,-3.5 471.5,-9.5 465.5,-15.5 459.5,-15.5 459.5,-15.5 354.5,-15.5 354.5,-15.5 348.5,-15.5 342.5,-9.5 342.5,-3.5 342.5,-3.5 342.5,95.5 342.5,95.5 342.5,101.5 348.5,107.5 354.5,107.5"/>
<text text-anchor="middle" x="407" y="-0.3" font-family="Times,serif" font-size="14.00">PasswordsController</text>
<polyline fill="none" stroke="black" points="342.5,7.5 471.5,7.5 "/>
<text text-anchor="start" x="350.5" y="22.7" font-family="Times,serif" font-size="14.00">edit</text>
<text text-anchor="start" x="350.5" y="37.7" font-family="Times,serif" font-size="14.00">update</text>
<polyline fill="none" stroke="black" points="342.5,45.5 471.5,45.5 "/>
<polyline fill="none" stroke="black" points="342.5,69.5 471.5,69.5 "/>
<text text-anchor="start" x="350.5" y="84.7" font-family="Times,serif" font-size="14.00">_layout</text>
<text text-anchor="start" x="350.5" y="99.7" font-family="Times,serif" font-size="14.00">user_params</text>
</g>
<!-- RaterController -->
<g id="node4" class="node"><title>RaterController</title>
<path fill="none" stroke="black" d="M210.5,341.5C210.5,341.5 287.5,341.5 287.5,341.5 293.5,341.5 299.5,335.5 299.5,329.5 299.5,329.5 299.5,260.5 299.5,260.5 299.5,254.5 293.5,248.5 287.5,248.5 287.5,248.5 210.5,248.5 210.5,248.5 204.5,248.5 198.5,254.5 198.5,260.5 198.5,260.5 198.5,329.5 198.5,329.5 198.5,335.5 204.5,341.5 210.5,341.5"/>
<text text-anchor="middle" x="249" y="263.7" font-family="Times,serif" font-size="14.00">RaterController</text>
<polyline fill="none" stroke="black" points="198.5,271.5 299.5,271.5 "/>
<text text-anchor="start" x="206.5" y="286.7" font-family="Times,serif" font-size="14.00">create</text>
<polyline fill="none" stroke="black" points="198.5,294.5 299.5,294.5 "/>
<polyline fill="none" stroke="black" points="198.5,318.5 299.5,318.5 "/>
<text text-anchor="start" x="206.5" y="333.7" font-family="Times,serif" font-size="14.00">_layout</text>
</g>
<!-- ConversationsController -->
<g id="node5" class="node"><title>ConversationsController</title>
<path fill="none" stroke="black" d="M191.5,-181C191.5,-181 316.5,-181 316.5,-181 322.5,-181 328.5,-187 328.5,-193 328.5,-193 328.5,-397 328.5,-397 328.5,-403 322.5,-409 316.5,-409 316.5,-409 191.5,-409 191.5,-409 185.5,-409 179.5,-403 179.5,-397 179.5,-397 179.5,-193 179.5,-193 179.5,-187 185.5,-181 191.5,-181"/>
<text text-anchor="middle" x="254" y="-393.8" font-family="Times,serif" font-size="14.00">ConversationsController</text>
<polyline fill="none" stroke="black" points="179.5,-386 328.5,-386 "/>
<text text-anchor="start" x="187.5" y="-370.8" font-family="Times,serif" font-size="14.00">destroy</text>
<text text-anchor="start" x="187.5" y="-355.8" font-family="Times,serif" font-size="14.00">empty_trash</text>
<text text-anchor="start" x="187.5" y="-340.8" font-family="Times,serif" font-size="14.00">index</text>
<text text-anchor="start" x="187.5" y="-325.8" font-family="Times,serif" font-size="14.00">mark_as_read</text>
<text text-anchor="start" x="187.5" y="-310.8" font-family="Times,serif" font-size="14.00">reply</text>
<text text-anchor="start" x="187.5" y="-295.8" font-family="Times,serif" font-size="14.00">restore</text>
<polyline fill="none" stroke="black" points="179.5,-288 328.5,-288 "/>
<polyline fill="none" stroke="black" points="179.5,-264 328.5,-264 "/>
<text text-anchor="start" x="187.5" y="-248.8" font-family="Times,serif" font-size="14.00">_layout</text>
<text text-anchor="start" x="187.5" y="-233.8" font-family="Times,serif" font-size="14.00">get_box</text>
<text text-anchor="start" x="187.5" y="-218.8" font-family="Times,serif" font-size="14.00">get_conversation</text>
<text text-anchor="start" x="187.5" y="-203.8" font-family="Times,serif" font-size="14.00">get_mailbox</text>
<text text-anchor="start" x="187.5" y="-188.8" font-family="Times,serif" font-size="14.00">show</text>
</g>
<!-- ClassifiedsController -->
<g id="node6" class="node"><title>ClassifiedsController</title>
<path fill="none" stroke="black" d="M-78,179.5C-78,179.5 62,179.5 62,179.5 68,179.5 74,173.5 74,167.5 74,167.5 74,-141.5 74,-141.5 74,-147.5 68,-153.5 62,-153.5 62,-153.5 -78,-153.5 -78,-153.5 -84,-153.5 -90,-147.5 -90,-141.5 -90,-141.5 -90,167.5 -90,167.5 -90,173.5 -84,179.5 -78,179.5"/>
<text text-anchor="middle" x="-8" y="-138.3" font-family="Times,serif" font-size="14.00">ClassifiedsController</text>
<polyline fill="none" stroke="black" points="-90,-130.5 74,-130.5 "/>
<text text-anchor="start" x="-82" y="-115.3" font-family="Times,serif" font-size="14.00">autocomplete_make_name</text>
<text text-anchor="start" x="-82" y="-100.3" font-family="Times,serif" font-size="14.00">create</text>
<text text-anchor="start" x="-82" y="-85.3" font-family="Times,serif" font-size="14.00">destroy</text>
<text text-anchor="start" x="-82" y="-70.3" font-family="Times,serif" font-size="14.00">edit</text>
<text text-anchor="start" x="-82" y="-55.3" font-family="Times,serif" font-size="14.00">favorite</text>
<text text-anchor="start" x="-82" y="-40.3" font-family="Times,serif" font-size="14.00">flag</text>
<text text-anchor="start" x="-82" y="-25.3" font-family="Times,serif" font-size="14.00">image_urls</text>
<text text-anchor="start" x="-82" y="-10.3" font-family="Times,serif" font-size="14.00">index</text>
<text text-anchor="start" x="-82" y="4.7" font-family="Times,serif" font-size="14.00">new</text>
<text text-anchor="start" x="-82" y="19.7" font-family="Times,serif" font-size="14.00">search</text>
<text text-anchor="start" x="-82" y="34.7" font-family="Times,serif" font-size="14.00">show</text>
<text text-anchor="start" x="-82" y="49.7" font-family="Times,serif" font-size="14.00">sold</text>
<text text-anchor="start" x="-82" y="64.7" font-family="Times,serif" font-size="14.00">update</text>
<polyline fill="none" stroke="black" points="-90,72.5 74,72.5 "/>
<polyline fill="none" stroke="black" points="-90,96.5 74,96.5 "/>
<text text-anchor="start" x="-82" y="111.7" font-family="Times,serif" font-size="14.00">_layout</text>
<text text-anchor="start" x="-82" y="126.7" font-family="Times,serif" font-size="14.00">classified_params</text>
<text text-anchor="start" x="-82" y="141.7" font-family="Times,serif" font-size="14.00">set_category</text>
<text text-anchor="start" x="-82" y="156.7" font-family="Times,serif" font-size="14.00">sort_column</text>
<text text-anchor="start" x="-82" y="171.7" font-family="Times,serif" font-size="14.00">sort_direction</text>
</g>
<!-- NotificationsController -->
<g id="node7" class="node"><title>NotificationsController</title>
<path fill="none" stroke="black" d="M120,107.5C120,107.5 290,107.5 290,107.5 296,107.5 302,101.5 302,95.5 302,95.5 302,-123.5 302,-123.5 302,-129.5 296,-135.5 290,-135.5 290,-135.5 120,-135.5 120,-135.5 114,-135.5 108,-129.5 108,-123.5 108,-123.5 108,95.5 108,95.5 108,101.5 114,107.5 120,107.5"/>
<text text-anchor="middle" x="205" y="-120.3" font-family="Times,serif" font-size="14.00">NotificationsController</text>
<polyline fill="none" stroke="black" points="108,-112.5 302,-112.5 "/>
<text text-anchor="start" x="116" y="-97.3" font-family="Times,serif" font-size="14.00">create</text>
<text text-anchor="start" x="116" y="-82.3" font-family="Times,serif" font-size="14.00">destroy</text>
<text text-anchor="start" x="116" y="-67.3" font-family="Times,serif" font-size="14.00">edit</text>
<text text-anchor="start" x="116" y="-52.3" font-family="Times,serif" font-size="14.00">index</text>
<text text-anchor="start" x="116" y="-37.3" font-family="Times,serif" font-size="14.00">new</text>
<text text-anchor="start" x="116" y="-22.3" font-family="Times,serif" font-size="14.00">show</text>
<text text-anchor="start" x="116" y="-7.3" font-family="Times,serif" font-size="14.00">update</text>
<text text-anchor="start" x="116" y="7.7" font-family="Times,serif" font-size="14.00">update_all</text>
<polyline fill="none" stroke="black" points="108,15.5 302,15.5 "/>
<polyline fill="none" stroke="black" points="108,39.5 302,39.5 "/>
<text text-anchor="start" x="116" y="54.7" font-family="Times,serif" font-size="14.00">_layout</text>
<text text-anchor="start" x="116" y="69.7" font-family="Times,serif" font-size="14.00">check_current_subject_is_owner</text>
<text text-anchor="start" x="116" y="84.7" font-family="Times,serif" font-size="14.00">get_actor</text>
<text text-anchor="start" x="116" y="99.7" font-family="Times,serif" font-size="14.00">get_mailbox</text>
</g>
<!-- PhotosController -->
<g id="node8" class="node"><title>PhotosController</title>
<path fill="none" stroke="black" d="M-185.5,-198.5C-185.5,-198.5 -100.5,-198.5 -100.5,-198.5 -94.5,-198.5 -88.5,-204.5 -88.5,-210.5 -88.5,-210.5 -88.5,-399.5 -88.5,-399.5 -88.5,-405.5 -94.5,-411.5 -100.5,-411.5 -100.5,-411.5 -185.5,-411.5 -185.5,-411.5 -191.5,-411.5 -197.5,-405.5 -197.5,-399.5 -197.5,-399.5 -197.5,-210.5 -197.5,-210.5 -197.5,-204.5 -191.5,-198.5 -185.5,-198.5"/>
<text text-anchor="middle" x="-143" y="-396.3" font-family="Times,serif" font-size="14.00">PhotosController</text>
<polyline fill="none" stroke="black" points="-197.5,-388.5 -88.5,-388.5 "/>
<text text-anchor="start" x="-189.5" y="-373.3" font-family="Times,serif" font-size="14.00">create</text>
<text text-anchor="start" x="-189.5" y="-358.3" font-family="Times,serif" font-size="14.00">destroy</text>
<text text-anchor="start" x="-189.5" y="-343.3" font-family="Times,serif" font-size="14.00">edit</text>
<text text-anchor="start" x="-189.5" y="-328.3" font-family="Times,serif" font-size="14.00">index</text>
<text text-anchor="start" x="-189.5" y="-313.3" font-family="Times,serif" font-size="14.00">make_default</text>
<text text-anchor="start" x="-189.5" y="-298.3" font-family="Times,serif" font-size="14.00">new</text>
<text text-anchor="start" x="-189.5" y="-283.3" font-family="Times,serif" font-size="14.00">show</text>
<text text-anchor="start" x="-189.5" y="-268.3" font-family="Times,serif" font-size="14.00">update</text>
<polyline fill="none" stroke="black" points="-197.5,-260.5 -88.5,-260.5 "/>
<polyline fill="none" stroke="black" points="-197.5,-236.5 -88.5,-236.5 "/>
<text text-anchor="start" x="-189.5" y="-221.3" font-family="Times,serif" font-size="14.00">_layout</text>
<text text-anchor="start" x="-189.5" y="-206.3" font-family="Times,serif" font-size="14.00">photo_params</text>
</g>
<!-- RegistrationsController -->
<g id="node9" class="node"><title>RegistrationsController</title>
<path fill="none" stroke="black" d="M-258,107.5C-258,107.5 -134,107.5 -134,107.5 -128,107.5 -122,101.5 -122,95.5 -122,95.5 -122,-3.5 -122,-3.5 -122,-9.5 -128,-15.5 -134,-15.5 -134,-15.5 -258,-15.5 -258,-15.5 -264,-15.5 -270,-9.5 -270,-3.5 -270,-3.5 -270,95.5 -270,95.5 -270,101.5 -264,107.5 -258,107.5"/>
<text text-anchor="middle" x="-196" y="-0.3" font-family="Times,serif" font-size="14.00">RegistrationsController</text>
<polyline fill="none" stroke="black" points="-270,7.5 -122,7.5 "/>
<polyline fill="none" stroke="black" points="-270,31.5 -122,31.5 "/>
<text text-anchor="start" x="-262" y="46.7" font-family="Times,serif" font-size="14.00">update_resource</text>
<polyline fill="none" stroke="black" points="-270,54.5 -122,54.5 "/>
<text text-anchor="start" x="-262" y="69.7" font-family="Times,serif" font-size="14.00">_layout</text>
<text text-anchor="start" x="-262" y="84.7" font-family="Times,serif" font-size="14.00">account_update_params</text>
<text text-anchor="start" x="-262" y="99.7" font-family="Times,serif" font-size="14.00">sign_up_params</text>
</g>
<!-- PagesController -->
<g id="node10" class="node"><title>PagesController</title>
<path fill="none" stroke="black" d="M354,341.5C354,341.5 434,341.5 434,341.5 440,341.5 446,335.5 446,329.5 446,329.5 446,260.5 446,260.5 446,254.5 440,248.5 434,248.5 434,248.5 354,248.5 354,248.5 348,248.5 342,254.5 342,260.5 342,260.5 342,329.5 342,329.5 342,335.5 348,341.5 354,341.5"/>
<text text-anchor="middle" x="394" y="263.7" font-family="Times,serif" font-size="14.00">PagesController</text>
<polyline fill="none" stroke="black" points="342,271.5 446,271.5 "/>
<text text-anchor="start" x="350" y="286.7" font-family="Times,serif" font-size="14.00">welcome</text>
<polyline fill="none" stroke="black" points="342,294.5 446,294.5 "/>
<polyline fill="none" stroke="black" points="342,318.5 446,318.5 "/>
<text text-anchor="start" x="350" y="333.7" font-family="Times,serif" font-size="14.00">_layout</text>
</g>
<!-- UsersController -->
<g id="node11" class="node"><title>UsersController</title>
<path fill="none" stroke="black" d="M-41.5,-198.5C-41.5,-198.5 133.5,-198.5 133.5,-198.5 139.5,-198.5 145.5,-204.5 145.5,-210.5 145.5,-210.5 145.5,-339.5 145.5,-339.5 145.5,-345.5 139.5,-351.5 133.5,-351.5 133.5,-351.5 -41.5,-351.5 -41.5,-351.5 -47.5,-351.5 -53.5,-345.5 -53.5,-339.5 -53.5,-339.5 -53.5,-210.5 -53.5,-210.5 -53.5,-204.5 -47.5,-198.5 -41.5,-198.5"/>
<text text-anchor="middle" x="46" y="-336.3" font-family="Times,serif" font-size="14.00">UsersController</text>
<polyline fill="none" stroke="black" points="-53.5,-328.5 145.5,-328.5 "/>
<text text-anchor="start" x="-45.5" y="-313.3" font-family="Times,serif" font-size="14.00">mailboxer_email</text>
<text text-anchor="start" x="-45.5" y="-298.3" font-family="Times,serif" font-size="14.00">name</text>
<text text-anchor="start" x="-45.5" y="-283.3" font-family="Times,serif" font-size="14.00">show</text>
<text text-anchor="start" x="-45.5" y="-268.3" font-family="Times,serif" font-size="14.00">sold</text>
<text text-anchor="start" x="-45.5" y="-253.3" font-family="Times,serif" font-size="14.00">update_password_with_password</text>
<polyline fill="none" stroke="black" points="-53.5,-245.5 145.5,-245.5 "/>
<polyline fill="none" stroke="black" points="-53.5,-221.5 145.5,-221.5 "/>
<text text-anchor="start" x="-45.5" y="-206.3" font-family="Times,serif" font-size="14.00">_layout</text>
</g>
<!-- SessionsController -->
<g id="node12" class="node"><title>SessionsController</title>
<path fill="none" stroke="black" d="M48.5,341C48.5,341 143.5,341 143.5,341 149.5,341 155.5,335 155.5,329 155.5,329 155.5,259 155.5,259 155.5,253 149.5,247 143.5,247 143.5,247 48.5,247 48.5,247 42.5,247 36.5,253 36.5,259 36.5,259 36.5,329 36.5,329 36.5,335 42.5,341 48.5,341"/>
<text text-anchor="middle" x="96" y="262.2" font-family="Times,serif" font-size="14.00">SessionsController</text>
<polyline fill="none" stroke="black" points="36.5,270 155.5,270 "/>
<polyline fill="none" stroke="black" points="36.5,294 155.5,294 "/>
<polyline fill="none" stroke="black" points="36.5,318 155.5,318 "/>
<text text-anchor="start" x="44.5" y="333.2" font-family="Times,serif" font-size="14.00">_layout</text>
</g>
<!-- ApplicationController -->
<g id="node13" class="node"><title>ApplicationController</title>
<path fill="none" stroke="black" d="M-312,-55C-312,-55 -142,-55 -142,-55 -136,-55 -130,-61 -130,-67 -130,-67 -130,-151 -130,-151 -130,-157 -136,-163 -142,-163 -142,-163 -312,-163 -312,-163 -318,-163 -324,-157 -324,-151 -324,-151 -324,-67 -324,-67 -324,-61 -318,-55 -312,-55"/>
<text text-anchor="middle" x="-227" y="-147.8" font-family="Times,serif" font-size="14.00">ApplicationController</text>
<polyline fill="none" stroke="black" points="-324,-140 -130,-140 "/>
<text text-anchor="start" x="-316" y="-124.8" font-family="Times,serif" font-size="14.00">configure_permitted_parameters</text>
<text text-anchor="start" x="-316" y="-109.8" font-family="Times,serif" font-size="14.00">redirect_back_or</text>
<polyline fill="none" stroke="black" points="-324,-102 -130,-102 "/>
<polyline fill="none" stroke="black" points="-324,-78 -130,-78 "/>
<text text-anchor="start" x="-316" y="-62.8" font-family="Times,serif" font-size="14.00">_layout</text>
</g>
<!-- CategoriesController -->
<g id="node14" class="node"><title>CategoriesController</title>
<path fill="none" stroke="black" d="M-114,323C-114,323 -8,323 -8,323 -2,323 4,317 4,311 4,311 4,227 4,227 4,221 -2,215 -8,215 -8,215 -114,215 -114,215 -120,215 -126,221 -126,227 -126,227 -126,311 -126,311 -126,317 -120,323 -114,323"/>
<text text-anchor="middle" x="-61" y="230.2" font-family="Times,serif" font-size="14.00">CategoriesController</text>
<polyline fill="none" stroke="black" points="-126,238 4,238 "/>
<text text-anchor="start" x="-118" y="253.2" font-family="Times,serif" font-size="14.00">index</text>
<text text-anchor="start" x="-118" y="268.2" font-family="Times,serif" font-size="14.00">show</text>
<polyline fill="none" stroke="black" points="-126,276 4,276 "/>
<polyline fill="none" stroke="black" points="-126,300 4,300 "/>
<text text-anchor="start" x="-118" y="315.2" font-family="Times,serif" font-size="14.00">_layout</text>
</g>
</g>
</svg>
