<?xml version="1.0" encoding="UTF-8" standalone="no"?>
<!DOCTYPE svg PUBLIC "-//W3C//DTD SVG 1.1//EN"
 "http://www.w3.org/Graphics/SVG/1.1/DTD/svg11.dtd">
<!-- Generated by graphviz version 2.38.0 (20140413.2041)
 -->
<!-- Title: models_diagram Pages: 1 -->
<svg width="1740pt" height="246pt"
 viewBox="0.00 0.00 1740.39 246.00" xmlns="http://www.w3.org/2000/svg" xmlns:xlink="http://www.w3.org/1999/xlink">
<g id="graph0" class="graph" transform="scale(1 1) rotate(0) translate(4 242)">
<title>models_diagram</title>
<polygon fill="none" stroke="none" points="-4,4 -4,-242 1736.39,-242 1736.39,4 -4,4"/>
<!-- _diagram_info -->
<g id="node1" class="node"><title>_diagram_info</title>
<text text-anchor="start" x="8" y="-223.6" font-family="Times,serif" font-size="13.00">Models diagram</text>
<text text-anchor="start" x="8" y="-209.6" font-family="Times,serif" font-size="13.00">Date: Nov 17 2016 &#45; 22:40</text>
<text text-anchor="start" x="8" y="-195.6" font-family="Times,serif" font-size="13.00">Migration version: 20161019232321</text>
<text text-anchor="start" x="8" y="-181.6" font-family="Times,serif" font-size="13.00">Generated by RailRoady 1.5.2</text>
<text text-anchor="start" x="8" y="-167.6" font-family="Times,serif" font-size="13.00">http://railroady.prestonlee.com</text>
</g>
<!-- Make -->
<g id="node2" class="node"><title>Make</title>
<ellipse fill="none" stroke="black" cx="263" cy="-199" rx="31.3957" ry="18"/>
<text text-anchor="middle" x="263" y="-195.3" font-family="Times,serif" font-size="14.00">Make</text>
</g>
<!-- User -->
<g id="node3" class="node"><title>User</title>
<ellipse fill="none" stroke="black" cx="991" cy="-199" rx="27.0966" ry="18"/>
<text text-anchor="middle" x="991" y="-195.3" font-family="Times,serif" font-size="14.00">User</text>
</g>
<!-- User&#45;&gt;User -->
<g id="edge3" class="edge"><title>User&#45;&gt;User</title>
<path fill="none" stroke="#442c67" d="M1027.36,-204.426C1032.7,-203.571 1036.3,-201.763 1036.3,-199 1036.3,-196.237 1032.7,-194.429 1027.36,-193.574"/>
<polygon fill="#442c67" stroke="#442c67" points="1027.05,-204.442 1016.83,-200.47 1022.06,-204.703 1017.07,-204.963 1017.07,-204.963 1017.07,-204.963 1022.06,-204.703 1017.3,-209.457 1027.05,-204.442 1027.05,-204.442"/>
<polygon fill="#442c67" stroke="#442c67" points="1027.05,-193.558 1017.3,-188.543 1022.06,-193.297 1017.07,-193.037 1017.07,-193.037 1017.07,-193.037 1022.06,-193.297 1016.83,-197.53 1027.05,-193.558 1027.05,-193.558"/>
<text text-anchor="middle" x="1107.3" y="-195.3" font-family="Times,serif" font-size="14.00">raters_without_dimension</text>
</g>
<!-- User&#45;&gt;User -->
<g id="edge6" class="edge"><title>User&#45;&gt;User</title>
<path fill="none" stroke="#1c1134" d="M1026.24,-207.672C1081.46,-214.104 1178.3,-211.213 1178.3,-199 1178.3,-186.787 1081.46,-183.896 1026.24,-190.328"/>
<polygon fill="#1c1134" stroke="#1c1134" points="1026.03,-207.644 1016.72,-201.853 1021.08,-206.978 1016.12,-206.312 1016.12,-206.312 1016.12,-206.312 1021.08,-206.978 1015.52,-210.772 1026.03,-207.644 1026.03,-207.644"/>
<polygon fill="#1c1134" stroke="#1c1134" points="1026.03,-190.356 1015.52,-187.228 1021.08,-191.022 1016.12,-191.688 1016.12,-191.688 1016.12,-191.688 1021.08,-191.022 1016.72,-196.147 1026.03,-190.356 1026.03,-190.356"/>
<text text-anchor="middle" x="1212.8" y="-195.3" font-family="Times,serif" font-size="14.00">rating_raters</text>
</g>
<!-- FavoriteClassified -->
<g id="node6" class="node"><title>FavoriteClassified</title>
<ellipse fill="none" stroke="black" cx="1044" cy="-18" rx="75.2868" ry="18"/>
<text text-anchor="middle" x="1044" y="-14.3" font-family="Times,serif" font-size="14.00">FavoriteClassified</text>
</g>
<!-- User&#45;&gt;FavoriteClassified -->
<g id="edge11" class="edge"><title>User&#45;&gt;FavoriteClassified</title>
<path fill="none" stroke="#76dca9" d="M1025.7,-192.845C1079.15,-185.02 1184.89,-169.998 1275,-160 1365.46,-149.962 1391.5,-167.057 1479,-142 1510.15,-133.081 1527.05,-136.612 1544,-109 1552.37,-95.3638 1554.69,-84.9056 1544,-73 1530.19,-57.62 1263.17,-35.4425 1125.14,-24.9421"/>
<ellipse fill="none" stroke="#76dca9" cx="1021.53" cy="-193.456" rx="4.00001" ry="4.00001"/>
<polygon fill="#76dca9" stroke="#76dca9" points="1125,-24.9314 1115.37,-19.6888 1120.01,-24.5537 1115.03,-24.176 1115.03,-24.176 1115.03,-24.176 1120.01,-24.5537 1114.69,-28.6631 1125,-24.9314 1125,-24.9314"/>
</g>
<!-- RatingCache -->
<g id="node7" class="node"><title>RatingCache</title>
<ellipse fill="none" stroke="black" cx="837" cy="-91" rx="55.7903" ry="18"/>
<text text-anchor="middle" x="837" y="-87.3" font-family="Times,serif" font-size="14.00">RatingCache</text>
</g>
<!-- User&#45;&gt;RatingCache -->
<g id="edge4" class="edge"><title>User&#45;&gt;RatingCache</title>
<path fill="none" stroke="#82fd1c" d="M955.681,-195.56C892.27,-190.364 763.185,-175.803 736,-142 719.496,-121.479 748.265,-108.715 779.263,-101.224"/>
<ellipse fill="none" stroke="#82fd1c" cx="959.822" cy="-195.888" rx="4" ry="4"/>
<ellipse fill="#82fd1c" stroke="#82fd1c" cx="783.265" cy="-100.316" rx="4.00001" ry="4.00001"/>
<text text-anchor="middle" x="826.5" y="-130.8" font-family="Times,serif" font-size="14.00">rate_average_without_dimension</text>
</g>
<!-- User&#45;&gt;RatingCache -->
<g id="edge7" class="edge"><title>User&#45;&gt;RatingCache</title>
<path fill="none" stroke="#763ec6" d="M972.482,-176.57C958.424,-161.274 937.991,-141.011 917,-127 905.932,-119.612 893.048,-113.176 880.894,-107.907"/>
<ellipse fill="none" stroke="#763ec6" cx="975.418" cy="-179.82" rx="4.00002" ry="4.00002"/>
<ellipse fill="#763ec6" stroke="#763ec6" cx="877.133" cy="-106.327" rx="4.00002" ry="4.00002"/>
<text text-anchor="middle" x="975.5" y="-130.8" font-family="Times,serif" font-size="14.00">rating_average</text>
</g>
<!-- Classified -->
<g id="node8" class="node"><title>Classified</title>
<ellipse fill="none" stroke="black" cx="533" cy="-91" rx="46.2923" ry="18"/>
<text text-anchor="middle" x="533" y="-87.3" font-family="Times,serif" font-size="14.00">Classified</text>
</g>
<!-- User&#45;&gt;Classified -->
<g id="edge10" class="edge"><title>User&#45;&gt;Classified</title>
<path fill="none" stroke="#840579" d="M955.444,-196.808C844.452,-192.727 509.881,-177.55 478,-142 467.773,-130.596 478.855,-119.017 493.684,-109.878"/>
<ellipse fill="none" stroke="#840579" cx="959.657" cy="-196.961" rx="4" ry="4"/>
<polygon fill="#840579" stroke="#840579" points="493.999,-109.701 504.921,-108.721 498.357,-107.25 502.716,-104.799 502.716,-104.799 502.716,-104.799 498.357,-107.25 500.51,-100.877 493.999,-109.701 493.999,-109.701"/>
</g>
<!-- User&#45;&gt;Classified -->
<g id="edge13" class="edge"><title>User&#45;&gt;Classified</title>
<path fill="none" stroke="#2a15b6" d="M953.421,-196.558C843.476,-191.955 528.259,-175.891 498,-142 490.316,-133.393 495.501,-123.062 503.998,-114.031"/>
<polygon fill="#2a15b6" stroke="#2a15b6" points="953.712,-196.569 963.519,-201.476 958.708,-196.774 963.704,-196.979 963.704,-196.979 963.704,-196.979 958.708,-196.774 963.888,-192.483 953.712,-196.569 953.712,-196.569"/>
<polygon fill="#2a15b6" stroke="#2a15b6" points="504.056,-113.976 514.423,-110.402 507.697,-110.55 511.339,-107.124 511.339,-107.124 511.339,-107.124 507.697,-110.55 508.256,-103.846 504.056,-113.976 504.056,-113.976"/>
<text text-anchor="middle" x="522" y="-130.8" font-family="Times,serif" font-size="14.00">favorites</text>
</g>
<!-- User&#45;&gt;Classified -->
<g id="edge14" class="edge"><title>User&#45;&gt;Classified</title>
<path fill="none" stroke="#bfeac9" d="M953.746,-196.795C863.085,-193.28 633.659,-180.702 569,-142 559.363,-136.232 551.575,-126.784 545.741,-117.645"/>
<polygon fill="#bfeac9" stroke="#bfeac9" points="953.85,-196.799 963.676,-201.668 958.847,-196.985 963.844,-197.171 963.844,-197.171 963.844,-197.171 958.847,-196.985 964.011,-192.675 953.85,-196.799 953.85,-196.799"/>
<polygon fill="#bfeac9" stroke="#bfeac9" points="545.596,-117.397 544.449,-106.492 543.079,-113.077 540.561,-108.757 540.561,-108.757 540.561,-108.757 543.079,-113.077 536.673,-111.023 545.596,-117.397 545.596,-117.397"/>
<text text-anchor="middle" x="594.5" y="-130.8" font-family="Times,serif" font-size="14.00">flaggings</text>
</g>
<!-- Flag -->
<g id="node9" class="node"><title>Flag</title>
<ellipse fill="none" stroke="black" cx="1357" cy="-18" rx="27" ry="18"/>
<text text-anchor="middle" x="1357" y="-14.3" font-family="Times,serif" font-size="14.00">Flag</text>
</g>
<!-- User&#45;&gt;Flag -->
<g id="edge12" class="edge"><title>User&#45;&gt;Flag</title>
<path fill="none" stroke="#2c1bb0" d="M1025.68,-192.687C1079.11,-184.655 1184.82,-169.364 1275,-160 1328.86,-154.407 1467.3,-161.01 1518,-142 1540.89,-133.418 1551.07,-130.864 1562,-109 1595.5,-42.0097 1462.42,-24.8764 1394.56,-20.4993"/>
<ellipse fill="none" stroke="#2c1bb0" cx="1021.52" cy="-193.315" rx="4.00001" ry="4.00001"/>
<polygon fill="#2c1bb0" stroke="#2c1bb0" points="1394.24,-20.4811 1384.52,-15.4082 1389.25,-20.1909 1384.26,-19.9006 1384.26,-19.9006 1384.26,-19.9006 1389.25,-20.1909 1384,-24.393 1394.24,-20.4811 1394.24,-20.4811"/>
</g>
<!-- Rate -->
<g id="node13" class="node"><title>Rate</title>
<ellipse fill="none" stroke="black" cx="1140" cy="-91" rx="27" ry="18"/>
<text text-anchor="middle" x="1140" y="-87.3" font-family="Times,serif" font-size="14.00">Rate</text>
</g>
<!-- User&#45;&gt;Rate -->
<g id="edge1" class="edge"><title>User&#45;&gt;Rate</title>
<path fill="none" stroke="#c8ba50" d="M1003.65,-174.559C1013,-159.169 1027.03,-139.624 1044,-127 1061.86,-113.717 1085.27,-105.047 1104.5,-99.6595"/>
<ellipse fill="none" stroke="#c8ba50" cx="1001.46" cy="-178.282" rx="4.00002" ry="4.00002"/>
<polygon fill="#c8ba50" stroke="#c8ba50" points="1104.73,-99.5982 1115.55,-101.418 1109.57,-98.3315 1114.41,-97.0648 1114.41,-97.0648 1114.41,-97.0648 1109.57,-98.3315 1113.27,-92.7116 1104.73,-99.5982 1104.73,-99.5982"/>
<text text-anchor="middle" x="1081" y="-130.8" font-family="Times,serif" font-size="14.00">ratings_given</text>
</g>
<!-- User&#45;&gt;Rate -->
<g id="edge2" class="edge"><title>User&#45;&gt;Rate</title>
<path fill="none" stroke="#59518b" d="M1024.54,-190.469C1052.67,-182.614 1092.27,-167.754 1118,-142 1124.46,-135.539 1129.17,-126.862 1132.53,-118.552"/>
<ellipse fill="none" stroke="#59518b" cx="1020.43" cy="-191.564" rx="4.00001" ry="4.00001"/>
<polygon fill="#59518b" stroke="#59518b" points="1132.54,-118.539 1140.13,-110.628 1134.22,-113.829 1135.89,-109.119 1135.89,-109.119 1135.89,-109.119 1134.22,-113.829 1131.65,-107.609 1132.54,-118.539 1132.54,-118.539"/>
<text text-anchor="middle" x="1198" y="-130.8" font-family="Times,serif" font-size="14.00">rates_without_dimension</text>
</g>
<!-- User&#45;&gt;Rate -->
<g id="edge5" class="edge"><title>User&#45;&gt;Rate</title>
<path fill="none" stroke="#c1946d" d="M1026.74,-196.293C1095.14,-192.198 1240.48,-179.225 1271,-142 1312.03,-91.946 1305.2,-146.044 1182,-109 1178.58,-107.972 1175.06,-106.775 1171.57,-105.5"/>
<ellipse fill="none" stroke="#c1946d" cx="1022.4" cy="-196.542" rx="4" ry="4"/>
<polygon fill="#c1946d" stroke="#c1946d" points="1171.28,-105.39 1163.58,-97.583 1166.62,-103.585 1161.96,-101.779 1161.96,-101.779 1161.96,-101.779 1166.62,-103.585 1160.33,-105.976 1171.28,-105.39 1171.28,-105.39"/>
<text text-anchor="middle" x="1316" y="-130.8" font-family="Times,serif" font-size="14.00">rating_rates</text>
</g>
<!-- Mailboxer::Message -->
<g id="node14" class="node"><title>Mailboxer::Message</title>
<ellipse fill="none" stroke="black" cx="1275" cy="-91" rx="83.6854" ry="18"/>
<text text-anchor="middle" x="1275" y="-87.3" font-family="Times,serif" font-size="14.00">Mailboxer::Message</text>
</g>
<!-- User&#45;&gt;Mailboxer::Message -->
<g id="edge8" class="edge"><title>User&#45;&gt;Mailboxer::Message</title>
<path fill="none" stroke="#ecf4de" d="M1025.9,-193.823C1114.4,-183.066 1341.38,-154.393 1352,-142 1363.17,-128.962 1351.31,-118.043 1333.82,-109.768"/>
<ellipse fill="none" stroke="#ecf4de" cx="1021.75" cy="-194.326" rx="4.00001" ry="4.00001"/>
<polygon fill="#ecf4de" stroke="#ecf4de" points="1333.45,-109.61 1326.01,-101.546 1328.85,-107.648 1324.25,-105.685 1324.25,-105.685 1324.25,-105.685 1328.85,-107.648 1322.48,-109.824 1333.45,-109.61 1333.45,-109.61"/>
<text text-anchor="middle" x="1383" y="-130.8" font-family="Times,serif" font-size="14.00">messages</text>
</g>
<!-- Mailboxer::Receipt -->
<g id="node15" class="node"><title>Mailboxer::Receipt</title>
<ellipse fill="none" stroke="black" cx="1456" cy="-91" rx="79.0865" ry="18"/>
<text text-anchor="middle" x="1456" y="-87.3" font-family="Times,serif" font-size="14.00">Mailboxer::Receipt</text>
</g>
<!-- User&#45;&gt;Mailboxer::Receipt -->
<g id="edge9" class="edge"><title>User&#45;&gt;Mailboxer::Receipt</title>
<path fill="none" stroke="#868059" d="M1025.75,-193.312C1079.28,-186.101 1185.12,-171.875 1275,-160 1336.32,-151.898 1358.57,-171.388 1413,-142 1423.64,-136.252 1432.83,-126.732 1439.94,-117.533"/>
<ellipse fill="none" stroke="#868059" cx="1021.59" cy="-193.874" rx="4.00001" ry="4.00001"/>
<polygon fill="#868059" stroke="#868059" points="1440.03,-117.406 1449.53,-111.921 1442.95,-113.349 1445.88,-109.291 1445.88,-109.291 1445.88,-109.291 1442.95,-113.349 1442.22,-106.662 1440.03,-117.406 1440.03,-117.406"/>
<text text-anchor="middle" x="1453.5" y="-130.8" font-family="Times,serif" font-size="14.00">receipts</text>
</g>
<!-- ApplicationRecord -->
<g id="node4" class="node"><title>ApplicationRecord</title>
<ellipse fill="none" stroke="black" cx="1361" cy="-199" rx="77.1866" ry="18"/>
<text text-anchor="middle" x="1361" y="-195.3" font-family="Times,serif" font-size="14.00">ApplicationRecord</text>
</g>
<!-- OverallAverage -->
<g id="node5" class="node"><title>OverallAverage</title>
<ellipse fill="none" stroke="black" cx="1523" cy="-199" rx="66.8882" ry="18"/>
<text text-anchor="middle" x="1523" y="-195.3" font-family="Times,serif" font-size="14.00">OverallAverage</text>
</g>
<!-- Classified&#45;&gt;User -->
<g id="edge17" class="edge"><title>Classified&#45;&gt;User</title>
<path fill="none" stroke="#de8e1f" d="M573.795,-108.437C609.419,-122.772 655.795,-141.381 658,-142 763.114,-171.494 891.515,-187.712 953.699,-194.361"/>
<polygon fill="#de8e1f" stroke="#de8e1f" points="573.354,-108.259 565.758,-100.351 568.716,-106.392 564.078,-104.525 564.078,-104.525 564.078,-104.525 568.716,-106.392 562.397,-108.7 573.354,-108.259 573.354,-108.259"/>
<polygon fill="#de8e1f" stroke="#de8e1f" points="953.863,-194.378 963.34,-199.895 958.836,-194.899 963.809,-195.419 963.809,-195.419 963.809,-195.419 958.836,-194.899 964.278,-190.944 953.863,-194.378 953.863,-194.378"/>
<text text-anchor="middle" x="693" y="-130.8" font-family="Times,serif" font-size="14.00">favorited_by</text>
</g>
<!-- Classified&#45;&gt;User -->
<g id="edge19" class="edge"><title>Classified&#45;&gt;User</title>
<path fill="none" stroke="#2b7790" d="M477.955,-97.0645C434.992,-103.096 386.255,-115.856 410,-142 428.371,-162.227 828.305,-188.128 953.727,-195.779"/>
<polygon fill="#2b7790" stroke="#2b7790" points="478.22,-97.0301 488.717,-100.203 483.179,-96.3852 488.137,-95.7402 488.137,-95.7402 488.137,-95.7402 483.179,-96.3852 487.556,-91.2778 478.22,-97.0301 478.22,-97.0301"/>
<polygon fill="#2b7790" stroke="#2b7790" points="953.996,-195.795 963.705,-200.892 958.987,-196.098 963.978,-196.401 963.978,-196.401 963.978,-196.401 958.987,-196.098 964.25,-191.909 953.996,-195.795 953.996,-195.795"/>
<text text-anchor="middle" x="440.5" y="-130.8" font-family="Times,serif" font-size="14.00">flagged_by</text>
</g>
<!-- Classified&#45;&gt;FavoriteClassified -->
<g id="edge16" class="edge"><title>Classified&#45;&gt;FavoriteClassified</title>
<path fill="none" stroke="#bae8af" d="M583.613,-82.9676C674.395,-70.3541 865.22,-43.8403 970.453,-29.2188"/>
<ellipse fill="none" stroke="#bae8af" cx="579.651" cy="-83.5182" rx="4.00001" ry="4.00001"/>
<polygon fill="#bae8af" stroke="#bae8af" points="970.77,-29.175 981.294,-32.2559 975.722,-28.4868 980.674,-27.7987 980.674,-27.7987 980.674,-27.7987 975.722,-28.4868 980.055,-23.3415 970.77,-29.175 970.77,-29.175"/>
</g>
<!-- Classified&#45;&gt;Flag -->
<g id="edge18" class="edge"><title>Classified&#45;&gt;Flag</title>
<path fill="none" stroke="#5b5688" d="M585.806,-85.45C740.229,-72.1441 1188.38,-33.5289 1320.15,-22.1751"/>
<ellipse fill="none" stroke="#5b5688" cx="581.579" cy="-85.8141" rx="4" ry="4"/>
<polygon fill="#5b5688" stroke="#5b5688" points="1320.18,-22.1723 1330.53,-25.7971 1325.17,-21.743 1330.15,-21.3138 1330.15,-21.3138 1330.15,-21.3138 1325.17,-21.743 1329.76,-16.8304 1320.18,-22.1723 1320.18,-22.1723"/>
</g>
<!-- Photo -->
<g id="node11" class="node"><title>Photo</title>
<ellipse fill="none" stroke="black" cx="533" cy="-18" rx="31.3957" ry="18"/>
<text text-anchor="middle" x="533" y="-14.3" font-family="Times,serif" font-size="14.00">Photo</text>
</g>
<!-- Classified&#45;&gt;Photo -->
<g id="edge15" class="edge"><title>Classified&#45;&gt;Photo</title>
<path fill="none" stroke="#941c8e" d="M533,-64.791C533,-58.832 533,-52.4496 533,-46.3988"/>
<ellipse fill="none" stroke="#941c8e" cx="533" cy="-68.8129" rx="4" ry="4"/>
<polygon fill="#941c8e" stroke="#941c8e" points="533,-46.0288 537.5,-36.0288 533,-41.0288 533,-36.0288 533,-36.0288 533,-36.0288 533,-41.0288 528.5,-36.0289 533,-46.0288 533,-46.0288"/>
</g>
<!-- Category -->
<g id="node10" class="node"><title>Category</title>
<ellipse fill="none" stroke="black" cx="355" cy="-199" rx="42.7926" ry="18"/>
<text text-anchor="middle" x="355" y="-195.3" font-family="Times,serif" font-size="14.00">Category</text>
</g>
<!-- Category&#45;&gt;Classified -->
<g id="edge21" class="edge"><title>Category&#45;&gt;Classified</title>
<path fill="none" stroke="#997a72" d="M353.468,-172.933C353.94,-157.694 357.249,-138.935 369,-127 384.143,-111.62 436.761,-102.314 478.364,-97.2064"/>
<ellipse fill="none" stroke="#997a72" cx="353.465" cy="-176.971" rx="4" ry="4"/>
<polygon fill="#997a72" stroke="#997a72" points="478.471,-97.1939 488.927,-100.497 483.437,-96.6107 488.403,-96.0275 488.403,-96.0275 488.403,-96.0275 483.437,-96.6107 487.878,-91.5582 478.471,-97.1939 478.471,-97.1939"/>
</g>
<!-- Category&#45;&gt;Category -->
<g id="edge20" class="edge"><title>Category&#45;&gt;Category</title>
<path fill="none" stroke="#eaa8da" d="M395.804,-210.936C407.179,-210.393 415.896,-206.414 415.896,-199 415.896,-192.014 408.156,-188.078 397.745,-187.193"/>
<ellipse fill="none" stroke="#eaa8da" cx="391.578" cy="-210.847" rx="4" ry="4"/>
<polygon fill="#eaa8da" stroke="#eaa8da" points="397.578,-187.193 387.559,-182.737 392.579,-187.215 387.579,-187.237 387.579,-187.237 387.579,-187.237 392.579,-187.215 387.598,-191.737 397.578,-187.193 397.578,-187.193"/>
<text text-anchor="middle" x="438.396" y="-195.3" font-family="Times,serif" font-size="14.00">children</text>
</g>
<!-- AverageCache -->
<g id="node12" class="node"><title>AverageCache</title>
<ellipse fill="none" stroke="black" cx="1670" cy="-199" rx="62.2891" ry="18"/>
<text text-anchor="middle" x="1670" y="-195.3" font-family="Times,serif" font-size="14.00">AverageCache</text>
</g>
</g>
</svg>
