<?xml version="1.0" encoding="UTF-8" standalone="no"?>
<!DOCTYPE svg PUBLIC "-//W3C//DTD SVG 1.1//EN"
 "http://www.w3.org/Graphics/SVG/1.1/DTD/svg11.dtd">
<!-- Generated by graphviz version 2.38.0 (20140413.2041)
 -->
<!-- Title: models_diagram Pages: 1 -->
<svg width="1927pt" height="882pt"
 viewBox="0.00 0.00 1926.50 882.00" xmlns="http://www.w3.org/2000/svg" xmlns:xlink="http://www.w3.org/1999/xlink">
<g id="graph0" class="graph" transform="scale(1 1) rotate(0) translate(4 878)">
<title>models_diagram</title>
<polygon fill="none" stroke="none" points="-4,4 -4,-878 1922.5,-878 1922.5,4 -4,4"/>
<!-- _diagram_info -->
<g id="node1" class="node"><title>_diagram_info</title>
<text text-anchor="start" x="8" y="-755.1" font-family="Times,serif" font-size="13.00">Models diagram</text>
<text text-anchor="start" x="8" y="-741.1" font-family="Times,serif" font-size="13.00">Date: Nov 17 2016 &#45; 22:40</text>
<text text-anchor="start" x="8" y="-727.1" font-family="Times,serif" font-size="13.00">Migration version: 20161019232321</text>
<text text-anchor="start" x="8" y="-713.1" font-family="Times,serif" font-size="13.00">Generated by RailRoady 1.5.2</text>
<text text-anchor="start" x="8" y="-699.1" font-family="Times,serif" font-size="13.00">http://railroady.prestonlee.com</text>
</g>
<!-- Make -->
<g id="node2" class="node"><title>Make</title>
<path fill="none" stroke="black" d="M244.5,-685C244.5,-685 351.5,-685 351.5,-685 357.5,-685 363.5,-691 363.5,-697 363.5,-697 363.5,-764 363.5,-764 363.5,-770 357.5,-776 351.5,-776 351.5,-776 244.5,-776 244.5,-776 238.5,-776 232.5,-770 232.5,-764 232.5,-764 232.5,-697 232.5,-697 232.5,-691 238.5,-685 244.5,-685"/>
<text text-anchor="middle" x="298" y="-760.8" font-family="Times,serif" font-size="14.00">Make</text>
<polyline fill="none" stroke="black" points="232.5,-753 363.5,-753 "/>
<text text-anchor="start" x="240.5" y="-737.8" font-family="Times,serif" font-size="14.00">id :INTEGER</text>
<text text-anchor="start" x="240.5" y="-722.8" font-family="Times,serif" font-size="14.00">name :varchar</text>
<text text-anchor="start" x="240.5" y="-707.8" font-family="Times,serif" font-size="14.00">created_at :datetime</text>
<text text-anchor="start" x="240.5" y="-692.8" font-family="Times,serif" font-size="14.00">updated_at :datetime</text>
</g>
<!-- User -->
<g id="node3" class="node"><title>User</title>
<path fill="none" stroke="black" d="M1001,-587.5C1001,-587.5 1177,-587.5 1177,-587.5 1183,-587.5 1189,-593.5 1189,-599.5 1189,-599.5 1189,-861.5 1189,-861.5 1189,-867.5 1183,-873.5 1177,-873.5 1177,-873.5 1001,-873.5 1001,-873.5 995,-873.5 989,-867.5 989,-861.5 989,-861.5 989,-599.5 989,-599.5 989,-593.5 995,-587.5 1001,-587.5"/>
<text text-anchor="middle" x="1089" y="-858.3" font-family="Times,serif" font-size="14.00">User</text>
<polyline fill="none" stroke="black" points="989,-850.5 1189,-850.5 "/>
<text text-anchor="start" x="997" y="-835.3" font-family="Times,serif" font-size="14.00">id :INTEGER</text>
<text text-anchor="start" x="997" y="-820.3" font-family="Times,serif" font-size="14.00">first_name :varchar</text>
<text text-anchor="start" x="997" y="-805.3" font-family="Times,serif" font-size="14.00">email :varchar</text>
<text text-anchor="start" x="997" y="-790.3" font-family="Times,serif" font-size="14.00">region :varchar</text>
<text text-anchor="start" x="997" y="-775.3" font-family="Times,serif" font-size="14.00">telephone :varchar</text>
<text text-anchor="start" x="997" y="-760.3" font-family="Times,serif" font-size="14.00">stars :varchar</text>
<text text-anchor="start" x="997" y="-745.3" font-family="Times,serif" font-size="14.00">created_at :datetime</text>
<text text-anchor="start" x="997" y="-730.3" font-family="Times,serif" font-size="14.00">updated_at :datetime</text>
<text text-anchor="start" x="997" y="-715.3" font-family="Times,serif" font-size="14.00">encrypted_password :varchar</text>
<text text-anchor="start" x="997" y="-700.3" font-family="Times,serif" font-size="14.00">reset_password_token :varchar</text>
<text text-anchor="start" x="997" y="-685.3" font-family="Times,serif" font-size="14.00">reset_password_sent_at :datetime</text>
<text text-anchor="start" x="997" y="-670.3" font-family="Times,serif" font-size="14.00">remember_created_at :datetime</text>
<text text-anchor="start" x="997" y="-655.3" font-family="Times,serif" font-size="14.00">sign_in_count :integer</text>
<text text-anchor="start" x="997" y="-640.3" font-family="Times,serif" font-size="14.00">current_sign_in_at :datetime</text>
<text text-anchor="start" x="997" y="-625.3" font-family="Times,serif" font-size="14.00">last_sign_in_at :datetime</text>
<text text-anchor="start" x="997" y="-610.3" font-family="Times,serif" font-size="14.00">current_sign_in_ip :varchar</text>
<text text-anchor="start" x="997" y="-595.3" font-family="Times,serif" font-size="14.00">last_sign_in_ip :varchar</text>
</g>
<!-- User&#45;&gt;User -->
<g id="edge3" class="edge"><title>User&#45;&gt;User</title>
<path fill="none" stroke="#8cc9f3" d="M1198.91,-740.383C1204.01,-737.886 1207,-734.591 1207,-730.5 1207,-726.409 1204.01,-723.114 1198.91,-720.617"/>
<polygon fill="#8cc9f3" stroke="#8cc9f3" points="1198.76,-740.436 1187.84,-739.389 1194.02,-742.043 1189.29,-743.651 1189.29,-743.651 1189.29,-743.651 1194.02,-742.043 1190.73,-747.912 1198.76,-740.436 1198.76,-740.436"/>
<polygon fill="#8cc9f3" stroke="#8cc9f3" points="1198.76,-720.564 1190.73,-713.088 1194.02,-718.957 1189.29,-717.349 1189.29,-717.349 1189.29,-717.349 1194.02,-718.957 1187.84,-721.611 1198.76,-720.564 1198.76,-720.564"/>
<text text-anchor="middle" x="1278" y="-726.8" font-family="Times,serif" font-size="14.00">raters_without_dimension</text>
</g>
<!-- User&#45;&gt;User -->
<g id="edge6" class="edge"><title>User&#45;&gt;User</title>
<path fill="none" stroke="#db5693" d="M1199.2,-760.676C1271.07,-765.864 1349,-755.806 1349,-730.5 1349,-705.194 1271.07,-695.136 1199.2,-700.324"/>
<polygon fill="#db5693" stroke="#db5693" points="1199.08,-760.665 1189.48,-755.358 1194.09,-760.254 1189.11,-759.842 1189.11,-759.842 1189.11,-759.842 1194.09,-760.254 1188.74,-764.327 1199.08,-760.665 1199.08,-760.665"/>
<polygon fill="#db5693" stroke="#db5693" points="1199.08,-700.335 1188.74,-696.673 1194.09,-700.746 1189.11,-701.158 1189.11,-701.158 1189.11,-701.158 1194.09,-700.746 1189.48,-705.642 1199.08,-700.335 1199.08,-700.335"/>
<text text-anchor="middle" x="1383.5" y="-726.8" font-family="Times,serif" font-size="14.00">rating_raters</text>
</g>
<!-- FavoriteClassified -->
<g id="node6" class="node"><title>FavoriteClassified</title>
<path fill="none" stroke="black" d="M1107.5,-23C1107.5,-23 1214.5,-23 1214.5,-23 1220.5,-23 1226.5,-29 1226.5,-35 1226.5,-35 1226.5,-117 1226.5,-117 1226.5,-123 1220.5,-129 1214.5,-129 1214.5,-129 1107.5,-129 1107.5,-129 1101.5,-129 1095.5,-123 1095.5,-117 1095.5,-117 1095.5,-35 1095.5,-35 1095.5,-29 1101.5,-23 1107.5,-23"/>
<text text-anchor="middle" x="1161" y="-113.8" font-family="Times,serif" font-size="14.00">FavoriteClassified</text>
<polyline fill="none" stroke="black" points="1095.5,-106 1226.5,-106 "/>
<text text-anchor="start" x="1103.5" y="-90.8" font-family="Times,serif" font-size="14.00">id :INTEGER</text>
<text text-anchor="start" x="1103.5" y="-75.8" font-family="Times,serif" font-size="14.00">user_id :integer</text>
<text text-anchor="start" x="1103.5" y="-60.8" font-family="Times,serif" font-size="14.00">classified_id :integer</text>
<text text-anchor="start" x="1103.5" y="-45.8" font-family="Times,serif" font-size="14.00">created_at :datetime</text>
<text text-anchor="start" x="1103.5" y="-30.8" font-family="Times,serif" font-size="14.00">updated_at :datetime</text>
</g>
<!-- User&#45;&gt;FavoriteClassified -->
<g id="edge11" class="edge"><title>User&#45;&gt;FavoriteClassified</title>
<path fill="none" stroke="#71695d" d="M1196.86,-679.01C1266.35,-648.324 1359.4,-610.631 1445,-587 1535.09,-562.13 1595.35,-612.524 1649,-536 1693.27,-472.86 1699.09,-247.629 1649,-189 1614.8,-148.972 1466.35,-163.59 1415,-152 1354.24,-138.287 1286.66,-118.085 1236.49,-102.102"/>
<ellipse fill="none" stroke="#71695d" cx="1193.01" cy="-680.714" rx="4.00002" ry="4.00002"/>
<polygon fill="#71695d" stroke="#71695d" points="1236.22,-102.015 1228.07,-94.6795 1231.46,-100.49 1226.7,-98.965 1226.7,-98.965 1226.7,-98.965 1231.46,-100.49 1225.32,-103.251 1236.22,-102.015 1236.22,-102.015"/>
</g>
<!-- RatingCache -->
<g id="node7" class="node"><title>RatingCache</title>
<path fill="none" stroke="black" d="M873,-287C873,-287 997,-287 997,-287 1003,-287 1009,-293 1009,-299 1009,-299 1009,-426 1009,-426 1009,-432 1003,-438 997,-438 997,-438 873,-438 873,-438 867,-438 861,-432 861,-426 861,-426 861,-299 861,-299 861,-293 867,-287 873,-287"/>
<text text-anchor="middle" x="935" y="-422.8" font-family="Times,serif" font-size="14.00">RatingCache</text>
<polyline fill="none" stroke="black" points="861,-415 1009,-415 "/>
<text text-anchor="start" x="869" y="-399.8" font-family="Times,serif" font-size="14.00">id :INTEGER</text>
<text text-anchor="start" x="869" y="-384.8" font-family="Times,serif" font-size="14.00">cacheable_type :varchar</text>
<text text-anchor="start" x="869" y="-369.8" font-family="Times,serif" font-size="14.00">cacheable_id :integer</text>
<text text-anchor="start" x="869" y="-354.8" font-family="Times,serif" font-size="14.00">avg :float</text>
<text text-anchor="start" x="869" y="-339.8" font-family="Times,serif" font-size="14.00">qty :integer</text>
<text text-anchor="start" x="869" y="-324.8" font-family="Times,serif" font-size="14.00">dimension :varchar</text>
<text text-anchor="start" x="869" y="-309.8" font-family="Times,serif" font-size="14.00">created_at :datetime</text>
<text text-anchor="start" x="869" y="-294.8" font-family="Times,serif" font-size="14.00">updated_at :datetime</text>
</g>
<!-- User&#45;&gt;RatingCache -->
<g id="edge4" class="edge"><title>User&#45;&gt;RatingCache</title>
<path fill="none" stroke="#8db6dd" d="M981.393,-691.183C926.804,-665.629 865.52,-626.082 834,-569 811.748,-528.701 830.293,-482.811 857.28,-444.635"/>
<ellipse fill="none" stroke="#8db6dd" cx="985.067" cy="-692.871" rx="4.00002" ry="4.00002"/>
<ellipse fill="#8db6dd" stroke="#8db6dd" cx="859.689" cy="-441.324" rx="4.00002" ry="4.00002"/>
<text text-anchor="middle" x="924.5" y="-557.8" font-family="Times,serif" font-size="14.00">rate_average_without_dimension</text>
</g>
<!-- User&#45;&gt;RatingCache -->
<g id="edge7" class="edge"><title>User&#45;&gt;RatingCache</title>
<path fill="none" stroke="#5b42a0" d="M1026.09,-579.979C1006.83,-534.204 986.348,-485.536 969.697,-445.963"/>
<ellipse fill="none" stroke="#5b42a0" cx="1027.69" cy="-583.784" rx="4.00002" ry="4.00002"/>
<ellipse fill="#5b42a0" stroke="#5b42a0" cx="967.971" cy="-441.86" rx="4.00001" ry="4.00001"/>
<text text-anchor="middle" x="1062.5" y="-557.8" font-family="Times,serif" font-size="14.00">rating_average</text>
</g>
<!-- Classified -->
<g id="node8" class="node"><title>Classified</title>
<path fill="none" stroke="black" d="M571.5,-189.5C571.5,-189.5 690.5,-189.5 690.5,-189.5 696.5,-189.5 702.5,-195.5 702.5,-201.5 702.5,-201.5 702.5,-523.5 702.5,-523.5 702.5,-529.5 696.5,-535.5 690.5,-535.5 690.5,-535.5 571.5,-535.5 571.5,-535.5 565.5,-535.5 559.5,-529.5 559.5,-523.5 559.5,-523.5 559.5,-201.5 559.5,-201.5 559.5,-195.5 565.5,-189.5 571.5,-189.5"/>
<text text-anchor="middle" x="631" y="-520.3" font-family="Times,serif" font-size="14.00">Classified</text>
<polyline fill="none" stroke="black" points="559.5,-512.5 702.5,-512.5 "/>
<text text-anchor="start" x="567.5" y="-497.3" font-family="Times,serif" font-size="14.00">id :INTEGER</text>
<text text-anchor="start" x="567.5" y="-482.3" font-family="Times,serif" font-size="14.00">make :varchar</text>
<text text-anchor="start" x="567.5" y="-467.3" font-family="Times,serif" font-size="14.00">model :varchar</text>
<text text-anchor="start" x="567.5" y="-452.3" font-family="Times,serif" font-size="14.00">year :varchar</text>
<text text-anchor="start" x="567.5" y="-437.3" font-family="Times,serif" font-size="14.00">color :varchar</text>
<text text-anchor="start" x="567.5" y="-422.3" font-family="Times,serif" font-size="14.00">title :varchar</text>
<text text-anchor="start" x="567.5" y="-407.3" font-family="Times,serif" font-size="14.00">condition :varchar</text>
<text text-anchor="start" x="567.5" y="-392.3" font-family="Times,serif" font-size="14.00">offer :varchar</text>
<text text-anchor="start" x="567.5" y="-377.3" font-family="Times,serif" font-size="14.00">make_country :varchar</text>
<text text-anchor="start" x="567.5" y="-362.3" font-family="Times,serif" font-size="14.00">description :text</text>
<text text-anchor="start" x="567.5" y="-347.3" font-family="Times,serif" font-size="14.00">user_id :integer</text>
<text text-anchor="start" x="567.5" y="-332.3" font-family="Times,serif" font-size="14.00">created_at :datetime</text>
<text text-anchor="start" x="567.5" y="-317.3" font-family="Times,serif" font-size="14.00">updated_at :datetime</text>
<text text-anchor="start" x="567.5" y="-302.3" font-family="Times,serif" font-size="14.00">category_id :integer</text>
<text text-anchor="start" x="567.5" y="-287.3" font-family="Times,serif" font-size="14.00">sold :boolean</text>
<text text-anchor="start" x="567.5" y="-272.3" font-family="Times,serif" font-size="14.00">hold :boolean</text>
<text text-anchor="start" x="567.5" y="-257.3" font-family="Times,serif" font-size="14.00">price_cents :integer</text>
<text text-anchor="start" x="567.5" y="-242.3" font-family="Times,serif" font-size="14.00">giveaway :boolean</text>
<text text-anchor="start" x="567.5" y="-227.3" font-family="Times,serif" font-size="14.00">trade :boolean</text>
<text text-anchor="start" x="567.5" y="-212.3" font-family="Times,serif" font-size="14.00">sell :boolean</text>
<text text-anchor="start" x="567.5" y="-197.3" font-family="Times,serif" font-size="14.00">askingfor :boolean</text>
</g>
<!-- User&#45;&gt;Classified -->
<g id="edge10" class="edge"><title>User&#45;&gt;Classified</title>
<path fill="none" stroke="#de9f08" d="M980.836,-702.905C837.714,-666.638 600.526,-602.372 576,-569 570.577,-561.62 566.72,-553.742 564.177,-545.532"/>
<ellipse fill="none" stroke="#de9f08" cx="984.973" cy="-703.951" rx="4.00001" ry="4.00001"/>
<polygon fill="#de9f08" stroke="#de9f08" points="564.16,-545.463 566.151,-534.679 562.97,-540.607 561.781,-535.75 561.781,-535.75 561.781,-535.75 562.97,-540.607 557.41,-536.821 564.16,-545.463 564.16,-545.463"/>
</g>
<!-- User&#45;&gt;Classified -->
<g id="edge13" class="edge"><title>User&#45;&gt;Classified</title>
<path fill="none" stroke="#5951c0" d="M978.772,-709.127C847.855,-682.426 641.423,-631.557 596,-569 590.651,-561.633 586.691,-553.729 583.899,-545.466"/>
<polygon fill="#5951c0" stroke="#5951c0" points="979.044,-709.182 987.954,-715.575 983.945,-710.173 988.846,-711.164 988.846,-711.164 988.846,-711.164 983.945,-710.173 989.738,-706.753 979.044,-709.182 979.044,-709.182"/>
<polygon fill="#5951c0" stroke="#5951c0" points="583.836,-545.242 585.478,-534.399 582.49,-540.426 581.144,-535.611 581.144,-535.611 581.144,-535.611 582.49,-540.426 576.81,-536.822 583.836,-545.242 583.836,-545.242"/>
<text text-anchor="middle" x="620" y="-557.8" font-family="Times,serif" font-size="14.00">favorites</text>
</g>
<!-- User&#45;&gt;Classified -->
<g id="edge14" class="edge"><title>User&#45;&gt;Classified</title>
<path fill="none" stroke="#8d5c77" d="M978.564,-717.782C881.487,-701.392 744.018,-662.243 667,-569 660.837,-561.539 655.568,-553.396 651.074,-544.796"/>
<polygon fill="#8d5c77" stroke="#8d5c77" points="978.845,-717.827 987.99,-723.879 983.779,-718.633 988.714,-719.438 988.714,-719.438 988.714,-719.438 983.779,-718.633 989.439,-714.996 978.845,-717.827 978.845,-717.827"/>
<polygon fill="#8d5c77" stroke="#8d5c77" points="651.019,-544.681 650.718,-533.719 648.842,-540.179 646.666,-535.678 646.666,-535.678 646.666,-535.678 648.842,-540.179 642.615,-537.636 651.019,-544.681 651.019,-544.681"/>
<text text-anchor="middle" x="692.5" y="-557.8" font-family="Times,serif" font-size="14.00">flaggings</text>
</g>
<!-- Flag -->
<g id="node9" class="node"><title>Flag</title>
<path fill="none" stroke="black" d="M1436.5,-23C1436.5,-23 1543.5,-23 1543.5,-23 1549.5,-23 1555.5,-29 1555.5,-35 1555.5,-35 1555.5,-117 1555.5,-117 1555.5,-123 1549.5,-129 1543.5,-129 1543.5,-129 1436.5,-129 1436.5,-129 1430.5,-129 1424.5,-123 1424.5,-117 1424.5,-117 1424.5,-35 1424.5,-35 1424.5,-29 1430.5,-23 1436.5,-23"/>
<text text-anchor="middle" x="1490" y="-113.8" font-family="Times,serif" font-size="14.00">Flag</text>
<polyline fill="none" stroke="black" points="1424.5,-106 1555.5,-106 "/>
<text text-anchor="start" x="1432.5" y="-90.8" font-family="Times,serif" font-size="14.00">id :INTEGER</text>
<text text-anchor="start" x="1432.5" y="-75.8" font-family="Times,serif" font-size="14.00">created_at :datetime</text>
<text text-anchor="start" x="1432.5" y="-60.8" font-family="Times,serif" font-size="14.00">updated_at :datetime</text>
<text text-anchor="start" x="1432.5" y="-45.8" font-family="Times,serif" font-size="14.00">user_id :integer</text>
<text text-anchor="start" x="1432.5" y="-30.8" font-family="Times,serif" font-size="14.00">classified_id :integer</text>
</g>
<!-- User&#45;&gt;Flag -->
<g id="edge12" class="edge"><title>User&#45;&gt;Flag</title>
<path fill="none" stroke="#cf46d5" d="M1196.74,-676.917C1266,-645.513 1358.83,-607.801 1445,-587 1528.74,-566.784 1557.98,-600.913 1638,-569 1660.05,-560.206 1669.62,-557.351 1680,-536 1747.42,-397.293 1756.51,-322.908 1680,-189 1655.36,-145.882 1606.93,-117.707 1565.13,-100.4"/>
<ellipse fill="none" stroke="#cf46d5" cx="1192.9" cy="-678.665" rx="4.00002" ry="4.00002"/>
<polygon fill="#cf46d5" stroke="#cf46d5" points="1565.05,-100.372 1557.44,-92.4802 1560.41,-98.515 1555.77,-96.6585 1555.77,-96.6585 1555.77,-96.6585 1560.41,-98.515 1554.1,-100.837 1565.05,-100.372 1565.05,-100.372"/>
</g>
<!-- Rate -->
<g id="node13" class="node"><title>Rate</title>
<path fill="none" stroke="black" d="M1153.5,-287C1153.5,-287 1266.5,-287 1266.5,-287 1272.5,-287 1278.5,-293 1278.5,-299 1278.5,-299 1278.5,-426 1278.5,-426 1278.5,-432 1272.5,-438 1266.5,-438 1266.5,-438 1153.5,-438 1153.5,-438 1147.5,-438 1141.5,-432 1141.5,-426 1141.5,-426 1141.5,-299 1141.5,-299 1141.5,-293 1147.5,-287 1153.5,-287"/>
<text text-anchor="middle" x="1210" y="-422.8" font-family="Times,serif" font-size="14.00">Rate</text>
<polyline fill="none" stroke="black" points="1141.5,-415 1278.5,-415 "/>
<text text-anchor="start" x="1149.5" y="-399.8" font-family="Times,serif" font-size="14.00">id :INTEGER</text>
<text text-anchor="start" x="1149.5" y="-384.8" font-family="Times,serif" font-size="14.00">rater_id :integer</text>
<text text-anchor="start" x="1149.5" y="-369.8" font-family="Times,serif" font-size="14.00">rateable_type :varchar</text>
<text text-anchor="start" x="1149.5" y="-354.8" font-family="Times,serif" font-size="14.00">rateable_id :integer</text>
<text text-anchor="start" x="1149.5" y="-339.8" font-family="Times,serif" font-size="14.00">stars :float</text>
<text text-anchor="start" x="1149.5" y="-324.8" font-family="Times,serif" font-size="14.00">dimension :varchar</text>
<text text-anchor="start" x="1149.5" y="-309.8" font-family="Times,serif" font-size="14.00">created_at :datetime</text>
<text text-anchor="start" x="1149.5" y="-294.8" font-family="Times,serif" font-size="14.00">updated_at :datetime</text>
</g>
<!-- User&#45;&gt;Rate -->
<g id="edge1" class="edge"><title>User&#45;&gt;Rate</title>
<path fill="none" stroke="#2a9f58" d="M1133.85,-579.209C1136.57,-570.667 1139.29,-562.217 1142,-554 1153.49,-519.088 1166.96,-480.879 1178.86,-447.905"/>
<ellipse fill="none" stroke="#2a9f58" cx="1132.57" cy="-583.261" rx="4.00001" ry="4.00001"/>
<polygon fill="#2a9f58" stroke="#2a9f58" points="1178.93,-447.705 1186.56,-439.833 1180.63,-443.003 1182.33,-438.301 1182.33,-438.301 1182.33,-438.301 1180.63,-443.003 1178.1,-436.77 1178.93,-447.705 1178.93,-447.705"/>
<text text-anchor="middle" x="1179" y="-557.8" font-family="Times,serif" font-size="14.00">ratings_given</text>
</g>
<!-- User&#45;&gt;Rate -->
<g id="edge2" class="edge"><title>User&#45;&gt;Rate</title>
<path fill="none" stroke="#029bf9" d="M1193.36,-615.432C1202.53,-600.621 1210.43,-585.007 1216,-569 1229.29,-530.781 1229.63,-486.111 1225.89,-448.199"/>
<ellipse fill="none" stroke="#029bf9" cx="1191.21" cy="-618.806" rx="4.00002" ry="4.00002"/>
<polygon fill="#029bf9" stroke="#029bf9" points="1225.88,-448.147 1229.27,-437.716 1225.34,-443.177 1224.79,-438.207 1224.79,-438.207 1224.79,-438.207 1225.34,-443.177 1220.32,-438.697 1225.88,-448.147 1225.88,-448.147"/>
<text text-anchor="middle" x="1289" y="-557.8" font-family="Times,serif" font-size="14.00">rates_without_dimension</text>
</g>
<!-- User&#45;&gt;Rate -->
<g id="edge5" class="edge"><title>User&#45;&gt;Rate</title>
<path fill="none" stroke="#47ae76" d="M1196.92,-696.047C1256.98,-671.273 1326.59,-630.897 1362,-569 1387.79,-523.915 1313.15,-557.723 1287,-536 1260.02,-513.588 1242.15,-479.8 1230.48,-448.051"/>
<ellipse fill="none" stroke="#47ae76" cx="1192.98" cy="-697.641" rx="4.00001" ry="4.00001"/>
<polygon fill="#47ae76" stroke="#47ae76" points="1230.36,-447.715 1231.3,-436.789 1228.71,-442.996 1227.05,-438.278 1227.05,-438.278 1227.05,-438.278 1228.71,-442.996 1222.81,-439.766 1230.36,-447.715 1230.36,-447.715"/>
<text text-anchor="middle" x="1400" y="-557.8" font-family="Times,serif" font-size="14.00">rating_rates</text>
</g>
<!-- Mailboxer::Message -->
<g id="node14" class="node"><title>Mailboxer::Message</title>
<ellipse fill="none" stroke="black" cx="1380" cy="-362.5" rx="83.6854" ry="18"/>
<text text-anchor="middle" x="1380" y="-358.8" font-family="Times,serif" font-size="14.00">Mailboxer::Message</text>
</g>
<!-- User&#45;&gt;Mailboxer::Message -->
<g id="edge8" class="edge"><title>User&#45;&gt;Mailboxer::Message</title>
<path fill="none" stroke="#485301" d="M1197.66,-711.187C1278.65,-691.229 1383.9,-650.507 1436,-569 1472.92,-511.238 1427,-429.36 1398.85,-388.59"/>
<ellipse fill="none" stroke="#485301" cx="1193.29" cy="-712.236" rx="4.00001" ry="4.00001"/>
<polygon fill="#485301" stroke="#485301" points="1398.77,-388.466 1396.66,-377.705 1395.88,-384.386 1392.99,-380.306 1392.99,-380.306 1392.99,-380.306 1395.88,-384.386 1389.31,-382.906 1398.77,-388.466 1398.77,-388.466"/>
<text text-anchor="middle" x="1470" y="-557.8" font-family="Times,serif" font-size="14.00">messages</text>
</g>
<!-- Mailboxer::Receipt -->
<g id="node15" class="node"><title>Mailboxer::Receipt</title>
<ellipse fill="none" stroke="black" cx="1561" cy="-362.5" rx="79.0865" ry="18"/>
<text text-anchor="middle" x="1561" y="-358.8" font-family="Times,serif" font-size="14.00">Mailboxer::Receipt</text>
</g>
<!-- User&#45;&gt;Mailboxer::Receipt -->
<g id="edge9" class="edge"><title>User&#45;&gt;Mailboxer::Receipt</title>
<path fill="none" stroke="#fb66f5" d="M1196.81,-684.242C1267.05,-655.279 1360.93,-617.546 1445,-587 1469.17,-578.216 1482.07,-587.437 1500,-569 1547.96,-519.69 1558.46,-434.457 1560.6,-390.88"/>
<ellipse fill="none" stroke="#fb66f5" cx="1192.93" cy="-685.846" rx="4.00001" ry="4.00001"/>
<polygon fill="#fb66f5" stroke="#fb66f5" points="1560.6,-390.739 1565.47,-380.915 1560.79,-385.742 1560.98,-380.746 1560.98,-380.746 1560.98,-380.746 1560.79,-385.742 1556.48,-380.577 1560.6,-390.739 1560.6,-390.739"/>
<text text-anchor="middle" x="1532.5" y="-557.8" font-family="Times,serif" font-size="14.00">receipts</text>
</g>
<!-- ApplicationRecord -->
<g id="node4" class="node"><title>ApplicationRecord</title>
<ellipse fill="none" stroke="black" cx="1531" cy="-730.5" rx="77.1866" ry="18"/>
<text text-anchor="middle" x="1531" y="-726.8" font-family="Times,serif" font-size="14.00">ApplicationRecord</text>
</g>
<!-- OverallAverage -->
<g id="node5" class="node"><title>OverallAverage</title>
<path fill="none" stroke="black" d="M1638.5,-670C1638.5,-670 1751.5,-670 1751.5,-670 1757.5,-670 1763.5,-676 1763.5,-682 1763.5,-682 1763.5,-779 1763.5,-779 1763.5,-785 1757.5,-791 1751.5,-791 1751.5,-791 1638.5,-791 1638.5,-791 1632.5,-791 1626.5,-785 1626.5,-779 1626.5,-779 1626.5,-682 1626.5,-682 1626.5,-676 1632.5,-670 1638.5,-670"/>
<text text-anchor="middle" x="1695" y="-775.8" font-family="Times,serif" font-size="14.00">OverallAverage</text>
<polyline fill="none" stroke="black" points="1626.5,-768 1763.5,-768 "/>
<text text-anchor="start" x="1634.5" y="-752.8" font-family="Times,serif" font-size="14.00">id :INTEGER</text>
<text text-anchor="start" x="1634.5" y="-737.8" font-family="Times,serif" font-size="14.00">rateable_type :varchar</text>
<text text-anchor="start" x="1634.5" y="-722.8" font-family="Times,serif" font-size="14.00">rateable_id :integer</text>
<text text-anchor="start" x="1634.5" y="-707.8" font-family="Times,serif" font-size="14.00">overall_avg :float</text>
<text text-anchor="start" x="1634.5" y="-692.8" font-family="Times,serif" font-size="14.00">created_at :datetime</text>
<text text-anchor="start" x="1634.5" y="-677.8" font-family="Times,serif" font-size="14.00">updated_at :datetime</text>
</g>
<!-- Classified&#45;&gt;User -->
<g id="edge17" class="edge"><title>Classified&#45;&gt;User</title>
<path fill="none" stroke="#8f75ca" d="M708.277,-514.078C722.445,-534.01 738.398,-553.033 756,-569 820.126,-627.169 909.141,-668.602 979.005,-694.784"/>
<polygon fill="#8f75ca" stroke="#8f75ca" points="708.228,-514.007 706.219,-503.227 705.375,-509.9 702.523,-505.794 702.523,-505.794 702.523,-505.794 705.375,-509.9 698.827,-508.361 708.228,-514.007 708.228,-514.007"/>
<polygon fill="#8f75ca" stroke="#8f75ca" points="979.351,-694.912 987.172,-702.598 984.041,-696.645 988.732,-698.377 988.732,-698.377 988.732,-698.377 984.041,-696.645 990.291,-694.156 979.351,-694.912 979.351,-694.912"/>
<text text-anchor="middle" x="791" y="-557.8" font-family="Times,serif" font-size="14.00">favorited_by</text>
</g>
<!-- Classified&#45;&gt;User -->
<g id="edge19" class="edge"><title>Classified&#45;&gt;User</title>
<path fill="none" stroke="#19317e" d="M551.711,-425.004C506.618,-467.406 465.88,-524.006 503,-569 529.792,-601.475 555.069,-577.145 596,-587 728.866,-618.991 879.508,-663.806 978.922,-694.592"/>
<polygon fill="#19317e" stroke="#19317e" points="551.906,-424.825 562.315,-421.372 555.588,-421.442 559.27,-418.059 559.27,-418.059 559.27,-418.059 555.588,-421.442 556.225,-414.745 551.906,-424.825 551.906,-424.825"/>
<polygon fill="#19317e" stroke="#19317e" points="979.13,-694.656 987.347,-701.917 983.905,-696.138 988.681,-697.619 988.681,-697.619 988.681,-697.619 983.905,-696.138 990.014,-693.321 979.13,-694.656 979.13,-694.656"/>
<text text-anchor="middle" x="533.5" y="-557.8" font-family="Times,serif" font-size="14.00">flagged_by</text>
</g>
<!-- Classified&#45;&gt;FavoriteClassified -->
<g id="edge16" class="edge"><title>Classified&#45;&gt;FavoriteClassified</title>
<path fill="none" stroke="#ab7e5d" d="M708.727,-290.98C749.268,-256.839 800.956,-217.234 852,-189 927.396,-147.296 1021.35,-115.823 1085.74,-97.0216"/>
<ellipse fill="none" stroke="#ab7e5d" cx="705.626" cy="-293.607" rx="4.00002" ry="4.00002"/>
<polygon fill="#ab7e5d" stroke="#ab7e5d" points="1085.81,-97.0017 1096.67,-98.5498 1090.62,-95.6142 1095.42,-94.2266 1095.42,-94.2266 1095.42,-94.2266 1090.62,-95.6142 1094.17,-89.9033 1085.81,-97.0017 1085.81,-97.0017"/>
</g>
<!-- Classified&#45;&gt;Flag -->
<g id="edge18" class="edge"><title>Classified&#45;&gt;Flag</title>
<path fill="none" stroke="#e12751" d="M709.176,-282.599C748.612,-247.783 799.217,-210.054 852,-189 1010.84,-125.641 1067.1,-184.496 1235,-152 1296.5,-140.097 1364.48,-119.728 1414.78,-103.219"/>
<ellipse fill="none" stroke="#e12751" cx="705.929" cy="-285.496" rx="4.00002" ry="4.00002"/>
<polygon fill="#e12751" stroke="#e12751" points="1414.78,-103.218 1425.69,-104.351 1419.53,-101.648 1424.27,-100.078 1424.27,-100.078 1424.27,-100.078 1419.53,-101.648 1422.86,-95.8059 1414.78,-103.218 1414.78,-103.218"/>
</g>
<!-- Photo -->
<g id="node11" class="node"><title>Photo</title>
<path fill="none" stroke="black" d="M555.5,-0.5C555.5,-0.5 706.5,-0.5 706.5,-0.5 712.5,-0.5 718.5,-6.5 718.5,-12.5 718.5,-12.5 718.5,-139.5 718.5,-139.5 718.5,-145.5 712.5,-151.5 706.5,-151.5 706.5,-151.5 555.5,-151.5 555.5,-151.5 549.5,-151.5 543.5,-145.5 543.5,-139.5 543.5,-139.5 543.5,-12.5 543.5,-12.5 543.5,-6.5 549.5,-0.5 555.5,-0.5"/>
<text text-anchor="middle" x="631" y="-136.3" font-family="Times,serif" font-size="14.00">Photo</text>
<polyline fill="none" stroke="black" points="543.5,-128.5 718.5,-128.5 "/>
<text text-anchor="start" x="551.5" y="-113.3" font-family="Times,serif" font-size="14.00">id :INTEGER</text>
<text text-anchor="start" x="551.5" y="-98.3" font-family="Times,serif" font-size="14.00">classified_id :integer</text>
<text text-anchor="start" x="551.5" y="-83.3" font-family="Times,serif" font-size="14.00">created_at :datetime</text>
<text text-anchor="start" x="551.5" y="-68.3" font-family="Times,serif" font-size="14.00">updated_at :datetime</text>
<text text-anchor="start" x="551.5" y="-53.3" font-family="Times,serif" font-size="14.00">image_file_name :varchar</text>
<text text-anchor="start" x="551.5" y="-38.3" font-family="Times,serif" font-size="14.00">image_content_type :varchar</text>
<text text-anchor="start" x="551.5" y="-23.3" font-family="Times,serif" font-size="14.00">image_file_size :integer</text>
<text text-anchor="start" x="551.5" y="-8.3" font-family="Times,serif" font-size="14.00">image_updated_at :datetime</text>
</g>
<!-- Classified&#45;&gt;Photo -->
<g id="edge15" class="edge"><title>Classified&#45;&gt;Photo</title>
<path fill="none" stroke="#6c9cac" d="M631,-181.2C631,-174.661 631,-168.237 631,-161.991"/>
<ellipse fill="none" stroke="#6c9cac" cx="631" cy="-185.442" rx="4" ry="4"/>
<polygon fill="#6c9cac" stroke="#6c9cac" points="631,-161.656 635.5,-151.656 631,-156.656 631,-151.656 631,-151.656 631,-151.656 631,-156.656 626.5,-151.656 631,-161.656 631,-161.656"/>
</g>
<!-- Category -->
<g id="node10" class="node"><title>Category</title>
<path fill="none" stroke="black" d="M393.5,-655C393.5,-655 512.5,-655 512.5,-655 518.5,-655 524.5,-661 524.5,-667 524.5,-667 524.5,-794 524.5,-794 524.5,-800 518.5,-806 512.5,-806 512.5,-806 393.5,-806 393.5,-806 387.5,-806 381.5,-800 381.5,-794 381.5,-794 381.5,-667 381.5,-667 381.5,-661 387.5,-655 393.5,-655"/>
<text text-anchor="middle" x="453" y="-790.8" font-family="Times,serif" font-size="14.00">Category</text>
<polyline fill="none" stroke="black" points="381.5,-783 524.5,-783 "/>
<text text-anchor="start" x="389.5" y="-767.8" font-family="Times,serif" font-size="14.00">id :INTEGER</text>
<text text-anchor="start" x="389.5" y="-752.8" font-family="Times,serif" font-size="14.00">name :varchar</text>
<text text-anchor="start" x="389.5" y="-737.8" font-family="Times,serif" font-size="14.00">parent_id :integer</text>
<text text-anchor="start" x="389.5" y="-722.8" font-family="Times,serif" font-size="14.00">lft :integer</text>
<text text-anchor="start" x="389.5" y="-707.8" font-family="Times,serif" font-size="14.00">rgt :integer</text>
<text text-anchor="start" x="389.5" y="-692.8" font-family="Times,serif" font-size="14.00">depth :integer</text>
<text text-anchor="start" x="389.5" y="-677.8" font-family="Times,serif" font-size="14.00">children_count :integer</text>
<text text-anchor="start" x="389.5" y="-662.8" font-family="Times,serif" font-size="14.00">title :varchar</text>
</g>
<!-- Category&#45;&gt;Classified -->
<g id="edge21" class="edge"><title>Category&#45;&gt;Classified</title>
<path fill="none" stroke="#819649" d="M449.06,-646.932C450.305,-616.713 454.956,-582.874 467,-554 485.9,-508.692 519.857,-466.418 551.988,-433.261"/>
<ellipse fill="none" stroke="#819649" cx="448.932" cy="-650.943" rx="4" ry="4"/>
<polygon fill="#819649" stroke="#819649" points="552.224,-433.023 562.447,-429.055 555.732,-429.46 559.24,-425.897 559.24,-425.897 559.24,-425.897 555.732,-429.46 556.034,-422.74 552.224,-433.023 552.224,-433.023"/>
</g>
<!-- Category&#45;&gt;Category -->
<g id="edge20" class="edge"><title>Category&#45;&gt;Category</title>
<path fill="none" stroke="#47d10b" d="M531.917,-754.787C538.443,-749.547 542.5,-741.451 542.5,-730.5 542.5,-720.233 538.935,-712.476 533.111,-707.229"/>
<ellipse fill="none" stroke="#47d10b" cx="528.074" cy="-757.048" rx="4.00002" ry="4.00002"/>
<polygon fill="#47d10b" stroke="#47d10b" points="533.105,-707.225 527.011,-698.109 528.866,-704.575 524.626,-701.924 524.626,-701.924 524.626,-701.924 528.866,-704.575 522.241,-705.74 533.105,-707.225 533.105,-707.225"/>
<text text-anchor="middle" x="565" y="-726.8" font-family="Times,serif" font-size="14.00">children</text>
</g>
<!-- AverageCache -->
<g id="node12" class="node"><title>AverageCache</title>
<path fill="none" stroke="black" d="M1793.5,-662.5C1793.5,-662.5 1906.5,-662.5 1906.5,-662.5 1912.5,-662.5 1918.5,-668.5 1918.5,-674.5 1918.5,-674.5 1918.5,-786.5 1918.5,-786.5 1918.5,-792.5 1912.5,-798.5 1906.5,-798.5 1906.5,-798.5 1793.5,-798.5 1793.5,-798.5 1787.5,-798.5 1781.5,-792.5 1781.5,-786.5 1781.5,-786.5 1781.5,-674.5 1781.5,-674.5 1781.5,-668.5 1787.5,-662.5 1793.5,-662.5"/>
<text text-anchor="middle" x="1850" y="-783.3" font-family="Times,serif" font-size="14.00">AverageCache</text>
<polyline fill="none" stroke="black" points="1781.5,-775.5 1918.5,-775.5 "/>
<text text-anchor="start" x="1789.5" y="-760.3" font-family="Times,serif" font-size="14.00">id :INTEGER</text>
<text text-anchor="start" x="1789.5" y="-745.3" font-family="Times,serif" font-size="14.00">rater_id :integer</text>
<text text-anchor="start" x="1789.5" y="-730.3" font-family="Times,serif" font-size="14.00">rateable_type :varchar</text>
<text text-anchor="start" x="1789.5" y="-715.3" font-family="Times,serif" font-size="14.00">rateable_id :integer</text>
<text text-anchor="start" x="1789.5" y="-700.3" font-family="Times,serif" font-size="14.00">avg :float</text>
<text text-anchor="start" x="1789.5" y="-685.3" font-family="Times,serif" font-size="14.00">created_at :datetime</text>
<text text-anchor="start" x="1789.5" y="-670.3" font-family="Times,serif" font-size="14.00">updated_at :datetime</text>
</g>
</g>
</svg>
