<?xml version="1.0" encoding="UTF-8" standalone="no"?>
<!DOCTYPE svg PUBLIC "-//W3C//DTD SVG 1.1//EN"
 "http://www.w3.org/Graphics/SVG/1.1/DTD/svg11.dtd">
<!-- Generated by graphviz version 2.38.0 (20140413.2041)
 -->
<!-- Title: controllers_diagram Pages: 1 -->
<svg width="1587pt" height="1577pt"
 viewBox="0.00 0.00 1587.23 1576.53" xmlns="http://www.w3.org/2000/svg" xmlns:xlink="http://www.w3.org/1999/xlink">
<g id="graph0" class="graph" transform="scale(1 1) rotate(0) translate(857.701 840.746)">
<title>controllers_diagram</title>
<polygon fill="none" stroke="none" points="-857.701,735.785 -857.701,-840.746 729.531,-840.746 729.531,735.785 -857.701,735.785"/>
<!-- _diagram_info -->
<g id="node1" class="node"><title>_diagram_info</title>
<text text-anchor="start" x="496" y="-551.6" font-family="Times,serif" font-size="13.00">Controllers diagram</text>
<text text-anchor="start" x="496" y="-537.6" font-family="Times,serif" font-size="13.00">Date: Nov 17 2016 &#45; 22:40</text>
<text text-anchor="start" x="496" y="-523.6" font-family="Times,serif" font-size="13.00">Migration version: 20161019232321</text>
<text text-anchor="start" x="496" y="-509.6" font-family="Times,serif" font-size="13.00">Generated by RailRoady 1.5.2</text>
<text text-anchor="start" x="496" y="-495.6" font-family="Times,serif" font-size="13.00">http://railroady.prestonlee.com</text>
</g>
<!-- MessagesController -->
<g id="node2" class="node"><title>MessagesController</title>
<path fill="none" stroke="black" d="M-431.818,94.3838C-431.818,94.3838 -330.818,94.3838 -330.818,94.3838 -324.818,94.3838 -318.818,88.3838 -318.818,82.3838 -318.818,82.3838 -318.818,-31.6162 -318.818,-31.6162 -318.818,-37.6162 -324.818,-43.6162 -330.818,-43.6162 -330.818,-43.6162 -431.818,-43.6162 -431.818,-43.6162 -437.818,-43.6162 -443.818,-37.6162 -443.818,-31.6162 -443.818,-31.6162 -443.818,82.3838 -443.818,82.3838 -443.818,88.3838 -437.818,94.3838 -431.818,94.3838"/>
<text text-anchor="middle" x="-381.318" y="-28.4162" font-family="Times,serif" font-size="14.00">MessagesController</text>
<polyline fill="none" stroke="black" points="-443.818,-20.6162 -318.818,-20.6162 "/>
<text text-anchor="start" x="-435.818" y="-5.41616" font-family="Times,serif" font-size="14.00">create</text>
<text text-anchor="start" x="-435.818" y="9.58384" font-family="Times,serif" font-size="14.00">mailboxer_email</text>
<text text-anchor="start" x="-435.818" y="24.5838" font-family="Times,serif" font-size="14.00">name</text>
<text text-anchor="start" x="-435.818" y="39.5838" font-family="Times,serif" font-size="14.00">new</text>
<polyline fill="none" stroke="black" points="-443.818,47.3838 -318.818,47.3838 "/>
<polyline fill="none" stroke="black" points="-443.818,71.3838 -318.818,71.3838 "/>
<text text-anchor="start" x="-435.818" y="86.5838" font-family="Times,serif" font-size="14.00">_layout</text>
</g>
<!-- PasswordsController -->
<g id="node3" class="node"><title>PasswordsController</title>
<path fill="none" stroke="black" d="M132.333,314.125C132.333,314.125 237.333,314.125 237.333,314.125 243.333,314.125 249.333,308.125 249.333,302.125 249.333,302.125 249.333,203.125 249.333,203.125 249.333,197.125 243.333,191.125 237.333,191.125 237.333,191.125 132.333,191.125 132.333,191.125 126.333,191.125 120.333,197.125 120.333,203.125 120.333,203.125 120.333,302.125 120.333,302.125 120.333,308.125 126.333,314.125 132.333,314.125"/>
<text text-anchor="middle" x="184.833" y="206.325" font-family="Times,serif" font-size="14.00">PasswordsController</text>
<polyline fill="none" stroke="black" points="120.333,214.125 249.333,214.125 "/>
<text text-anchor="start" x="128.333" y="229.325" font-family="Times,serif" font-size="14.00">edit</text>
<text text-anchor="start" x="128.333" y="244.325" font-family="Times,serif" font-size="14.00">update</text>
<polyline fill="none" stroke="black" points="120.333,252.125 249.333,252.125 "/>
<polyline fill="none" stroke="black" points="120.333,276.125 249.333,276.125 "/>
<text text-anchor="start" x="128.333" y="291.325" font-family="Times,serif" font-size="14.00">_layout</text>
<text text-anchor="start" x="128.333" y="306.325" font-family="Times,serif" font-size="14.00">user_params</text>
</g>
<!-- RaterController -->
<g id="node4" class="node"><title>RaterController</title>
<path fill="none" stroke="black" d="M-423.918,628.995C-423.918,628.995 -346.918,628.995 -346.918,628.995 -340.918,628.995 -334.918,622.995 -334.918,616.995 -334.918,616.995 -334.918,547.995 -334.918,547.995 -334.918,541.995 -340.918,535.995 -346.918,535.995 -346.918,535.995 -423.918,535.995 -423.918,535.995 -429.918,535.995 -435.918,541.995 -435.918,547.995 -435.918,547.995 -435.918,616.995 -435.918,616.995 -435.918,622.995 -429.918,628.995 -423.918,628.995"/>
<text text-anchor="middle" x="-385.418" y="551.195" font-family="Times,serif" font-size="14.00">RaterController</text>
<polyline fill="none" stroke="black" points="-435.918,558.995 -334.918,558.995 "/>
<text text-anchor="start" x="-427.918" y="574.195" font-family="Times,serif" font-size="14.00">create</text>
<polyline fill="none" stroke="black" points="-435.918,581.995 -334.918,581.995 "/>
<polyline fill="none" stroke="black" points="-435.918,605.995 -334.918,605.995 "/>
<text text-anchor="start" x="-427.918" y="621.195" font-family="Times,serif" font-size="14.00">_layout</text>
</g>
<!-- ConversationsController -->
<g id="node5" class="node"><title>ConversationsController</title>
<path fill="none" stroke="black" d="M-822.84,-262.594C-822.84,-262.594 -697.84,-262.594 -697.84,-262.594 -691.84,-262.594 -685.84,-268.594 -685.84,-274.594 -685.84,-274.594 -685.84,-478.594 -685.84,-478.594 -685.84,-484.594 -691.84,-490.594 -697.84,-490.594 -697.84,-490.594 -822.84,-490.594 -822.84,-490.594 -828.84,-490.594 -834.84,-484.594 -834.84,-478.594 -834.84,-478.594 -834.84,-274.594 -834.84,-274.594 -834.84,-268.594 -828.84,-262.594 -822.84,-262.594"/>
<text text-anchor="middle" x="-760.34" y="-475.394" font-family="Times,serif" font-size="14.00">ConversationsController</text>
<polyline fill="none" stroke="black" points="-834.84,-467.594 -685.84,-467.594 "/>
<text text-anchor="start" x="-826.84" y="-452.394" font-family="Times,serif" font-size="14.00">destroy</text>
<text text-anchor="start" x="-826.84" y="-437.394" font-family="Times,serif" font-size="14.00">empty_trash</text>
<text text-anchor="start" x="-826.84" y="-422.394" font-family="Times,serif" font-size="14.00">index</text>
<text text-anchor="start" x="-826.84" y="-407.394" font-family="Times,serif" font-size="14.00">mark_as_read</text>
<text text-anchor="start" x="-826.84" y="-392.394" font-family="Times,serif" font-size="14.00">reply</text>
<text text-anchor="start" x="-826.84" y="-377.394" font-family="Times,serif" font-size="14.00">restore</text>
<polyline fill="none" stroke="black" points="-834.84,-369.594 -685.84,-369.594 "/>
<polyline fill="none" stroke="black" points="-834.84,-345.594 -685.84,-345.594 "/>
<text text-anchor="start" x="-826.84" y="-330.394" font-family="Times,serif" font-size="14.00">_layout</text>
<text text-anchor="start" x="-826.84" y="-315.394" font-family="Times,serif" font-size="14.00">get_box</text>
<text text-anchor="start" x="-826.84" y="-300.394" font-family="Times,serif" font-size="14.00">get_conversation</text>
<text text-anchor="start" x="-826.84" y="-285.394" font-family="Times,serif" font-size="14.00">get_mailbox</text>
<text text-anchor="start" x="-826.84" y="-270.394" font-family="Times,serif" font-size="14.00">show</text>
</g>
<!-- ClassifiedsController -->
<g id="node6" class="node"><title>ClassifiedsController</title>
<path fill="none" stroke="black" d="M-381.576,-191.348C-381.576,-191.348 -241.576,-191.348 -241.576,-191.348 -235.576,-191.348 -229.576,-197.348 -229.576,-203.348 -229.576,-203.348 -229.576,-512.348 -229.576,-512.348 -229.576,-518.348 -235.576,-524.348 -241.576,-524.348 -241.576,-524.348 -381.576,-524.348 -381.576,-524.348 -387.576,-524.348 -393.576,-518.348 -393.576,-512.348 -393.576,-512.348 -393.576,-203.348 -393.576,-203.348 -393.576,-197.348 -387.576,-191.348 -381.576,-191.348"/>
<text text-anchor="middle" x="-311.576" y="-509.148" font-family="Times,serif" font-size="14.00">ClassifiedsController</text>
<polyline fill="none" stroke="black" points="-393.576,-501.348 -229.576,-501.348 "/>
<text text-anchor="start" x="-385.576" y="-486.148" font-family="Times,serif" font-size="14.00">autocomplete_make_name</text>
<text text-anchor="start" x="-385.576" y="-471.148" font-family="Times,serif" font-size="14.00">create</text>
<text text-anchor="start" x="-385.576" y="-456.148" font-family="Times,serif" font-size="14.00">destroy</text>
<text text-anchor="start" x="-385.576" y="-441.148" font-family="Times,serif" font-size="14.00">edit</text>
<text text-anchor="start" x="-385.576" y="-426.148" font-family="Times,serif" font-size="14.00">favorite</text>
<text text-anchor="start" x="-385.576" y="-411.148" font-family="Times,serif" font-size="14.00">flag</text>
<text text-anchor="start" x="-385.576" y="-396.148" font-family="Times,serif" font-size="14.00">image_urls</text>
<text text-anchor="start" x="-385.576" y="-381.148" font-family="Times,serif" font-size="14.00">index</text>
<text text-anchor="start" x="-385.576" y="-366.148" font-family="Times,serif" font-size="14.00">new</text>
<text text-anchor="start" x="-385.576" y="-351.148" font-family="Times,serif" font-size="14.00">search</text>
<text text-anchor="start" x="-385.576" y="-336.148" font-family="Times,serif" font-size="14.00">show</text>
<text text-anchor="start" x="-385.576" y="-321.148" font-family="Times,serif" font-size="14.00">sold</text>
<text text-anchor="start" x="-385.576" y="-306.148" font-family="Times,serif" font-size="14.00">update</text>
<polyline fill="none" stroke="black" points="-393.576,-298.348 -229.576,-298.348 "/>
<polyline fill="none" stroke="black" points="-393.576,-274.348 -229.576,-274.348 "/>
<text text-anchor="start" x="-385.576" y="-259.148" font-family="Times,serif" font-size="14.00">_layout</text>
<text text-anchor="start" x="-385.576" y="-244.148" font-family="Times,serif" font-size="14.00">classified_params</text>
<text text-anchor="start" x="-385.576" y="-229.148" font-family="Times,serif" font-size="14.00">set_category</text>
<text text-anchor="start" x="-385.576" y="-214.148" font-family="Times,serif" font-size="14.00">sort_column</text>
<text text-anchor="start" x="-385.576" y="-199.148" font-family="Times,serif" font-size="14.00">sort_direction</text>
</g>
<!-- NotificationsController -->
<g id="node7" class="node"><title>NotificationsController</title>
<path fill="none" stroke="black" d="M-841.701,66.7826C-841.701,66.7826 -671.701,66.7826 -671.701,66.7826 -665.701,66.7826 -659.701,60.7826 -659.701,54.7826 -659.701,54.7826 -659.701,-164.217 -659.701,-164.217 -659.701,-170.217 -665.701,-176.217 -671.701,-176.217 -671.701,-176.217 -841.701,-176.217 -841.701,-176.217 -847.701,-176.217 -853.701,-170.217 -853.701,-164.217 -853.701,-164.217 -853.701,54.7826 -853.701,54.7826 -853.701,60.7826 -847.701,66.7826 -841.701,66.7826"/>
<text text-anchor="middle" x="-756.701" y="-161.017" font-family="Times,serif" font-size="14.00">NotificationsController</text>
<polyline fill="none" stroke="black" points="-853.701,-153.217 -659.701,-153.217 "/>
<text text-anchor="start" x="-845.701" y="-138.017" font-family="Times,serif" font-size="14.00">create</text>
<text text-anchor="start" x="-845.701" y="-123.017" font-family="Times,serif" font-size="14.00">destroy</text>
<text text-anchor="start" x="-845.701" y="-108.017" font-family="Times,serif" font-size="14.00">edit</text>
<text text-anchor="start" x="-845.701" y="-93.0174" font-family="Times,serif" font-size="14.00">index</text>
<text text-anchor="start" x="-845.701" y="-78.0174" font-family="Times,serif" font-size="14.00">new</text>
<text text-anchor="start" x="-845.701" y="-63.0174" font-family="Times,serif" font-size="14.00">show</text>
<text text-anchor="start" x="-845.701" y="-48.0174" font-family="Times,serif" font-size="14.00">update</text>
<text text-anchor="start" x="-845.701" y="-33.0174" font-family="Times,serif" font-size="14.00">update_all</text>
<polyline fill="none" stroke="black" points="-853.701,-25.2174 -659.701,-25.2174 "/>
<polyline fill="none" stroke="black" points="-853.701,-1.21745 -659.701,-1.21745 "/>
<text text-anchor="start" x="-845.701" y="13.9826" font-family="Times,serif" font-size="14.00">_layout</text>
<text text-anchor="start" x="-845.701" y="28.9826" font-family="Times,serif" font-size="14.00">check_current_subject_is_owner</text>
<text text-anchor="start" x="-845.701" y="43.9826" font-family="Times,serif" font-size="14.00">get_actor</text>
<text text-anchor="start" x="-845.701" y="58.9826" font-family="Times,serif" font-size="14.00">get_mailbox</text>
</g>
<!-- PhotosController -->
<g id="node8" class="node"><title>PhotosController</title>
<path fill="none" stroke="black" d="M-763.425,367.101C-763.425,367.101 -678.425,367.101 -678.425,367.101 -672.425,367.101 -666.425,361.101 -666.425,355.101 -666.425,355.101 -666.425,166.101 -666.425,166.101 -666.425,160.101 -672.425,154.101 -678.425,154.101 -678.425,154.101 -763.425,154.101 -763.425,154.101 -769.425,154.101 -775.425,160.101 -775.425,166.101 -775.425,166.101 -775.425,355.101 -775.425,355.101 -775.425,361.101 -769.425,367.101 -763.425,367.101"/>
<text text-anchor="middle" x="-720.925" y="169.301" font-family="Times,serif" font-size="14.00">PhotosController</text>
<polyline fill="none" stroke="black" points="-775.425,177.101 -666.425,177.101 "/>
<text text-anchor="start" x="-767.425" y="192.301" font-family="Times,serif" font-size="14.00">create</text>
<text text-anchor="start" x="-767.425" y="207.301" font-family="Times,serif" font-size="14.00">destroy</text>
<text text-anchor="start" x="-767.425" y="222.301" font-family="Times,serif" font-size="14.00">edit</text>
<text text-anchor="start" x="-767.425" y="237.301" font-family="Times,serif" font-size="14.00">index</text>
<text text-anchor="start" x="-767.425" y="252.301" font-family="Times,serif" font-size="14.00">make_default</text>
<text text-anchor="start" x="-767.425" y="267.301" font-family="Times,serif" font-size="14.00">new</text>
<text text-anchor="start" x="-767.425" y="282.301" font-family="Times,serif" font-size="14.00">show</text>
<text text-anchor="start" x="-767.425" y="297.301" font-family="Times,serif" font-size="14.00">update</text>
<polyline fill="none" stroke="black" points="-775.425,305.101 -666.425,305.101 "/>
<polyline fill="none" stroke="black" points="-775.425,329.101 -666.425,329.101 "/>
<text text-anchor="start" x="-767.425" y="344.301" font-family="Times,serif" font-size="14.00">_layout</text>
<text text-anchor="start" x="-767.425" y="359.301" font-family="Times,serif" font-size="14.00">photo_params</text>
</g>
<!-- RegistrationsController -->
<g id="node9" class="node"><title>RegistrationsController</title>
<path fill="none" stroke="black" d="M449.669,-644.844C449.669,-644.844 573.669,-644.844 573.669,-644.844 579.669,-644.844 585.669,-650.844 585.669,-656.844 585.669,-656.844 585.669,-755.844 585.669,-755.844 585.669,-761.844 579.669,-767.844 573.669,-767.844 573.669,-767.844 449.669,-767.844 449.669,-767.844 443.669,-767.844 437.669,-761.844 437.669,-755.844 437.669,-755.844 437.669,-656.844 437.669,-656.844 437.669,-650.844 443.669,-644.844 449.669,-644.844"/>
<text text-anchor="middle" x="511.669" y="-752.644" font-family="Times,serif" font-size="14.00">RegistrationsController</text>
<polyline fill="none" stroke="black" points="437.669,-744.844 585.669,-744.844 "/>
<polyline fill="none" stroke="black" points="437.669,-720.844 585.669,-720.844 "/>
<text text-anchor="start" x="445.669" y="-705.644" font-family="Times,serif" font-size="14.00">update_resource</text>
<polyline fill="none" stroke="black" points="437.669,-697.844 585.669,-697.844 "/>
<text text-anchor="start" x="445.669" y="-682.644" font-family="Times,serif" font-size="14.00">_layout</text>
<text text-anchor="start" x="445.669" y="-667.644" font-family="Times,serif" font-size="14.00">account_update_params</text>
<text text-anchor="start" x="445.669" y="-652.644" font-family="Times,serif" font-size="14.00">sign_up_params</text>
</g>
<!-- PagesController -->
<g id="node10" class="node"><title>PagesController</title>
<path fill="none" stroke="black" d="M-792.485,702.076C-792.485,702.076 -712.485,702.076 -712.485,702.076 -706.485,702.076 -700.485,696.076 -700.485,690.076 -700.485,690.076 -700.485,621.076 -700.485,621.076 -700.485,615.076 -706.485,609.076 -712.485,609.076 -712.485,609.076 -792.485,609.076 -792.485,609.076 -798.485,609.076 -804.485,615.076 -804.485,621.076 -804.485,621.076 -804.485,690.076 -804.485,690.076 -804.485,696.076 -798.485,702.076 -792.485,702.076"/>
<text text-anchor="middle" x="-752.485" y="624.276" font-family="Times,serif" font-size="14.00">PagesController</text>
<polyline fill="none" stroke="black" points="-804.485,632.076 -700.485,632.076 "/>
<text text-anchor="start" x="-796.485" y="647.276" font-family="Times,serif" font-size="14.00">welcome</text>
<polyline fill="none" stroke="black" points="-804.485,655.076 -700.485,655.076 "/>
<polyline fill="none" stroke="black" points="-804.485,679.076 -700.485,679.076 "/>
<text text-anchor="start" x="-796.485" y="694.276" font-family="Times,serif" font-size="14.00">_layout</text>
</g>
<!-- UsersController -->
<g id="node11" class="node"><title>UsersController</title>
<path fill="none" stroke="black" d="M136.343,731.285C136.343,731.285 311.343,731.285 311.343,731.285 317.343,731.285 323.343,725.285 323.343,719.285 323.343,719.285 323.343,590.285 323.343,590.285 323.343,584.285 317.343,578.285 311.343,578.285 311.343,578.285 136.343,578.285 136.343,578.285 130.343,578.285 124.343,584.285 124.343,590.285 124.343,590.285 124.343,719.285 124.343,719.285 124.343,725.285 130.343,731.285 136.343,731.285"/>
<text text-anchor="middle" x="223.843" y="593.485" font-family="Times,serif" font-size="14.00">UsersController</text>
<polyline fill="none" stroke="black" points="124.343,601.285 323.343,601.285 "/>
<text text-anchor="start" x="132.343" y="616.485" font-family="Times,serif" font-size="14.00">mailboxer_email</text>
<text text-anchor="start" x="132.343" y="631.485" font-family="Times,serif" font-size="14.00">name</text>
<text text-anchor="start" x="132.343" y="646.485" font-family="Times,serif" font-size="14.00">show</text>
<text text-anchor="start" x="132.343" y="661.485" font-family="Times,serif" font-size="14.00">sold</text>
<text text-anchor="start" x="132.343" y="676.485" font-family="Times,serif" font-size="14.00">update_password_with_password</text>
<polyline fill="none" stroke="black" points="124.343,684.285 323.343,684.285 "/>
<polyline fill="none" stroke="black" points="124.343,708.285 323.343,708.285 "/>
<text text-anchor="start" x="132.343" y="723.485" font-family="Times,serif" font-size="14.00">_layout</text>
</g>
<!-- SessionsController -->
<g id="node12" class="node"><title>SessionsController</title>
<path fill="none" stroke="black" d="M-144.357,710.462C-144.357,710.462 -49.3567,710.462 -49.3567,710.462 -43.3567,710.462 -37.3567,704.462 -37.3567,698.462 -37.3567,698.462 -37.3567,628.462 -37.3567,628.462 -37.3567,622.462 -43.3567,616.462 -49.3567,616.462 -49.3567,616.462 -144.357,616.462 -144.357,616.462 -150.357,616.462 -156.357,622.462 -156.357,628.462 -156.357,628.462 -156.357,698.462 -156.357,698.462 -156.357,704.462 -150.357,710.462 -144.357,710.462"/>
<text text-anchor="middle" x="-96.8567" y="631.662" font-family="Times,serif" font-size="14.00">SessionsController</text>
<polyline fill="none" stroke="black" points="-156.357,639.462 -37.3567,639.462 "/>
<polyline fill="none" stroke="black" points="-156.357,663.462 -37.3567,663.462 "/>
<polyline fill="none" stroke="black" points="-156.357,687.462 -37.3567,687.462 "/>
<text text-anchor="start" x="-148.357" y="702.662" font-family="Times,serif" font-size="14.00">_layout</text>
</g>
<!-- ApplicationController -->
<g id="node13" class="node"><title>ApplicationController</title>
<path fill="none" stroke="black" d="M-242.778,306.257C-242.778,306.257 -72.7777,306.257 -72.7777,306.257 -66.7777,306.257 -60.7777,300.257 -60.7777,294.257 -60.7777,294.257 -60.7777,210.257 -60.7777,210.257 -60.7777,204.257 -66.7777,198.257 -72.7777,198.257 -72.7777,198.257 -242.778,198.257 -242.778,198.257 -248.778,198.257 -254.778,204.257 -254.778,210.257 -254.778,210.257 -254.778,294.257 -254.778,294.257 -254.778,300.257 -248.778,306.257 -242.778,306.257"/>
<text text-anchor="middle" x="-157.778" y="213.457" font-family="Times,serif" font-size="14.00">ApplicationController</text>
<polyline fill="none" stroke="black" points="-254.778,221.257 -60.7777,221.257 "/>
<text text-anchor="start" x="-246.778" y="236.457" font-family="Times,serif" font-size="14.00">configure_permitted_parameters</text>
<text text-anchor="start" x="-246.778" y="251.457" font-family="Times,serif" font-size="14.00">redirect_back_or</text>
<polyline fill="none" stroke="black" points="-254.778,259.257 -60.7777,259.257 "/>
<polyline fill="none" stroke="black" points="-254.778,283.257 -60.7777,283.257 "/>
<text text-anchor="start" x="-246.778" y="298.457" font-family="Times,serif" font-size="14.00">_layout</text>
</g>
<!-- ApplicationController&#45;&gt;MessagesController -->
<g id="edge1" class="edge"><title>ApplicationController&#45;&gt;MessagesController</title>
<path fill="none" stroke="black" d="M-211.037,198.203C-243.322,165.438 -284.676,123.466 -318.547,89.0911"/>
</g>
<!-- ApplicationController&#45;&gt;PasswordsController -->
<g id="edge2" class="edge"><title>ApplicationController&#45;&gt;PasswordsController</title>
<path fill="none" stroke="black" d="M-60.5157,252.361C-2.64944,252.424 69.1748,252.501 120.123,252.556"/>
</g>
<!-- ApplicationController&#45;&gt;RaterController -->
<g id="edge3" class="edge"><title>ApplicationController&#45;&gt;RaterController</title>
<path fill="none" stroke="black" d="M-195.113,306.419C-239.134,370.28 -311.564,475.355 -353.22,535.785"/>
</g>
<!-- ApplicationController&#45;&gt;ConversationsController -->
<g id="edge4" class="edge"><title>ApplicationController&#45;&gt;ConversationsController</title>
<path fill="none" stroke="black" d="M-177.689,198.2C-202.914,134.701 -251.005,28.4817 -315.618,-46.8162 -424.375,-173.559 -590.364,-280.17 -685.797,-335.592"/>
</g>
<!-- ApplicationController&#45;&gt;ClassifiedsController -->
<g id="edge5" class="edge"><title>ApplicationController&#45;&gt;ClassifiedsController</title>
<path fill="none" stroke="black" d="M-171.426,198.114C-193.224,111.645 -236.776,-61.1215 -269.576,-191.238"/>
</g>
<!-- ApplicationController&#45;&gt;NotificationsController -->
<g id="edge6" class="edge"><title>ApplicationController&#45;&gt;NotificationsController</title>
<path fill="none" stroke="black" d="M-255.004,202.424C-366.477,145.29 -548.13,52.1842 -659.565,-4.93089"/>
</g>
<!-- ApplicationController&#45;&gt;PhotosController -->
<g id="edge7" class="edge"><title>ApplicationController&#45;&gt;PhotosController</title>
<path fill="none" stroke="black" d="M-254.907,253.696C-373.841,255.458 -571.169,258.382 -666.311,259.792"/>
</g>
<!-- ApplicationController&#45;&gt;PagesController -->
<g id="edge9" class="edge"><title>ApplicationController&#45;&gt;PagesController</title>
<path fill="none" stroke="black" d="M-237.674,306.441C-361.377,390.334 -595.852,549.351 -700.171,620.098"/>
</g>
<!-- ApplicationController&#45;&gt;UsersController -->
<g id="edge10" class="edge"><title>ApplicationController&#45;&gt;UsersController</title>
<path fill="none" stroke="black" d="M-106.311,306.544C-39.9862,376.502 75.7259,498.554 151.045,577.999"/>
</g>
<!-- ApplicationController&#45;&gt;SessionsController -->
<g id="edge11" class="edge"><title>ApplicationController&#45;&gt;SessionsController</title>
<path fill="none" stroke="black" d="M-149.751,306.438C-137.731,387.566 -115.255,539.275 -103.862,616.176"/>
</g>
<!-- CategoriesController -->
<g id="node14" class="node"><title>CategoriesController</title>
<path fill="none" stroke="black" d="M548.404,660.463C548.404,660.463 654.404,660.463 654.404,660.463 660.404,660.463 666.404,654.463 666.404,648.463 666.404,648.463 666.404,564.463 666.404,564.463 666.404,558.463 660.404,552.463 654.404,552.463 654.404,552.463 548.404,552.463 548.404,552.463 542.404,552.463 536.404,558.463 536.404,564.463 536.404,564.463 536.404,648.463 536.404,648.463 536.404,654.463 542.404,660.463 548.404,660.463"/>
<text text-anchor="middle" x="601.404" y="567.663" font-family="Times,serif" font-size="14.00">CategoriesController</text>
<polyline fill="none" stroke="black" points="536.404,575.463 666.404,575.463 "/>
<text text-anchor="start" x="544.404" y="590.663" font-family="Times,serif" font-size="14.00">index</text>
<text text-anchor="start" x="544.404" y="605.663" font-family="Times,serif" font-size="14.00">show</text>
<polyline fill="none" stroke="black" points="536.404,613.463 666.404,613.463 "/>
<polyline fill="none" stroke="black" points="536.404,637.463 666.404,637.463 "/>
<text text-anchor="start" x="544.404" y="652.663" font-family="Times,serif" font-size="14.00">_layout</text>
</g>
<!-- ApplicationController&#45;&gt;CategoriesController -->
<g id="edge12" class="edge"><title>ApplicationController&#45;&gt;CategoriesController</title>
<path fill="none" stroke="black" d="M-60.4692,297.657C96.7729,371.021 402.584,513.701 536.244,576.061"/>
</g>
<!-- DeviseController -->
<g id="node21" class="node"><title>DeviseController</title>
<path fill="none" stroke="black" d="M-151.471,100.434C-151.471,100.434 15.5294,100.434 15.5294,100.434 21.5294,100.434 27.5294,94.4345 27.5294,88.4345 27.5294,88.4345 27.5294,-279.566 27.5294,-279.566 27.5294,-285.566 21.5294,-291.566 15.5294,-291.566 15.5294,-291.566 -151.471,-291.566 -151.471,-291.566 -157.471,-291.566 -163.471,-285.566 -163.471,-279.566 -163.471,-279.566 -163.471,88.4345 -163.471,88.4345 -163.471,94.4345 -157.471,100.434 -151.471,100.434"/>
<text text-anchor="middle" x="-67.9706" y="-276.366" font-family="Times,serif" font-size="14.00">DeviseController</text>
<polyline fill="none" stroke="black" points="-163.471,-268.566 27.5294,-268.566 "/>
<text text-anchor="start" x="-155.471" y="-253.366" font-family="Times,serif" font-size="14.00">_prefixes</text>
<polyline fill="none" stroke="black" points="-163.471,-245.566 27.5294,-245.566 "/>
<text text-anchor="start" x="-155.471" y="-230.366" font-family="Times,serif" font-size="14.00">assert_is_devise_resource!</text>
<text text-anchor="start" x="-155.471" y="-215.366" font-family="Times,serif" font-size="14.00">clean_up_passwords</text>
<text text-anchor="start" x="-155.471" y="-200.366" font-family="Times,serif" font-size="14.00">devise_i18n_options</text>
<text text-anchor="start" x="-155.471" y="-185.366" font-family="Times,serif" font-size="14.00">devise_mapping</text>
<text text-anchor="start" x="-155.471" y="-170.366" font-family="Times,serif" font-size="14.00">find_message</text>
<text text-anchor="start" x="-155.471" y="-155.366" font-family="Times,serif" font-size="14.00">navigational_formats</text>
<text text-anchor="start" x="-155.471" y="-140.366" font-family="Times,serif" font-size="14.00">require_no_authentication</text>
<text text-anchor="start" x="-155.471" y="-125.366" font-family="Times,serif" font-size="14.00">resource</text>
<text text-anchor="start" x="-155.471" y="-110.366" font-family="Times,serif" font-size="14.00">resource=</text>
<text text-anchor="start" x="-155.471" y="-95.3655" font-family="Times,serif" font-size="14.00">resource_class</text>
<text text-anchor="start" x="-155.471" y="-80.3655" font-family="Times,serif" font-size="14.00">resource_name</text>
<text text-anchor="start" x="-155.471" y="-65.3655" font-family="Times,serif" font-size="14.00">resource_params</text>
<text text-anchor="start" x="-155.471" y="-50.3655" font-family="Times,serif" font-size="14.00">respond_with_navigational</text>
<text text-anchor="start" x="-155.471" y="-35.3655" font-family="Times,serif" font-size="14.00">scope_name</text>
<text text-anchor="start" x="-155.471" y="-20.3655" font-family="Times,serif" font-size="14.00">set_flash_message</text>
<text text-anchor="start" x="-155.471" y="-5.36551" font-family="Times,serif" font-size="14.00">set_flash_message!</text>
<text text-anchor="start" x="-155.471" y="9.63449" font-family="Times,serif" font-size="14.00">set_minimum_password_length</text>
<text text-anchor="start" x="-155.471" y="24.6345" font-family="Times,serif" font-size="14.00">signed_in_resource</text>
<text text-anchor="start" x="-155.471" y="39.6345" font-family="Times,serif" font-size="14.00">successfully_sent?</text>
<text text-anchor="start" x="-155.471" y="54.6345" font-family="Times,serif" font-size="14.00">translation_scope</text>
<text text-anchor="start" x="-155.471" y="69.6345" font-family="Times,serif" font-size="14.00">unknown_action!</text>
<polyline fill="none" stroke="black" points="-163.471,77.4345 27.5294,77.4345 "/>
<text text-anchor="start" x="-155.471" y="92.6345" font-family="Times,serif" font-size="14.00">_layout</text>
</g>
<!-- ApplicationController&#45;&gt;DeviseController -->
<g id="edge19" class="edge"><title>ApplicationController&#45;&gt;DeviseController</title>
<path fill="none" stroke="black" d="M-143.745,197.91C-136.765,170.874 -127.855,136.367 -118.616,100.582"/>
</g>
<!-- Devise::PasswordsController -->
<g id="node15" class="node"><title>Devise::PasswordsController</title>
<path fill="none" stroke="black" d="M109.497,19.5377C109.497,19.5377 387.497,19.5377 387.497,19.5377 393.497,19.5377 399.497,13.5377 399.497,7.53772 399.497,7.53772 399.497,-165.462 399.497,-165.462 399.497,-171.462 393.497,-177.462 387.497,-177.462 387.497,-177.462 109.497,-177.462 109.497,-177.462 103.497,-177.462 97.4969,-171.462 97.4969,-165.462 97.4969,-165.462 97.4969,7.53772 97.4969,7.53772 97.4969,13.5377 103.497,19.5377 109.497,19.5377"/>
<text text-anchor="middle" x="248.497" y="-162.262" font-family="Times,serif" font-size="14.00">Devise::PasswordsController</text>
<polyline fill="none" stroke="black" points="97.4969,-154.462 399.497,-154.462 "/>
<text text-anchor="start" x="105.497" y="-139.262" font-family="Times,serif" font-size="14.00">create</text>
<text text-anchor="start" x="105.497" y="-124.262" font-family="Times,serif" font-size="14.00">edit</text>
<text text-anchor="start" x="105.497" y="-109.262" font-family="Times,serif" font-size="14.00">new</text>
<text text-anchor="start" x="105.497" y="-94.2623" font-family="Times,serif" font-size="14.00">update</text>
<polyline fill="none" stroke="black" points="97.4969,-86.4623 399.497,-86.4623 "/>
<text text-anchor="start" x="105.497" y="-71.2623" font-family="Times,serif" font-size="14.00">after_resetting_password_path_for</text>
<text text-anchor="start" x="105.497" y="-56.2623" font-family="Times,serif" font-size="14.00">after_sending_reset_password_instructions_path_for</text>
<text text-anchor="start" x="105.497" y="-41.2623" font-family="Times,serif" font-size="14.00">assert_reset_token_passed</text>
<text text-anchor="start" x="105.497" y="-26.2623" font-family="Times,serif" font-size="14.00">translation_scope</text>
<text text-anchor="start" x="105.497" y="-11.2623" font-family="Times,serif" font-size="14.00">unlockable?</text>
<polyline fill="none" stroke="black" points="97.4969,-3.46228 399.497,-3.46228 "/>
<text text-anchor="start" x="105.497" y="11.7377" font-family="Times,serif" font-size="14.00">_layout</text>
</g>
<!-- Devise::ConfirmationsController -->
<g id="node16" class="node"><title>Devise::ConfirmationsController</title>
<path fill="none" stroke="black" d="M-223.906,-652.715C-223.906,-652.715 52.0943,-652.715 52.0943,-652.715 58.0943,-652.715 64.0943,-658.715 64.0943,-664.715 64.0943,-664.715 64.0943,-792.715 64.0943,-792.715 64.0943,-798.715 58.0943,-804.715 52.0943,-804.715 52.0943,-804.715 -223.906,-804.715 -223.906,-804.715 -229.906,-804.715 -235.906,-798.715 -235.906,-792.715 -235.906,-792.715 -235.906,-664.715 -235.906,-664.715 -235.906,-658.715 -229.906,-652.715 -223.906,-652.715"/>
<text text-anchor="middle" x="-85.9057" y="-789.515" font-family="Times,serif" font-size="14.00">Devise::ConfirmationsController</text>
<polyline fill="none" stroke="black" points="-235.906,-781.715 64.0943,-781.715 "/>
<text text-anchor="start" x="-227.906" y="-766.515" font-family="Times,serif" font-size="14.00">create</text>
<text text-anchor="start" x="-227.906" y="-751.515" font-family="Times,serif" font-size="14.00">new</text>
<text text-anchor="start" x="-227.906" y="-736.515" font-family="Times,serif" font-size="14.00">show</text>
<polyline fill="none" stroke="black" points="-235.906,-728.715 64.0943,-728.715 "/>
<text text-anchor="start" x="-227.906" y="-713.515" font-family="Times,serif" font-size="14.00">after_confirmation_path_for</text>
<text text-anchor="start" x="-227.906" y="-698.515" font-family="Times,serif" font-size="14.00">after_resending_confirmation_instructions_path_for</text>
<text text-anchor="start" x="-227.906" y="-683.515" font-family="Times,serif" font-size="14.00">translation_scope</text>
<polyline fill="none" stroke="black" points="-235.906,-675.715 64.0943,-675.715 "/>
<text text-anchor="start" x="-227.906" y="-660.515" font-family="Times,serif" font-size="14.00">_layout</text>
</g>
<!-- Devise::OmniauthCallbacksController -->
<g id="node17" class="node"><title>Devise::OmniauthCallbacksController</title>
<path fill="none" stroke="black" d="M501.518,-199.921C501.518,-199.921 702.518,-199.921 702.518,-199.921 708.518,-199.921 714.518,-205.921 714.518,-211.921 714.518,-211.921 714.518,-339.921 714.518,-339.921 714.518,-345.921 708.518,-351.921 702.518,-351.921 702.518,-351.921 501.518,-351.921 501.518,-351.921 495.518,-351.921 489.518,-345.921 489.518,-339.921 489.518,-339.921 489.518,-211.921 489.518,-211.921 489.518,-205.921 495.518,-199.921 501.518,-199.921"/>
<text text-anchor="middle" x="602.018" y="-336.721" font-family="Times,serif" font-size="14.00">Devise::OmniauthCallbacksController</text>
<polyline fill="none" stroke="black" points="489.518,-328.921 714.518,-328.921 "/>
<text text-anchor="start" x="497.518" y="-313.721" font-family="Times,serif" font-size="14.00">failure</text>
<text text-anchor="start" x="497.518" y="-298.721" font-family="Times,serif" font-size="14.00">passthru</text>
<polyline fill="none" stroke="black" points="489.518,-290.921 714.518,-290.921 "/>
<text text-anchor="start" x="497.518" y="-275.721" font-family="Times,serif" font-size="14.00">after_omniauth_failure_path_for</text>
<text text-anchor="start" x="497.518" y="-260.721" font-family="Times,serif" font-size="14.00">failed_strategy</text>
<text text-anchor="start" x="497.518" y="-245.721" font-family="Times,serif" font-size="14.00">failure_message</text>
<text text-anchor="start" x="497.518" y="-230.721" font-family="Times,serif" font-size="14.00">translation_scope</text>
<polyline fill="none" stroke="black" points="489.518,-222.921 714.518,-222.921 "/>
<text text-anchor="start" x="497.518" y="-207.721" font-family="Times,serif" font-size="14.00">_layout</text>
</g>
<!-- Devise::UnlocksController -->
<g id="node18" class="node"><title>Devise::UnlocksController</title>
<path fill="none" stroke="black" d="M481.531,218.863C481.531,218.863 713.531,218.863 713.531,218.863 719.531,218.863 725.531,212.863 725.531,206.863 725.531,206.863 725.531,78.8633 725.531,78.8633 725.531,72.8633 719.531,66.8633 713.531,66.8633 713.531,66.8633 481.531,66.8633 481.531,66.8633 475.531,66.8633 469.531,72.8633 469.531,78.8633 469.531,78.8633 469.531,206.863 469.531,206.863 469.531,212.863 475.531,218.863 481.531,218.863"/>
<text text-anchor="middle" x="597.531" y="82.0633" font-family="Times,serif" font-size="14.00">Devise::UnlocksController</text>
<polyline fill="none" stroke="black" points="469.531,89.8633 725.531,89.8633 "/>
<text text-anchor="start" x="477.531" y="105.063" font-family="Times,serif" font-size="14.00">create</text>
<text text-anchor="start" x="477.531" y="120.063" font-family="Times,serif" font-size="14.00">new</text>
<text text-anchor="start" x="477.531" y="135.063" font-family="Times,serif" font-size="14.00">show</text>
<polyline fill="none" stroke="black" points="469.531,142.863 725.531,142.863 "/>
<text text-anchor="start" x="477.531" y="158.063" font-family="Times,serif" font-size="14.00">after_sending_unlock_instructions_path_for</text>
<text text-anchor="start" x="477.531" y="173.063" font-family="Times,serif" font-size="14.00">after_unlock_path_for</text>
<text text-anchor="start" x="477.531" y="188.063" font-family="Times,serif" font-size="14.00">translation_scope</text>
<polyline fill="none" stroke="black" points="469.531,195.863 725.531,195.863 "/>
<text text-anchor="start" x="477.531" y="211.063" font-family="Times,serif" font-size="14.00">_layout</text>
</g>
<!-- Devise::RegistrationsController -->
<g id="node19" class="node"><title>Devise::RegistrationsController</title>
<path fill="none" stroke="black" d="M53.4197,-252.201C53.4197,-252.201 222.42,-252.201 222.42,-252.201 228.42,-252.201 234.42,-258.201 234.42,-264.201 234.42,-264.201 234.42,-557.201 234.42,-557.201 234.42,-563.201 228.42,-569.201 222.42,-569.201 222.42,-569.201 53.4197,-569.201 53.4197,-569.201 47.4197,-569.201 41.4197,-563.201 41.4197,-557.201 41.4197,-557.201 41.4197,-264.201 41.4197,-264.201 41.4197,-258.201 47.4197,-252.201 53.4197,-252.201"/>
<text text-anchor="middle" x="137.92" y="-554.001" font-family="Times,serif" font-size="14.00">Devise::RegistrationsController</text>
<polyline fill="none" stroke="black" points="41.4197,-546.201 234.42,-546.201 "/>
<text text-anchor="start" x="49.4197" y="-531.001" font-family="Times,serif" font-size="14.00">cancel</text>
<text text-anchor="start" x="49.4197" y="-516.001" font-family="Times,serif" font-size="14.00">create</text>
<text text-anchor="start" x="49.4197" y="-501.001" font-family="Times,serif" font-size="14.00">destroy</text>
<text text-anchor="start" x="49.4197" y="-486.001" font-family="Times,serif" font-size="14.00">edit</text>
<text text-anchor="start" x="49.4197" y="-471.001" font-family="Times,serif" font-size="14.00">new</text>
<text text-anchor="start" x="49.4197" y="-456.001" font-family="Times,serif" font-size="14.00">update</text>
<polyline fill="none" stroke="black" points="41.4197,-448.201 234.42,-448.201 "/>
<text text-anchor="start" x="49.4197" y="-433.001" font-family="Times,serif" font-size="14.00">account_update_params</text>
<text text-anchor="start" x="49.4197" y="-418.001" font-family="Times,serif" font-size="14.00">after_inactive_sign_up_path_for</text>
<text text-anchor="start" x="49.4197" y="-403.001" font-family="Times,serif" font-size="14.00">after_sign_up_path_for</text>
<text text-anchor="start" x="49.4197" y="-388.001" font-family="Times,serif" font-size="14.00">after_update_path_for</text>
<text text-anchor="start" x="49.4197" y="-373.001" font-family="Times,serif" font-size="14.00">authenticate_scope!</text>
<text text-anchor="start" x="49.4197" y="-358.001" font-family="Times,serif" font-size="14.00">build_resource</text>
<text text-anchor="start" x="49.4197" y="-343.001" font-family="Times,serif" font-size="14.00">sign_up</text>
<text text-anchor="start" x="49.4197" y="-328.001" font-family="Times,serif" font-size="14.00">sign_up_params</text>
<text text-anchor="start" x="49.4197" y="-313.001" font-family="Times,serif" font-size="14.00">translation_scope</text>
<text text-anchor="start" x="49.4197" y="-298.001" font-family="Times,serif" font-size="14.00">update_needs_confirmation?</text>
<text text-anchor="start" x="49.4197" y="-283.001" font-family="Times,serif" font-size="14.00">update_resource</text>
<polyline fill="none" stroke="black" points="41.4197,-275.201 234.42,-275.201 "/>
<text text-anchor="start" x="49.4197" y="-260.001" font-family="Times,serif" font-size="14.00">_layout</text>
</g>
<!-- Devise::RegistrationsController&#45;&gt;RegistrationsController -->
<g id="edge8" class="edge"><title>Devise::RegistrationsController&#45;&gt;RegistrationsController</title>
<path fill="none" stroke="black" d="M234.655,-487.221C297.92,-537.264 379.309,-601.645 437.466,-647.648"/>
</g>
<!-- Devise::SessionsController -->
<g id="node20" class="node"><title>Devise::SessionsController</title>
<path fill="none" stroke="black" d="M-722.198,-624.246C-722.198,-624.246 -582.198,-624.246 -582.198,-624.246 -576.198,-624.246 -570.198,-630.246 -570.198,-636.246 -570.198,-636.246 -570.198,-824.246 -570.198,-824.246 -570.198,-830.246 -576.198,-836.246 -582.198,-836.246 -582.198,-836.246 -722.198,-836.246 -722.198,-836.246 -728.198,-836.246 -734.198,-830.246 -734.198,-824.246 -734.198,-824.246 -734.198,-636.246 -734.198,-636.246 -734.198,-630.246 -728.198,-624.246 -722.198,-624.246"/>
<text text-anchor="middle" x="-652.198" y="-821.046" font-family="Times,serif" font-size="14.00">Devise::SessionsController</text>
<polyline fill="none" stroke="black" points="-734.198,-813.246 -570.198,-813.246 "/>
<text text-anchor="start" x="-726.198" y="-798.046" font-family="Times,serif" font-size="14.00">create</text>
<text text-anchor="start" x="-726.198" y="-783.046" font-family="Times,serif" font-size="14.00">destroy</text>
<text text-anchor="start" x="-726.198" y="-768.046" font-family="Times,serif" font-size="14.00">new</text>
<polyline fill="none" stroke="black" points="-734.198,-760.246 -570.198,-760.246 "/>
<text text-anchor="start" x="-726.198" y="-745.046" font-family="Times,serif" font-size="14.00">auth_options</text>
<text text-anchor="start" x="-726.198" y="-730.046" font-family="Times,serif" font-size="14.00">serialize_options</text>
<text text-anchor="start" x="-726.198" y="-715.046" font-family="Times,serif" font-size="14.00">sign_in_params</text>
<text text-anchor="start" x="-726.198" y="-700.046" font-family="Times,serif" font-size="14.00">translation_scope</text>
<polyline fill="none" stroke="black" points="-734.198,-692.246 -570.198,-692.246 "/>
<text text-anchor="start" x="-726.198" y="-677.046" font-family="Times,serif" font-size="14.00">_layout</text>
<text text-anchor="start" x="-726.198" y="-662.046" font-family="Times,serif" font-size="14.00">all_signed_out?</text>
<text text-anchor="start" x="-726.198" y="-647.046" font-family="Times,serif" font-size="14.00">respond_to_on_destroy</text>
<text text-anchor="start" x="-726.198" y="-632.046" font-family="Times,serif" font-size="14.00">verify_signed_out_user</text>
</g>
<!-- DeviseController&#45;&gt;Devise::PasswordsController -->
<g id="edge13" class="edge"><title>DeviseController&#45;&gt;Devise::PasswordsController</title>
<path fill="none" stroke="black" d="M27.8389,-90.5389C49.7607,-89.3888 73.5861,-88.1388 97.2049,-86.8997"/>
</g>
<!-- DeviseController&#45;&gt;Devise::ConfirmationsController -->
<g id="edge14" class="edge"><title>DeviseController&#45;&gt;Devise::ConfirmationsController</title>
<path fill="none" stroke="black" d="M-73.5348,-291.994C-76.9907,-413.995 -81.2384,-563.95 -83.7503,-652.627"/>
</g>
<!-- DeviseController&#45;&gt;Devise::OmniauthCallbacksController -->
<g id="edge15" class="edge"><title>DeviseController&#45;&gt;Devise::OmniauthCallbacksController</title>
<path fill="none" stroke="black" d="M27.7418,-151.733C49.1201,-162.572 72.0599,-172.94 94.2969,-180.662 225.933,-226.374 384.808,-251.688 489.368,-264.525"/>
</g>
<!-- DeviseController&#45;&gt;Devise::UnlocksController -->
<g id="edge16" class="edge"><title>DeviseController&#45;&gt;Devise::UnlocksController</title>
<path fill="none" stroke="black" d="M27.6836,-16.3656C48.6947,-1.73283 71.5028,12.2246 94.2969,22.7377 215.216,78.5079 364.85,109.97 469.39,126.575"/>
</g>
<!-- DeviseController&#45;&gt;Devise::RegistrationsController -->
<g id="edge17" class="edge"><title>DeviseController&#45;&gt;Devise::RegistrationsController</title>
<path fill="none" stroke="black" d="M27.7416,-242.062C32.2571,-248.974 36.7914,-255.914 41.3093,-262.829"/>
</g>
<!-- DeviseController&#45;&gt;Devise::SessionsController -->
<g id="edge18" class="edge"><title>DeviseController&#45;&gt;Devise::SessionsController</title>
<path fill="none" stroke="black" d="M-105.54,-291.802C-129.112,-372.496 -166.789,-462.157 -226.376,-527.548 -319.436,-629.672 -474.837,-685.236 -569.955,-711.248"/>
</g>
</g>
</svg>
