<?xml version="1.0" encoding="UTF-8" standalone="no"?>
<!DOCTYPE svg PUBLIC "-//W3C//DTD SVG 1.1//EN"
 "http://www.w3.org/Graphics/SVG/1.1/DTD/svg11.dtd">
<!-- Generated by graphviz version 2.38.0 (20140413.2041)
 -->
<!-- Title: models_diagram Pages: 1 -->
<svg width="2137pt" height="319pt"
 viewBox="0.00 0.00 2136.89 319.00" xmlns="http://www.w3.org/2000/svg" xmlns:xlink="http://www.w3.org/1999/xlink">
<g id="graph0" class="graph" transform="scale(1 1) rotate(0) translate(4 315)">
<title>models_diagram</title>
<polygon fill="none" stroke="none" points="-4,4 -4,-315 2132.89,-315 2132.89,4 -4,4"/>
<!-- _diagram_info -->
<g id="node1" class="node"><title>_diagram_info</title>
<text text-anchor="start" x="8" y="-296.6" font-family="Times,serif" font-size="13.00">Models diagram</text>
<text text-anchor="start" x="8" y="-282.6" font-family="Times,serif" font-size="13.00">Date: Nov 17 2016 &#45; 22:40</text>
<text text-anchor="start" x="8" y="-268.6" font-family="Times,serif" font-size="13.00">Migration version: 20161019232321</text>
<text text-anchor="start" x="8" y="-254.6" font-family="Times,serif" font-size="13.00">Generated by RailRoady 1.5.2</text>
<text text-anchor="start" x="8" y="-240.6" font-family="Times,serif" font-size="13.00">http://railroady.prestonlee.com</text>
</g>
<!-- Make -->
<g id="node2" class="node"><title>Make</title>
<ellipse fill="none" stroke="black" cx="174" cy="-178" rx="31.3957" ry="18"/>
<text text-anchor="middle" x="174" y="-174.3" font-family="Times,serif" font-size="14.00">Make</text>
</g>
<!-- User -->
<g id="node3" class="node"><title>User</title>
<ellipse fill="none" stroke="black" cx="726" cy="-178" rx="27.0966" ry="18"/>
<text text-anchor="middle" x="726" y="-174.3" font-family="Times,serif" font-size="14.00">User</text>
</g>
<!-- User&#45;&gt;User -->
<g id="edge4" class="edge"><title>User&#45;&gt;User</title>
<path fill="none" stroke="#b84f55" d="M763.188,-180.972C768.066,-180.463 771.298,-179.472 771.298,-178 771.298,-176.528 768.066,-175.537 763.188,-175.028"/>
<polygon fill="#b84f55" stroke="#b84f55" points="762.965,-180.98 752.798,-176.871 757.968,-181.174 752.972,-181.368 752.972,-181.368 752.972,-181.368 757.968,-181.174 753.146,-185.864 762.965,-180.98 762.965,-180.98"/>
<polygon fill="#b84f55" stroke="#b84f55" points="762.965,-175.02 753.146,-170.136 757.968,-174.826 752.972,-174.632 752.972,-174.632 752.972,-174.632 757.968,-174.826 752.798,-179.129 762.965,-175.02 762.965,-175.02"/>
<text text-anchor="middle" x="842.298" y="-174.3" font-family="Times,serif" font-size="14.00">raters_without_dimension</text>
</g>
<!-- User&#45;&gt;User -->
<g id="edge7" class="edge"><title>User&#45;&gt;User</title>
<path fill="none" stroke="#b7b03b" d="M762.846,-182.981C818.318,-186.464 913.298,-184.804 913.298,-178 913.298,-171.196 818.318,-169.536 762.846,-173.019"/>
<polygon fill="#b7b03b" stroke="#b7b03b" points="762.623,-182.965 752.973,-177.755 757.636,-182.604 752.649,-182.243 752.649,-182.243 752.649,-182.243 757.636,-182.604 752.324,-186.732 762.623,-182.965 762.623,-182.965"/>
<polygon fill="#b7b03b" stroke="#b7b03b" points="762.623,-173.035 752.324,-169.268 757.636,-173.396 752.649,-173.757 752.649,-173.757 752.649,-173.757 757.636,-173.396 752.973,-178.245 762.623,-173.035 762.623,-173.035"/>
<text text-anchor="middle" x="947.798" y="-174.3" font-family="Times,serif" font-size="14.00">rating_raters</text>
</g>
<!-- FavoriteClassified -->
<g id="node6" class="node"><title>FavoriteClassified</title>
<ellipse fill="none" stroke="black" cx="330" cy="-18" rx="75.2868" ry="18"/>
<text text-anchor="middle" x="330" y="-14.3" font-family="Times,serif" font-size="14.00">FavoriteClassified</text>
</g>
<!-- User&#45;&gt;FavoriteClassified -->
<g id="edge12" class="edge"><title>User&#45;&gt;FavoriteClassified</title>
<path fill="none" stroke="#36319a" d="M690.89,-174.312C606.679,-167.739 399.264,-150.753 387,-142 355.436,-119.473 340.89,-74.9915 334.532,-46.148"/>
<ellipse fill="none" stroke="#36319a" cx="694.893" cy="-174.623" rx="4" ry="4"/>
<polygon fill="#36319a" stroke="#36319a" points="334.522,-46.1008 336.954,-35.408 333.533,-41.1997 332.543,-36.2986 332.543,-36.2986 332.543,-36.2986 333.533,-41.1997 328.132,-37.1892 334.522,-46.1008 334.522,-46.1008"/>
</g>
<!-- RatingCache -->
<g id="node7" class="node"><title>RatingCache</title>
<ellipse fill="none" stroke="black" cx="1123" cy="-91" rx="55.7903" ry="18"/>
<text text-anchor="middle" x="1123" y="-87.3" font-family="Times,serif" font-size="14.00">RatingCache</text>
</g>
<!-- User&#45;&gt;RatingCache -->
<g id="edge5" class="edge"><title>User&#45;&gt;RatingCache</title>
<path fill="none" stroke="#f59232" d="M761.355,-176.783C858.954,-175.818 1126.68,-170.569 1153,-142 1160.65,-133.694 1155.94,-123.132 1148.18,-113.857"/>
<ellipse fill="none" stroke="#f59232" cx="757.265" cy="-176.82" rx="4" ry="4"/>
<ellipse fill="#f59232" stroke="#f59232" cx="1145.46" cy="-110.92" rx="4.00002" ry="4.00002"/>
<text text-anchor="middle" x="1247.5" y="-130.8" font-family="Times,serif" font-size="14.00">rate_average_without_dimension</text>
</g>
<!-- User&#45;&gt;RatingCache -->
<g id="edge8" class="edge"><title>User&#45;&gt;RatingCache</title>
<path fill="none" stroke="#760660" d="M761.895,-176.932C819.044,-175.917 933.688,-170.156 1026,-142 1049.2,-134.925 1073.45,-122.424 1091.9,-111.692"/>
<ellipse fill="none" stroke="#760660" cx="757.559" cy="-176.995" rx="4" ry="4"/>
<ellipse fill="#760660" stroke="#760660" cx="1095.48" cy="-109.568" rx="4.00002" ry="4.00002"/>
<text text-anchor="middle" x="1103.5" y="-130.8" font-family="Times,serif" font-size="14.00">rating_average</text>
</g>
<!-- Classified -->
<g id="node8" class="node"><title>Classified</title>
<ellipse fill="none" stroke="black" cx="455" cy="-91" rx="46.2923" ry="18"/>
<text text-anchor="middle" x="455" y="-87.3" font-family="Times,serif" font-size="14.00">Classified</text>
</g>
<!-- User&#45;&gt;Classified -->
<g id="edge11" class="edge"><title>User&#45;&gt;Classified</title>
<path fill="none" stroke="#96c7d4" d="M690.438,-176.83C627.795,-175.794 501.334,-170.163 469,-142 462.428,-136.275 458.823,-127.743 456.882,-119.34"/>
<ellipse fill="none" stroke="#96c7d4" cx="694.476" cy="-176.887" rx="4" ry="4"/>
<polygon fill="#96c7d4" stroke="#96c7d4" points="456.862,-119.221 459.692,-108.626 456.057,-114.286 455.251,-109.351 455.251,-109.351 455.251,-109.351 456.057,-114.286 450.81,-110.077 456.862,-119.221 456.862,-119.221"/>
</g>
<!-- User&#45;&gt;Classified -->
<g id="edge14" class="edge"><title>User&#45;&gt;Classified</title>
<path fill="none" stroke="#67bfd7" d="M688.486,-175.106C630.277,-171.568 521.508,-162.387 489,-142 479.795,-136.228 472.476,-126.95 467.022,-117.945"/>
<polygon fill="#67bfd7" stroke="#67bfd7" points="688.754,-175.121 698.475,-180.195 693.745,-175.412 698.737,-175.702 698.737,-175.702 698.737,-175.702 693.745,-175.412 698.998,-171.21 688.754,-175.121 688.754,-175.121"/>
<polygon fill="#67bfd7" stroke="#67bfd7" points="467.014,-117.93 466.131,-107 464.602,-113.55 462.189,-109.171 462.189,-109.171 462.189,-109.171 464.602,-113.55 458.248,-111.342 467.014,-117.93 467.014,-117.93"/>
<text text-anchor="middle" x="513" y="-130.8" font-family="Times,serif" font-size="14.00">favorites</text>
</g>
<!-- User&#45;&gt;Classified -->
<g id="edge15" class="edge"><title>User&#45;&gt;Classified</title>
<path fill="none" stroke="#af2f16" d="M689.148,-173.192C654.72,-168.724 602.413,-159.575 560,-142 548.726,-137.328 547.764,-132.751 537,-127 524.146,-120.133 509.656,-113.583 496.472,-108.046"/>
<polygon fill="#af2f16" stroke="#af2f16" points="689.302,-173.211 698.678,-178.898 694.265,-173.821 699.228,-174.432 699.228,-174.432 699.228,-174.432 694.265,-173.821 699.777,-169.966 689.302,-173.211 689.302,-173.211"/>
<polygon fill="#af2f16" stroke="#af2f16" points="496.39,-108.012 488.859,-100.042 491.767,-106.108 487.144,-104.203 487.144,-104.203 487.144,-104.203 491.767,-106.108 485.43,-108.363 496.39,-108.012 496.39,-108.012"/>
<text text-anchor="middle" x="585.5" y="-130.8" font-family="Times,serif" font-size="14.00">flaggings</text>
</g>
<!-- Flag -->
<g id="node9" class="node"><title>Flag</title>
<ellipse fill="none" stroke="black" cx="1371" cy="-18" rx="27" ry="18"/>
<text text-anchor="middle" x="1371" y="-14.3" font-family="Times,serif" font-size="14.00">Flag</text>
</g>
<!-- User&#45;&gt;Flag -->
<g id="edge13" class="edge"><title>User&#45;&gt;Flag</title>
<path fill="none" stroke="#9262e4" d="M761.41,-177.411C885.774,-178.527 1297.48,-179.35 1342,-142 1369.57,-118.869 1373.72,-74.8768 1373.14,-46.2566"/>
<ellipse fill="none" stroke="#9262e4" cx="757.301" cy="-177.372" rx="4" ry="4"/>
<polygon fill="#9262e4" stroke="#9262e4" points="1373.13,-46.1075 1377.22,-35.9318 1372.93,-41.1117 1372.72,-36.1158 1372.72,-36.1158 1372.72,-36.1158 1372.93,-41.1117 1368.22,-36.2999 1373.13,-46.1075 1373.13,-46.1075"/>
</g>
<!-- Rate -->
<g id="node13" class="node"><title>Rate</title>
<ellipse fill="none" stroke="black" cx="813" cy="-91" rx="27" ry="18"/>
<text text-anchor="middle" x="813" y="-87.3" font-family="Times,serif" font-size="14.00">Rate</text>
</g>
<!-- User&#45;&gt;Rate -->
<g id="edge2" class="edge"><title>User&#45;&gt;Rate</title>
<path fill="none" stroke="#302416" d="M757.09,-165.414C768.9,-159.79 781.727,-152.041 791,-142 797.13,-135.363 801.744,-126.741 805.122,-118.532"/>
<ellipse fill="none" stroke="#302416" cx="753.173" cy="-167.169" rx="4.00002" ry="4.00002"/>
<polygon fill="#302416" stroke="#302416" points="805.215,-118.275 812.874,-110.427 806.931,-113.579 808.647,-108.883 808.647,-108.883 808.647,-108.883 806.931,-113.579 804.421,-107.338 805.215,-118.275 805.215,-118.275"/>
<text text-anchor="middle" x="839" y="-130.8" font-family="Times,serif" font-size="14.00">ratings_given</text>
</g>
<!-- User&#45;&gt;Rate -->
<g id="edge3" class="edge"><title>User&#45;&gt;Rate</title>
<path fill="none" stroke="#77531a" d="M761.01,-174.026C801.772,-169.754 865.398,-160.293 880,-142 893.231,-125.425 869.528,-111.481 846.744,-102.565"/>
<ellipse fill="none" stroke="#77531a" cx="756.914" cy="-174.437" rx="4" ry="4"/>
<polygon fill="#77531a" stroke="#77531a" points="846.539,-102.49 838.69,-94.8323 841.842,-100.775 837.146,-99.0591 837.146,-99.0591 837.146,-99.0591 841.842,-100.775 835.602,-103.286 846.539,-102.49 846.539,-102.49"/>
<text text-anchor="middle" x="953" y="-130.8" font-family="Times,serif" font-size="14.00">rates_without_dimension</text>
</g>
<!-- User&#45;&gt;Rate -->
<g id="edge6" class="edge"><title>User&#45;&gt;Rate</title>
<path fill="none" stroke="#e97b49" d="M718.597,-152.32C717.456,-143.662 718.014,-134.289 723,-127 734.955,-109.524 757.02,-100.772 776.31,-96.3908"/>
<ellipse fill="none" stroke="#e97b49" cx="719.372" cy="-156.38" rx="4.00001" ry="4.00001"/>
<polygon fill="#e97b49" stroke="#e97b49" points="776.552,-96.3436 787.229,-98.8431 781.459,-95.3851 786.366,-94.4266 786.366,-94.4266 786.366,-94.4266 781.459,-95.3851 785.504,-90.01 776.552,-96.3436 776.552,-96.3436"/>
<text text-anchor="middle" x="755" y="-130.8" font-family="Times,serif" font-size="14.00">rating_rates</text>
</g>
<!-- Mailboxer::Message -->
<g id="node14" class="node"><title>Mailboxer::Message</title>
<ellipse fill="none" stroke="black" cx="1583" cy="-91" rx="83.6854" ry="18"/>
<text text-anchor="middle" x="1583" y="-87.3" font-family="Times,serif" font-size="14.00">Mailboxer::Message</text>
</g>
<!-- User&#45;&gt;Mailboxer::Message -->
<g id="edge9" class="edge"><title>User&#45;&gt;Mailboxer::Message</title>
<path fill="none" stroke="#a4ab76" d="M761.534,-177.471C860.455,-178.274 1147.18,-177.142 1382,-142 1431.67,-134.567 1486.97,-120.362 1526.97,-108.987"/>
<ellipse fill="none" stroke="#a4ab76" cx="757.369" cy="-177.433" rx="4" ry="4"/>
<polygon fill="#a4ab76" stroke="#a4ab76" points="1527.19,-108.925 1538.04,-110.487 1531.99,-107.543 1536.8,-106.162 1536.8,-106.162 1536.8,-106.162 1531.99,-107.543 1535.56,-101.837 1527.19,-108.925 1527.19,-108.925"/>
<text text-anchor="middle" x="1481" y="-130.8" font-family="Times,serif" font-size="14.00">messages</text>
</g>
<!-- Mailboxer::Receipt -->
<g id="node15" class="node"><title>Mailboxer::Receipt</title>
<ellipse fill="none" stroke="black" cx="2043" cy="-91" rx="79.0865" ry="18"/>
<text text-anchor="middle" x="2043" y="-87.3" font-family="Times,serif" font-size="14.00">Mailboxer::Receipt</text>
</g>
<!-- User&#45;&gt;Mailboxer::Receipt -->
<g id="edge10" class="edge"><title>User&#45;&gt;Mailboxer::Receipt</title>
<path fill="none" stroke="#0745e0" d="M761.337,-176.535C947.721,-174.006 1810.06,-161.295 1863,-142 1873.11,-138.316 1872.27,-131.594 1882,-127 1890.7,-122.89 1934.76,-113.427 1974.59,-105.376"/>
<ellipse fill="none" stroke="#0745e0" cx="757.227" cy="-176.591" rx="4" ry="4"/>
<polygon fill="#0745e0" stroke="#0745e0" points="1974.79,-105.334 1985.48,-107.775 1979.7,-104.349 1984.6,-103.364 1984.6,-103.364 1984.6,-103.364 1979.7,-104.349 1983.71,-98.9518 1974.79,-105.334 1974.79,-105.334"/>
<text text-anchor="middle" x="1903.5" y="-130.8" font-family="Times,serif" font-size="14.00">receipts</text>
</g>
<!-- ApplicationRecord -->
<g id="node4" class="node"><title>ApplicationRecord</title>
<ellipse fill="none" stroke="black" cx="309" cy="-272" rx="77.1866" ry="18"/>
<text text-anchor="middle" x="309" y="-268.3" font-family="Times,serif" font-size="14.00">ApplicationRecord</text>
</g>
<!-- ApplicationRecord&#45;&gt;Make -->
<g id="edge1" class="edge"><title>ApplicationRecord&#45;&gt;Make</title>
<path fill="none" stroke="black" d="M281.682,-255.149C263.556,-244.355 239.432,-229.454 219,-215 209.525,-208.298 199.398,-200.278 191.154,-193.51"/>
</g>
<!-- ApplicationRecord&#45;&gt;User -->
<g id="edge16" class="edge"><title>ApplicationRecord&#45;&gt;User</title>
<path fill="none" stroke="black" d="M339.331,-255.328C355.485,-247.57 375.911,-238.673 395,-233 504.95,-200.322 641.691,-185.96 698.88,-181.076"/>
</g>
<!-- ApplicationRecord&#45;&gt;FavoriteClassified -->
<g id="edge17" class="edge"><title>ApplicationRecord&#45;&gt;FavoriteClassified</title>
<path fill="none" stroke="black" d="M287.387,-254.619C276.005,-244.588 263.159,-230.684 257,-215 242.704,-178.595 252.053,-165.797 257,-127 260.136,-102.406 258.218,-94.2446 271,-73 279.948,-58.1274 294.225,-44.9042 306.493,-35.2656"/>
</g>
<!-- ApplicationRecord&#45;&gt;Classified -->
<g id="edge23" class="edge"><title>ApplicationRecord&#45;&gt;Classified</title>
<path fill="none" stroke="black" d="M307.956,-253.692C307.141,-222.462 310.545,-157.136 350,-127 368.477,-112.887 392.945,-104.296 413.613,-99.1601"/>
</g>
<!-- ApplicationRecord&#45;&gt;Flag -->
<g id="edge24" class="edge"><title>ApplicationRecord&#45;&gt;Flag</title>
<path fill="none" stroke="black" d="M337.935,-255.113C354.203,-246.986 375.172,-237.813 395,-233 510.09,-205.064 1378.43,-230.614 1457,-142 1490.36,-104.373 1424.54,-53.5705 1390.12,-30.8448"/>
</g>
<!-- Category -->
<g id="node10" class="node"><title>Category</title>
<ellipse fill="none" stroke="black" cx="380" cy="-178" rx="42.7926" ry="18"/>
<text text-anchor="middle" x="380" y="-174.3" font-family="Times,serif" font-size="14.00">Category</text>
</g>
<!-- ApplicationRecord&#45;&gt;Category -->
<g id="edge27" class="edge"><title>ApplicationRecord&#45;&gt;Category</title>
<path fill="none" stroke="black" d="M322.022,-254.126C334.913,-237.422 354.521,-212.015 367.299,-195.458"/>
</g>
<!-- Photo -->
<g id="node11" class="node"><title>Photo</title>
<ellipse fill="none" stroke="black" cx="455" cy="-18" rx="31.3957" ry="18"/>
<text text-anchor="middle" x="455" y="-14.3" font-family="Times,serif" font-size="14.00">Photo</text>
</g>
<!-- ApplicationRecord&#45;&gt;Photo -->
<g id="edge28" class="edge"><title>ApplicationRecord&#45;&gt;Photo</title>
<path fill="none" stroke="black" d="M305.537,-253.853C301.793,-231.515 297.75,-191.588 309,-160 330.99,-98.2565 398.098,-51.8011 433.154,-31.0123"/>
</g>
<!-- OverallAverage -->
<g id="node5" class="node"><title>OverallAverage</title>
<ellipse fill="none" stroke="black" cx="471" cy="-272" rx="66.8882" ry="18"/>
<text text-anchor="middle" x="471" y="-268.3" font-family="Times,serif" font-size="14.00">OverallAverage</text>
</g>
<!-- Classified&#45;&gt;User -->
<g id="edge20" class="edge"><title>Classified&#45;&gt;User</title>
<path fill="none" stroke="#6060f0" d="M506.708,-100.975C537.415,-106.95 576.891,-115.769 611,-127 626.688,-132.166 629.864,-135.391 645,-142 661.238,-149.09 679.338,-156.918 694.303,-163.37"/>
<polygon fill="#6060f0" stroke="#6060f0" points="506.474,-100.93 497.494,-94.6372 501.563,-99.9938 496.651,-99.0576 496.651,-99.0576 496.651,-99.0576 501.563,-99.9938 495.809,-103.478 506.474,-100.93 506.474,-100.93"/>
<polygon fill="#6060f0" stroke="#6060f0" points="694.449,-163.433 701.852,-171.522 699.041,-165.411 703.633,-167.389 703.633,-167.389 703.633,-167.389 699.041,-165.411 705.413,-163.257 694.449,-163.433 694.449,-163.433"/>
<text text-anchor="middle" x="680" y="-130.8" font-family="Times,serif" font-size="14.00">favorited_by</text>
</g>
<!-- Classified&#45;&gt;User -->
<g id="edge22" class="edge"><title>Classified&#45;&gt;User</title>
<path fill="none" stroke="#b036d1" d="M413.704,-108.7C396.994,-117.815 383.955,-129.726 395,-142 404.742,-152.826 604.464,-168.31 688.865,-174.399"/>
<polygon fill="#b036d1" stroke="#b036d1" points="413.731,-108.686 424.687,-108.222 418.199,-106.443 422.668,-104.201 422.668,-104.201 422.668,-104.201 418.199,-106.443 420.65,-100.179 413.731,-108.686 413.731,-108.686"/>
<polygon fill="#b036d1" stroke="#b036d1" points="689.063,-174.413 698.716,-179.616 694.05,-174.77 699.038,-175.128 699.038,-175.128 699.038,-175.128 694.05,-174.77 699.359,-170.639 689.063,-174.413 689.063,-174.413"/>
<text text-anchor="middle" x="425.5" y="-130.8" font-family="Times,serif" font-size="14.00">flagged_by</text>
</g>
<!-- Classified&#45;&gt;FavoriteClassified -->
<g id="edge19" class="edge"><title>Classified&#45;&gt;FavoriteClassified</title>
<path fill="none" stroke="#c810ca" d="M422.885,-71.7585C405.799,-62.0541 384.711,-50.0756 366.948,-39.9865"/>
<ellipse fill="none" stroke="#c810ca" cx="426.527" cy="-73.8271" rx="4.00002" ry="4.00002"/>
<polygon fill="#c810ca" stroke="#c810ca" points="366.697,-39.8437 360.224,-30.9919 362.349,-37.3742 358.001,-34.9048 358.001,-34.9048 358.001,-34.9048 362.349,-37.3742 355.779,-38.8176 366.697,-39.8437 366.697,-39.8437"/>
</g>
<!-- Classified&#45;&gt;Flag -->
<g id="edge21" class="edge"><title>Classified&#45;&gt;Flag</title>
<path fill="none" stroke="#100b12" d="M507.942,-85.8964C675.512,-72.9079 1191.62,-32.9036 1334.19,-21.8535"/>
<ellipse fill="none" stroke="#100b12" cx="503.789" cy="-86.2183" rx="4" ry="4"/>
<polygon fill="#100b12" stroke="#100b12" points="1334.2,-21.8521 1344.52,-25.5658 1339.19,-21.4657 1344.17,-21.0792 1344.17,-21.0792 1344.17,-21.0792 1339.19,-21.4657 1343.83,-16.5927 1334.2,-21.8521 1334.2,-21.8521"/>
</g>
<!-- Classified&#45;&gt;Photo -->
<g id="edge18" class="edge"><title>Classified&#45;&gt;Photo</title>
<path fill="none" stroke="#5049e3" d="M455,-64.791C455,-58.832 455,-52.4496 455,-46.3988"/>
<ellipse fill="none" stroke="#5049e3" cx="455" cy="-68.8129" rx="4" ry="4"/>
<polygon fill="#5049e3" stroke="#5049e3" points="455,-46.0288 459.5,-36.0288 455,-41.0288 455,-36.0288 455,-36.0288 455,-36.0288 455,-41.0288 450.5,-36.0289 455,-46.0288 455,-46.0288"/>
</g>
<!-- Category&#45;&gt;Classified -->
<g id="edge26" class="edge"><title>Category&#45;&gt;Classified</title>
<path fill="none" stroke="#352568" d="M359.676,-154.341C354.15,-145.422 351.123,-135.34 357,-127 367.222,-112.495 384.027,-103.968 400.858,-98.9671"/>
<ellipse fill="none" stroke="#352568" cx="361.981" cy="-157.616" rx="4.00002" ry="4.00002"/>
<polygon fill="#352568" stroke="#352568" points="401.041,-98.9197 411.851,-100.768 405.882,-97.6657 410.722,-96.4117 410.722,-96.4117 410.722,-96.4117 405.882,-97.6657 409.593,-92.0555 401.041,-98.9197 401.041,-98.9197"/>
</g>
<!-- Category&#45;&gt;Category -->
<g id="edge25" class="edge"><title>Category&#45;&gt;Category</title>
<path fill="none" stroke="#49fb6a" d="M428.118,-184.201C435.71,-183.284 440.896,-181.217 440.896,-178 440.896,-175.051 436.538,-173.069 429.964,-172.052"/>
<ellipse fill="none" stroke="#49fb6a" cx="423.818" cy="-184.478" rx="4" ry="4"/>
<polygon fill="#49fb6a" stroke="#49fb6a" points="429.797,-172.039 420.175,-166.778 424.812,-171.652 419.827,-171.265 419.827,-171.265 419.827,-171.265 424.812,-171.652 419.478,-175.751 429.797,-172.039 429.797,-172.039"/>
<text text-anchor="middle" x="463.396" y="-174.3" font-family="Times,serif" font-size="14.00">children</text>
</g>
<!-- AverageCache -->
<g id="node12" class="node"><title>AverageCache</title>
<ellipse fill="none" stroke="black" cx="618" cy="-272" rx="62.2891" ry="18"/>
<text text-anchor="middle" x="618" y="-268.3" font-family="Times,serif" font-size="14.00">AverageCache</text>
</g>
<!-- Mailboxer::Conversation -->
<g id="node16" class="node"><title>Mailboxer::Conversation</title>
<ellipse fill="none" stroke="black" cx="1815" cy="-178" rx="99.3824" ry="18"/>
<text text-anchor="middle" x="1815" y="-174.3" font-family="Times,serif" font-size="14.00">Mailboxer::Conversation</text>
</g>
<!-- Mailboxer::Conversation&#45;&gt;Mailboxer::Message -->
<g id="edge31" class="edge"><title>Mailboxer::Conversation&#45;&gt;Mailboxer::Message</title>
<path fill="none" stroke="#db4461" d="M1765.3,-158.792C1726.3,-144.503 1672.25,-124.7 1633.14,-110.37"/>
<ellipse fill="none" stroke="#db4461" cx="1769.23" cy="-160.231" rx="4.00001" ry="4.00001"/>
<polygon fill="#db4461" stroke="#db4461" points="1632.92,-110.291 1625.08,-102.626 1628.23,-108.571 1623.53,-106.851 1623.53,-106.851 1623.53,-106.851 1628.23,-108.571 1621.99,-111.076 1632.92,-110.291 1632.92,-110.291"/>
<text text-anchor="middle" x="1739" y="-130.8" font-family="Times,serif" font-size="14.00">messages</text>
</g>
<!-- Mailboxer::Conversation&#45;&gt;Mailboxer::Receipt -->
<g id="edge32" class="edge"><title>Mailboxer::Conversation&#45;&gt;Mailboxer::Receipt</title>
<path fill="none" stroke="#6d2fb6" d="M1876.41,-159.567C1893.57,-154.313 1912.13,-148.267 1929,-142 1953.35,-132.955 1979.97,-121.38 2001.36,-111.645"/>
<polygon fill="#6d2fb6" stroke="#6d2fb6" points="1876.07,-159.671 1865.19,-158.257 1871.28,-161.117 1866.5,-162.564 1866.5,-162.564 1866.5,-162.564 1871.28,-161.117 1867.8,-166.872 1876.07,-159.671 1876.07,-159.671"/>
<polygon fill="#6d2fb6" stroke="#6d2fb6" points="2001.4,-111.628 2012.36,-111.548 2005.94,-109.543 2010.49,-107.458 2010.49,-107.458 2010.49,-107.458 2005.94,-109.543 2008.61,-103.368 2001.4,-111.628 2001.4,-111.628"/>
<text text-anchor="middle" x="1985.5" y="-130.8" font-family="Times,serif" font-size="14.00">receipts</text>
</g>
<!-- Mailboxer::Conversation::OptOut -->
<g id="node17" class="node"><title>Mailboxer::Conversation::OptOut</title>
<ellipse fill="none" stroke="black" cx="1815" cy="-91" rx="130.777" ry="18"/>
<text text-anchor="middle" x="1815" y="-87.3" font-family="Times,serif" font-size="14.00">Mailboxer::Conversation::OptOut</text>
</g>
<!-- Mailboxer::Conversation&#45;&gt;Mailboxer::Conversation::OptOut -->
<g id="edge30" class="edge"><title>Mailboxer::Conversation&#45;&gt;Mailboxer::Conversation::OptOut</title>
<path fill="none" stroke="#3ad536" d="M1815,-151.694C1815,-141.512 1815,-129.747 1815,-119.367"/>
<ellipse fill="none" stroke="#3ad536" cx="1815" cy="-155.799" rx="4" ry="4"/>
<polygon fill="#3ad536" stroke="#3ad536" points="1815,-119.175 1819.5,-109.175 1815,-114.175 1815,-109.175 1815,-109.175 1815,-109.175 1815,-114.175 1810.5,-109.175 1815,-119.175 1815,-119.175"/>
<text text-anchor="middle" x="1838.5" y="-130.8" font-family="Times,serif" font-size="14.00">opt_outs</text>
</g>
<!-- Mailboxer::Notification -->
<g id="node18" class="node"><title>Mailboxer::Notification</title>
<ellipse fill="none" stroke="black" cx="2034" cy="-178" rx="94.7833" ry="18"/>
<text text-anchor="middle" x="2034" y="-174.3" font-family="Times,serif" font-size="14.00">Mailboxer::Notification</text>
</g>
<!-- Mailboxer::Notification&#45;&gt;Mailboxer::Message -->
<g id="edge29" class="edge"><title>Mailboxer::Notification&#45;&gt;Mailboxer::Message</title>
<path fill="none" stroke="black" d="M2025.64,-159.908C2019.04,-148.432 2008.65,-134.148 1995,-127 1963.45,-110.483 1710.36,-113.244 1675,-109 1664.2,-107.703 1652.74,-105.921 1641.73,-103.996"/>
</g>
<!-- Mailboxer::Notification&#45;&gt;Mailboxer::Receipt -->
<g id="edge33" class="edge"><title>Mailboxer::Notification&#45;&gt;Mailboxer::Receipt</title>
<path fill="none" stroke="#2b234d" d="M2036.68,-151.694C2037.76,-141.512 2039,-129.747 2040.1,-119.367"/>
<ellipse fill="none" stroke="#2b234d" cx="2036.24" cy="-155.821" rx="4" ry="4"/>
<polygon fill="#2b234d" stroke="#2b234d" points="2040.13,-119.12 2045.66,-109.649 2040.65,-114.148 2041.18,-109.175 2041.18,-109.175 2041.18,-109.175 2040.65,-114.148 2036.71,-108.702 2040.13,-119.12 2040.13,-119.12"/>
<text text-anchor="middle" x="2060.5" y="-130.8" font-family="Times,serif" font-size="14.00">receipts</text>
</g>
<!-- Mailboxer::Mailbox -->
<g id="node19" class="node"><title>Mailboxer::Mailbox</title>
<polygon fill="none" stroke="black" points="826,-290 698,-290 698,-254 826,-254 826,-290"/>
<text text-anchor="middle" x="762" y="-268.3" font-family="Times,serif" font-size="14.00">Mailboxer::Mailbox</text>
</g>
</g>
</svg>
