<?xml version="1.0" encoding="UTF-8" standalone="no"?>
<!DOCTYPE svg PUBLIC "-//W3C//DTD SVG 1.1//EN"
 "http://www.w3.org/Graphics/SVG/1.1/DTD/svg11.dtd">
<!-- Generated by graphviz version 2.38.0 (20140413.2041)
 -->
<!-- Title: models_diagram Pages: 1 -->
<svg width="2086pt" height="1056pt"
 viewBox="0.00 0.00 2086.00 1056.00" xmlns="http://www.w3.org/2000/svg" xmlns:xlink="http://www.w3.org/1999/xlink">
<g id="graph0" class="graph" transform="scale(1 1) rotate(0) translate(4 1052)">
<title>models_diagram</title>
<polygon fill="none" stroke="none" points="-4,4 -4,-1052 2082,-1052 2082,4 -4,4"/>
<!-- _diagram_info -->
<g id="node1" class="node"><title>_diagram_info</title>
<text text-anchor="start" x="8" y="-1004.1" font-family="Times,serif" font-size="13.00">Models diagram</text>
<text text-anchor="start" x="8" y="-990.1" font-family="Times,serif" font-size="13.00">Date: Nov 17 2016 &#45; 22:40</text>
<text text-anchor="start" x="8" y="-976.1" font-family="Times,serif" font-size="13.00">Migration version: 20161019232321</text>
<text text-anchor="start" x="8" y="-962.1" font-family="Times,serif" font-size="13.00">Generated by RailRoady 1.5.2</text>
<text text-anchor="start" x="8" y="-948.1" font-family="Times,serif" font-size="13.00">http://railroady.prestonlee.com</text>
</g>
<!-- Make -->
<g id="node2" class="node"><title>Make</title>
<path fill="none" stroke="black" d="M85.5,-685C85.5,-685 192.5,-685 192.5,-685 198.5,-685 204.5,-691 204.5,-697 204.5,-697 204.5,-764 204.5,-764 204.5,-770 198.5,-776 192.5,-776 192.5,-776 85.5,-776 85.5,-776 79.5,-776 73.5,-770 73.5,-764 73.5,-764 73.5,-697 73.5,-697 73.5,-691 79.5,-685 85.5,-685"/>
<text text-anchor="middle" x="139" y="-760.8" font-family="Times,serif" font-size="14.00">Make</text>
<polyline fill="none" stroke="black" points="73.5,-753 204.5,-753 "/>
<text text-anchor="start" x="81.5" y="-737.8" font-family="Times,serif" font-size="14.00">id :INTEGER</text>
<text text-anchor="start" x="81.5" y="-722.8" font-family="Times,serif" font-size="14.00">name :varchar</text>
<text text-anchor="start" x="81.5" y="-707.8" font-family="Times,serif" font-size="14.00">created_at :datetime</text>
<text text-anchor="start" x="81.5" y="-692.8" font-family="Times,serif" font-size="14.00">updated_at :datetime</text>
</g>
<!-- User -->
<g id="node3" class="node"><title>User</title>
<path fill="none" stroke="black" d="M638,-587.5C638,-587.5 814,-587.5 814,-587.5 820,-587.5 826,-593.5 826,-599.5 826,-599.5 826,-861.5 826,-861.5 826,-867.5 820,-873.5 814,-873.5 814,-873.5 638,-873.5 638,-873.5 632,-873.5 626,-867.5 626,-861.5 626,-861.5 626,-599.5 626,-599.5 626,-593.5 632,-587.5 638,-587.5"/>
<text text-anchor="middle" x="726" y="-858.3" font-family="Times,serif" font-size="14.00">User</text>
<polyline fill="none" stroke="black" points="626,-850.5 826,-850.5 "/>
<text text-anchor="start" x="634" y="-835.3" font-family="Times,serif" font-size="14.00">id :INTEGER</text>
<text text-anchor="start" x="634" y="-820.3" font-family="Times,serif" font-size="14.00">first_name :varchar</text>
<text text-anchor="start" x="634" y="-805.3" font-family="Times,serif" font-size="14.00">email :varchar</text>
<text text-anchor="start" x="634" y="-790.3" font-family="Times,serif" font-size="14.00">region :varchar</text>
<text text-anchor="start" x="634" y="-775.3" font-family="Times,serif" font-size="14.00">telephone :varchar</text>
<text text-anchor="start" x="634" y="-760.3" font-family="Times,serif" font-size="14.00">stars :varchar</text>
<text text-anchor="start" x="634" y="-745.3" font-family="Times,serif" font-size="14.00">created_at :datetime</text>
<text text-anchor="start" x="634" y="-730.3" font-family="Times,serif" font-size="14.00">updated_at :datetime</text>
<text text-anchor="start" x="634" y="-715.3" font-family="Times,serif" font-size="14.00">encrypted_password :varchar</text>
<text text-anchor="start" x="634" y="-700.3" font-family="Times,serif" font-size="14.00">reset_password_token :varchar</text>
<text text-anchor="start" x="634" y="-685.3" font-family="Times,serif" font-size="14.00">reset_password_sent_at :datetime</text>
<text text-anchor="start" x="634" y="-670.3" font-family="Times,serif" font-size="14.00">remember_created_at :datetime</text>
<text text-anchor="start" x="634" y="-655.3" font-family="Times,serif" font-size="14.00">sign_in_count :integer</text>
<text text-anchor="start" x="634" y="-640.3" font-family="Times,serif" font-size="14.00">current_sign_in_at :datetime</text>
<text text-anchor="start" x="634" y="-625.3" font-family="Times,serif" font-size="14.00">last_sign_in_at :datetime</text>
<text text-anchor="start" x="634" y="-610.3" font-family="Times,serif" font-size="14.00">current_sign_in_ip :varchar</text>
<text text-anchor="start" x="634" y="-595.3" font-family="Times,serif" font-size="14.00">last_sign_in_ip :varchar</text>
</g>
<!-- User&#45;&gt;User -->
<g id="edge4" class="edge"><title>User&#45;&gt;User</title>
<path fill="none" stroke="#0a0d4f" d="M835.915,-740.03C841.014,-737.622 844,-734.445 844,-730.5 844,-726.555 841.014,-723.378 835.915,-720.97"/>
<polygon fill="#0a0d4f" stroke="#0a0d4f" points="835.791,-740.07 824.888,-738.904 831.04,-741.626 826.288,-743.181 826.288,-743.181 826.288,-743.181 831.04,-741.626 827.688,-747.458 835.791,-740.07 835.791,-740.07"/>
<polygon fill="#0a0d4f" stroke="#0a0d4f" points="835.791,-720.93 827.688,-713.542 831.04,-719.374 826.288,-717.819 826.288,-717.819 826.288,-717.819 831.04,-719.374 824.888,-722.096 835.791,-720.93 835.791,-720.93"/>
<text text-anchor="middle" x="915" y="-726.8" font-family="Times,serif" font-size="14.00">raters_without_dimension</text>
</g>
<!-- User&#45;&gt;User -->
<g id="edge7" class="edge"><title>User&#45;&gt;User</title>
<path fill="none" stroke="#11432b" d="M836.202,-759.598C908.069,-764.601 986,-754.902 986,-730.5 986,-706.098 908.069,-696.399 836.202,-701.402"/>
<polygon fill="#11432b" stroke="#11432b" points="836.079,-759.588 826.467,-754.309 831.094,-759.191 826.11,-758.794 826.11,-758.794 826.11,-758.794 831.094,-759.191 825.753,-763.28 836.079,-759.588 836.079,-759.588"/>
<polygon fill="#11432b" stroke="#11432b" points="836.079,-701.412 825.753,-697.72 831.094,-701.809 826.11,-702.206 826.11,-702.206 826.11,-702.206 831.094,-701.809 826.467,-706.691 836.079,-701.412 836.079,-701.412"/>
<text text-anchor="middle" x="1020.5" y="-726.8" font-family="Times,serif" font-size="14.00">rating_raters</text>
</g>
<!-- FavoriteClassified -->
<g id="node6" class="node"><title>FavoriteClassified</title>
<path fill="none" stroke="black" d="M230.5,-23C230.5,-23 337.5,-23 337.5,-23 343.5,-23 349.5,-29 349.5,-35 349.5,-35 349.5,-117 349.5,-117 349.5,-123 343.5,-129 337.5,-129 337.5,-129 230.5,-129 230.5,-129 224.5,-129 218.5,-123 218.5,-117 218.5,-117 218.5,-35 218.5,-35 218.5,-29 224.5,-23 230.5,-23"/>
<text text-anchor="middle" x="284" y="-113.8" font-family="Times,serif" font-size="14.00">FavoriteClassified</text>
<polyline fill="none" stroke="black" points="218.5,-106 349.5,-106 "/>
<text text-anchor="start" x="226.5" y="-90.8" font-family="Times,serif" font-size="14.00">id :INTEGER</text>
<text text-anchor="start" x="226.5" y="-75.8" font-family="Times,serif" font-size="14.00">user_id :integer</text>
<text text-anchor="start" x="226.5" y="-60.8" font-family="Times,serif" font-size="14.00">classified_id :integer</text>
<text text-anchor="start" x="226.5" y="-45.8" font-family="Times,serif" font-size="14.00">created_at :datetime</text>
<text text-anchor="start" x="226.5" y="-30.8" font-family="Times,serif" font-size="14.00">updated_at :datetime</text>
</g>
<!-- User&#45;&gt;FavoriteClassified -->
<g id="edge12" class="edge"><title>User&#45;&gt;FavoriteClassified</title>
<path fill="none" stroke="#20593b" d="M619.303,-626.416C598.335,-610.897 575.507,-596.824 552,-587 516.949,-572.352 410.58,-594.027 382,-569 258.665,-460.996 263.719,-245.825 275.038,-139.473"/>
<ellipse fill="none" stroke="#20593b" cx="622.555" cy="-628.868" rx="4.00002" ry="4.00002"/>
<polygon fill="#20593b" stroke="#20593b" points="275.073,-139.157 280.657,-129.719 275.629,-134.188 276.185,-129.219 276.185,-129.219 276.185,-129.219 275.629,-134.188 271.713,-128.719 275.073,-139.157 275.073,-139.157"/>
</g>
<!-- RatingCache -->
<g id="node7" class="node"><title>RatingCache</title>
<path fill="none" stroke="black" d="M1061,-287C1061,-287 1185,-287 1185,-287 1191,-287 1197,-293 1197,-299 1197,-299 1197,-426 1197,-426 1197,-432 1191,-438 1185,-438 1185,-438 1061,-438 1061,-438 1055,-438 1049,-432 1049,-426 1049,-426 1049,-299 1049,-299 1049,-293 1055,-287 1061,-287"/>
<text text-anchor="middle" x="1123" y="-422.8" font-family="Times,serif" font-size="14.00">RatingCache</text>
<polyline fill="none" stroke="black" points="1049,-415 1197,-415 "/>
<text text-anchor="start" x="1057" y="-399.8" font-family="Times,serif" font-size="14.00">id :INTEGER</text>
<text text-anchor="start" x="1057" y="-384.8" font-family="Times,serif" font-size="14.00">cacheable_type :varchar</text>
<text text-anchor="start" x="1057" y="-369.8" font-family="Times,serif" font-size="14.00">cacheable_id :integer</text>
<text text-anchor="start" x="1057" y="-354.8" font-family="Times,serif" font-size="14.00">avg :float</text>
<text text-anchor="start" x="1057" y="-339.8" font-family="Times,serif" font-size="14.00">qty :integer</text>
<text text-anchor="start" x="1057" y="-324.8" font-family="Times,serif" font-size="14.00">dimension :varchar</text>
<text text-anchor="start" x="1057" y="-309.8" font-family="Times,serif" font-size="14.00">created_at :datetime</text>
<text text-anchor="start" x="1057" y="-294.8" font-family="Times,serif" font-size="14.00">updated_at :datetime</text>
</g>
<!-- User&#45;&gt;RatingCache -->
<g id="edge5" class="edge"><title>User&#45;&gt;RatingCache</title>
<path fill="none" stroke="#d84455" d="M834.553,-722.167C935.861,-708.888 1081.78,-671.856 1153,-569 1177.59,-533.494 1172.6,-486.225 1160.33,-445.974"/>
<ellipse fill="none" stroke="#d84455" cx="830.391" cy="-722.692" rx="4.00001" ry="4.00001"/>
<ellipse fill="#d84455" stroke="#d84455" cx="1159.09" cy="-442.095" rx="4.00001" ry="4.00001"/>
<text text-anchor="middle" x="1252.5" y="-557.8" font-family="Times,serif" font-size="14.00">rate_average_without_dimension</text>
</g>
<!-- User&#45;&gt;RatingCache -->
<g id="edge8" class="edge"><title>User&#45;&gt;RatingCache</title>
<path fill="none" stroke="#e644fa" d="M833.633,-688.971C893.685,-662.133 966.526,-622.053 1018,-569 1051.75,-534.215 1077.05,-486.418 1094.35,-445.673"/>
<ellipse fill="none" stroke="#e644fa" cx="829.659" cy="-690.726" rx="4.00002" ry="4.00002"/>
<ellipse fill="#e644fa" stroke="#e644fa" cx="1095.95" cy="-441.844" rx="4.00002" ry="4.00002"/>
<text text-anchor="middle" x="1071.5" y="-557.8" font-family="Times,serif" font-size="14.00">rating_average</text>
</g>
<!-- Classified -->
<g id="node8" class="node"><title>Classified</title>
<path fill="none" stroke="black" d="M395.5,-189.5C395.5,-189.5 514.5,-189.5 514.5,-189.5 520.5,-189.5 526.5,-195.5 526.5,-201.5 526.5,-201.5 526.5,-523.5 526.5,-523.5 526.5,-529.5 520.5,-535.5 514.5,-535.5 514.5,-535.5 395.5,-535.5 395.5,-535.5 389.5,-535.5 383.5,-529.5 383.5,-523.5 383.5,-523.5 383.5,-201.5 383.5,-201.5 383.5,-195.5 389.5,-189.5 395.5,-189.5"/>
<text text-anchor="middle" x="455" y="-520.3" font-family="Times,serif" font-size="14.00">Classified</text>
<polyline fill="none" stroke="black" points="383.5,-512.5 526.5,-512.5 "/>
<text text-anchor="start" x="391.5" y="-497.3" font-family="Times,serif" font-size="14.00">id :INTEGER</text>
<text text-anchor="start" x="391.5" y="-482.3" font-family="Times,serif" font-size="14.00">make :varchar</text>
<text text-anchor="start" x="391.5" y="-467.3" font-family="Times,serif" font-size="14.00">model :varchar</text>
<text text-anchor="start" x="391.5" y="-452.3" font-family="Times,serif" font-size="14.00">year :varchar</text>
<text text-anchor="start" x="391.5" y="-437.3" font-family="Times,serif" font-size="14.00">color :varchar</text>
<text text-anchor="start" x="391.5" y="-422.3" font-family="Times,serif" font-size="14.00">title :varchar</text>
<text text-anchor="start" x="391.5" y="-407.3" font-family="Times,serif" font-size="14.00">condition :varchar</text>
<text text-anchor="start" x="391.5" y="-392.3" font-family="Times,serif" font-size="14.00">offer :varchar</text>
<text text-anchor="start" x="391.5" y="-377.3" font-family="Times,serif" font-size="14.00">make_country :varchar</text>
<text text-anchor="start" x="391.5" y="-362.3" font-family="Times,serif" font-size="14.00">description :text</text>
<text text-anchor="start" x="391.5" y="-347.3" font-family="Times,serif" font-size="14.00">user_id :integer</text>
<text text-anchor="start" x="391.5" y="-332.3" font-family="Times,serif" font-size="14.00">created_at :datetime</text>
<text text-anchor="start" x="391.5" y="-317.3" font-family="Times,serif" font-size="14.00">updated_at :datetime</text>
<text text-anchor="start" x="391.5" y="-302.3" font-family="Times,serif" font-size="14.00">category_id :integer</text>
<text text-anchor="start" x="391.5" y="-287.3" font-family="Times,serif" font-size="14.00">sold :boolean</text>
<text text-anchor="start" x="391.5" y="-272.3" font-family="Times,serif" font-size="14.00">hold :boolean</text>
<text text-anchor="start" x="391.5" y="-257.3" font-family="Times,serif" font-size="14.00">price_cents :integer</text>
<text text-anchor="start" x="391.5" y="-242.3" font-family="Times,serif" font-size="14.00">giveaway :boolean</text>
<text text-anchor="start" x="391.5" y="-227.3" font-family="Times,serif" font-size="14.00">trade :boolean</text>
<text text-anchor="start" x="391.5" y="-212.3" font-family="Times,serif" font-size="14.00">sell :boolean</text>
<text text-anchor="start" x="391.5" y="-197.3" font-family="Times,serif" font-size="14.00">askingfor :boolean</text>
</g>
<!-- User&#45;&gt;Classified -->
<g id="edge11" class="edge"><title>User&#45;&gt;Classified</title>
<path fill="none" stroke="#0d5f07" d="M619.231,-629.163C598.12,-613.177 575.261,-598.233 552,-587 518.009,-570.586 493.68,-597.561 469,-569 462.733,-561.747 457.625,-553.76 453.501,-545.273"/>
<ellipse fill="none" stroke="#0d5f07" cx="622.554" cy="-631.717" rx="4.00002" ry="4.00002"/>
<polygon fill="#0d5f07" stroke="#0d5f07" points="453.402,-545.044 453.531,-534.079 451.404,-540.46 449.406,-535.877 449.406,-535.877 449.406,-535.877 451.404,-540.46 445.281,-537.675 453.402,-545.044 453.402,-545.044"/>
</g>
<!-- User&#45;&gt;Classified -->
<g id="edge14" class="edge"><title>User&#45;&gt;Classified</title>
<path fill="none" stroke="#6188a4" d="M617.398,-629.469C596.692,-613.698 574.446,-598.75 552,-587 526.201,-573.495 508.381,-590.734 489,-569 482.48,-561.689 476.959,-553.623 472.299,-545.046"/>
<polygon fill="#6188a4" stroke="#6188a4" points="617.651,-629.665 622.804,-639.345 621.605,-632.726 625.559,-635.787 625.559,-635.787 625.559,-635.787 621.605,-632.726 628.313,-632.229 617.651,-629.665 617.651,-629.665"/>
<polygon fill="#6188a4" stroke="#6188a4" points="472.216,-544.878 471.775,-533.921 469.982,-540.405 467.749,-535.932 467.749,-535.932 467.749,-535.932 469.982,-540.405 463.723,-537.942 472.216,-544.878 472.216,-544.878"/>
<text text-anchor="middle" x="513" y="-557.8" font-family="Times,serif" font-size="14.00">favorites</text>
</g>
<!-- User&#45;&gt;Classified -->
<g id="edge15" class="edge"><title>User&#45;&gt;Classified</title>
<path fill="none" stroke="#b0cea7" d="M618.632,-635.906C597.825,-615.048 577.177,-592.2 560,-569 550.086,-555.609 540.621,-541.145 531.723,-526.311"/>
<polygon fill="#b0cea7" stroke="#b0cea7" points="618.888,-636.16 622.826,-646.394 622.441,-639.679 625.993,-643.198 625.993,-643.198 625.993,-643.198 622.441,-639.679 629.16,-640.001 618.888,-636.16 618.888,-636.16"/>
<polygon fill="#b0cea7" stroke="#b0cea7" points="531.63,-526.153 530.426,-515.253 529.09,-521.846 526.55,-517.539 526.55,-517.539 526.55,-517.539 529.09,-521.846 522.674,-519.825 531.63,-526.153 531.63,-526.153"/>
<text text-anchor="middle" x="585.5" y="-557.8" font-family="Times,serif" font-size="14.00">flaggings</text>
</g>
<!-- Flag -->
<g id="node9" class="node"><title>Flag</title>
<path fill="none" stroke="black" d="M1317.5,-23C1317.5,-23 1424.5,-23 1424.5,-23 1430.5,-23 1436.5,-29 1436.5,-35 1436.5,-35 1436.5,-117 1436.5,-117 1436.5,-123 1430.5,-129 1424.5,-129 1424.5,-129 1317.5,-129 1317.5,-129 1311.5,-129 1305.5,-123 1305.5,-117 1305.5,-117 1305.5,-35 1305.5,-35 1305.5,-29 1311.5,-23 1317.5,-23"/>
<text text-anchor="middle" x="1371" y="-113.8" font-family="Times,serif" font-size="14.00">Flag</text>
<polyline fill="none" stroke="black" points="1305.5,-106 1436.5,-106 "/>
<text text-anchor="start" x="1313.5" y="-90.8" font-family="Times,serif" font-size="14.00">id :INTEGER</text>
<text text-anchor="start" x="1313.5" y="-75.8" font-family="Times,serif" font-size="14.00">created_at :datetime</text>
<text text-anchor="start" x="1313.5" y="-60.8" font-family="Times,serif" font-size="14.00">updated_at :datetime</text>
<text text-anchor="start" x="1313.5" y="-45.8" font-family="Times,serif" font-size="14.00">user_id :integer</text>
<text text-anchor="start" x="1313.5" y="-30.8" font-family="Times,serif" font-size="14.00">classified_id :integer</text>
</g>
<!-- User&#45;&gt;Flag -->
<g id="edge13" class="edge"><title>User&#45;&gt;Flag</title>
<path fill="none" stroke="#b9c8e9" d="M834.197,-716.908C994.424,-695.839 1282.83,-647.817 1347,-569 1447.59,-445.451 1414.49,-241.169 1389,-139.084"/>
<ellipse fill="none" stroke="#b9c8e9" cx="830.16" cy="-717.434" rx="4.00001" ry="4.00001"/>
<polygon fill="#b9c8e9" stroke="#b9c8e9" points="1388.96,-138.922 1390.85,-128.119 1387.72,-134.077 1386.49,-129.233 1386.49,-129.233 1386.49,-129.233 1387.72,-134.077 1382.13,-130.346 1388.96,-138.922 1388.96,-138.922"/>
</g>
<!-- Rate -->
<g id="node13" class="node"><title>Rate</title>
<path fill="none" stroke="black" d="M756.5,-287C756.5,-287 869.5,-287 869.5,-287 875.5,-287 881.5,-293 881.5,-299 881.5,-299 881.5,-426 881.5,-426 881.5,-432 875.5,-438 869.5,-438 869.5,-438 756.5,-438 756.5,-438 750.5,-438 744.5,-432 744.5,-426 744.5,-426 744.5,-299 744.5,-299 744.5,-293 750.5,-287 756.5,-287"/>
<text text-anchor="middle" x="813" y="-422.8" font-family="Times,serif" font-size="14.00">Rate</text>
<polyline fill="none" stroke="black" points="744.5,-415 881.5,-415 "/>
<text text-anchor="start" x="752.5" y="-399.8" font-family="Times,serif" font-size="14.00">id :INTEGER</text>
<text text-anchor="start" x="752.5" y="-384.8" font-family="Times,serif" font-size="14.00">rater_id :integer</text>
<text text-anchor="start" x="752.5" y="-369.8" font-family="Times,serif" font-size="14.00">rateable_type :varchar</text>
<text text-anchor="start" x="752.5" y="-354.8" font-family="Times,serif" font-size="14.00">rateable_id :integer</text>
<text text-anchor="start" x="752.5" y="-339.8" font-family="Times,serif" font-size="14.00">stars :float</text>
<text text-anchor="start" x="752.5" y="-324.8" font-family="Times,serif" font-size="14.00">dimension :varchar</text>
<text text-anchor="start" x="752.5" y="-309.8" font-family="Times,serif" font-size="14.00">created_at :datetime</text>
<text text-anchor="start" x="752.5" y="-294.8" font-family="Times,serif" font-size="14.00">updated_at :datetime</text>
</g>
<!-- User&#45;&gt;Rate -->
<g id="edge2" class="edge"><title>User&#45;&gt;Rate</title>
<path fill="none" stroke="#c0f826" d="M788.309,-579.147C789.258,-575.748 790.157,-572.363 791,-569 800.773,-530.03 806.206,-485.836 809.225,-448.443"/>
<ellipse fill="none" stroke="#c0f826" cx="787.121" cy="-583.256" rx="4.00001" ry="4.00001"/>
<polygon fill="#c0f826" stroke="#c0f826" points="809.255,-448.057 814.502,-438.428 809.635,-443.072 810.015,-438.086 810.015,-438.086 810.015,-438.086 809.635,-443.072 805.528,-437.744 809.255,-448.057 809.255,-448.057"/>
<text text-anchor="middle" x="831" y="-557.8" font-family="Times,serif" font-size="14.00">ratings_given</text>
</g>
<!-- User&#45;&gt;Rate -->
<g id="edge3" class="edge"><title>User&#45;&gt;Rate</title>
<path fill="none" stroke="#30df94" d="M831.311,-635.984C847.945,-615.692 862.702,-593.038 872,-569 887.121,-529.905 877.421,-485.312 861.855,-447.68"/>
<ellipse fill="none" stroke="#30df94" cx="828.664" cy="-639.141" rx="4.00002" ry="4.00002"/>
<polygon fill="#30df94" stroke="#30df94" points="861.754,-447.448 861.912,-436.483 859.768,-442.859 857.782,-438.27 857.782,-438.27 857.782,-438.27 859.768,-442.859 853.652,-440.057 861.754,-447.448 861.754,-447.448"/>
<text text-anchor="middle" x="945" y="-557.8" font-family="Times,serif" font-size="14.00">rates_without_dimension</text>
</g>
<!-- User&#45;&gt;Rate -->
<g id="edge6" class="edge"><title>User&#45;&gt;Rate</title>
<path fill="none" stroke="#7a895f" d="M718.737,-578.98C719.782,-570.488 721.18,-562.112 723,-554 731.233,-517.298 747.374,-479.344 763.741,-447.065"/>
<ellipse fill="none" stroke="#7a895f" cx="718.277" cy="-583.176" rx="4.00001" ry="4.00001"/>
<polygon fill="#7a895f" stroke="#7a895f" points="763.772,-447.005 772.356,-440.181 766.065,-442.561 768.357,-438.117 768.357,-438.117 768.357,-438.117 766.065,-442.561 764.358,-436.054 763.772,-447.005 763.772,-447.005"/>
<text text-anchor="middle" x="755" y="-557.8" font-family="Times,serif" font-size="14.00">rating_rates</text>
</g>
<!-- Mailboxer::Message -->
<g id="node14" class="node"><title>Mailboxer::Message</title>
<path fill="none" stroke="black" d="M1511,-227C1511,-227 1663,-227 1663,-227 1669,-227 1675,-233 1675,-239 1675,-239 1675,-486 1675,-486 1675,-492 1669,-498 1663,-498 1663,-498 1511,-498 1511,-498 1505,-498 1499,-492 1499,-486 1499,-486 1499,-239 1499,-239 1499,-233 1505,-227 1511,-227"/>
<text text-anchor="middle" x="1587" y="-482.8" font-family="Times,serif" font-size="14.00">Mailboxer::Message</text>
<polyline fill="none" stroke="black" points="1499,-475 1675,-475 "/>
<text text-anchor="start" x="1507" y="-459.8" font-family="Times,serif" font-size="14.00">id :INTEGER</text>
<text text-anchor="start" x="1507" y="-444.8" font-family="Times,serif" font-size="14.00">type :varchar</text>
<text text-anchor="start" x="1507" y="-429.8" font-family="Times,serif" font-size="14.00">body :text</text>
<text text-anchor="start" x="1507" y="-414.8" font-family="Times,serif" font-size="14.00">subject :varchar</text>
<text text-anchor="start" x="1507" y="-399.8" font-family="Times,serif" font-size="14.00">sender_type :varchar</text>
<text text-anchor="start" x="1507" y="-384.8" font-family="Times,serif" font-size="14.00">sender_id :integer</text>
<text text-anchor="start" x="1507" y="-369.8" font-family="Times,serif" font-size="14.00">conversation_id :integer</text>
<text text-anchor="start" x="1507" y="-354.8" font-family="Times,serif" font-size="14.00">draft :boolean</text>
<text text-anchor="start" x="1507" y="-339.8" font-family="Times,serif" font-size="14.00">notification_code :varchar</text>
<text text-anchor="start" x="1507" y="-324.8" font-family="Times,serif" font-size="14.00">notified_object_type :varchar</text>
<text text-anchor="start" x="1507" y="-309.8" font-family="Times,serif" font-size="14.00">notified_object_id :integer</text>
<text text-anchor="start" x="1507" y="-294.8" font-family="Times,serif" font-size="14.00">attachment :varchar</text>
<text text-anchor="start" x="1507" y="-279.8" font-family="Times,serif" font-size="14.00">updated_at :datetime</text>
<text text-anchor="start" x="1507" y="-264.8" font-family="Times,serif" font-size="14.00">created_at :datetime</text>
<text text-anchor="start" x="1507" y="-249.8" font-family="Times,serif" font-size="14.00">global :boolean</text>
<text text-anchor="start" x="1507" y="-234.8" font-family="Times,serif" font-size="14.00">expires :datetime</text>
</g>
<!-- User&#45;&gt;Mailboxer::Message -->
<g id="edge9" class="edge"><title>User&#45;&gt;Mailboxer::Message</title>
<path fill="none" stroke="#10e6fc" d="M834.042,-721.065C969.711,-706.58 1206,-668.209 1382,-569 1422.2,-546.34 1459.87,-513.596 1491.68,-480.882"/>
<ellipse fill="none" stroke="#10e6fc" cx="830.033" cy="-721.485" rx="4" ry="4"/>
<polygon fill="#10e6fc" stroke="#10e6fc" points="1491.87,-480.681 1502.04,-476.579 1495.33,-477.073 1498.8,-473.464 1498.8,-473.464 1498.8,-473.464 1495.33,-477.073 1495.55,-470.349 1491.87,-480.681 1491.87,-480.681"/>
<text text-anchor="middle" x="1428" y="-557.8" font-family="Times,serif" font-size="14.00">messages</text>
</g>
<!-- Mailboxer::Receipt -->
<g id="node15" class="node"><title>Mailboxer::Receipt</title>
<path fill="none" stroke="black" d="M1925,-249.5C1925,-249.5 2063,-249.5 2063,-249.5 2069,-249.5 2075,-255.5 2075,-261.5 2075,-261.5 2075,-463.5 2075,-463.5 2075,-469.5 2069,-475.5 2063,-475.5 2063,-475.5 1925,-475.5 1925,-475.5 1919,-475.5 1913,-469.5 1913,-463.5 1913,-463.5 1913,-261.5 1913,-261.5 1913,-255.5 1919,-249.5 1925,-249.5"/>
<text text-anchor="middle" x="1994" y="-460.3" font-family="Times,serif" font-size="14.00">Mailboxer::Receipt</text>
<polyline fill="none" stroke="black" points="1913,-452.5 2075,-452.5 "/>
<text text-anchor="start" x="1921" y="-437.3" font-family="Times,serif" font-size="14.00">id :INTEGER</text>
<text text-anchor="start" x="1921" y="-422.3" font-family="Times,serif" font-size="14.00">receiver_type :varchar</text>
<text text-anchor="start" x="1921" y="-407.3" font-family="Times,serif" font-size="14.00">receiver_id :integer</text>
<text text-anchor="start" x="1921" y="-392.3" font-family="Times,serif" font-size="14.00">notification_id :integer</text>
<text text-anchor="start" x="1921" y="-377.3" font-family="Times,serif" font-size="14.00">is_read :boolean</text>
<text text-anchor="start" x="1921" y="-362.3" font-family="Times,serif" font-size="14.00">trashed :boolean</text>
<text text-anchor="start" x="1921" y="-347.3" font-family="Times,serif" font-size="14.00">deleted :boolean</text>
<text text-anchor="start" x="1921" y="-332.3" font-family="Times,serif" font-size="14.00">mailbox_type :varchar(25)</text>
<text text-anchor="start" x="1921" y="-317.3" font-family="Times,serif" font-size="14.00">created_at :datetime</text>
<text text-anchor="start" x="1921" y="-302.3" font-family="Times,serif" font-size="14.00">updated_at :datetime</text>
<text text-anchor="start" x="1921" y="-287.3" font-family="Times,serif" font-size="14.00">is_delivered :boolean</text>
<text text-anchor="start" x="1921" y="-272.3" font-family="Times,serif" font-size="14.00">delivery_method :varchar</text>
<text text-anchor="start" x="1921" y="-257.3" font-family="Times,serif" font-size="14.00">message_id :varchar</text>
</g>
<!-- User&#45;&gt;Mailboxer::Receipt -->
<g id="edge10" class="edge"><title>User&#45;&gt;Mailboxer::Receipt</title>
<path fill="none" stroke="#1ea36d" d="M834.15,-713.181C1013.12,-686.269 1382.22,-631.162 1695,-587 1754.06,-578.661 1773.09,-592.306 1828,-569 1837.9,-564.796 1837.49,-559.036 1847,-554 1870.48,-541.566 1883.64,-553.072 1904,-536 1920.83,-521.882 1934.92,-503.804 1946.57,-484.688"/>
<ellipse fill="none" stroke="#1ea36d" cx="829.989" cy="-713.807" rx="4.00001" ry="4.00001"/>
<polygon fill="#1ea36d" stroke="#1ea36d" points="1946.7,-484.471 1955.64,-478.119 1949.23,-480.157 1951.76,-475.843 1951.76,-475.843 1951.76,-475.843 1949.23,-480.157 1947.88,-473.568 1946.7,-484.471 1946.7,-484.471"/>
<text text-anchor="middle" x="1868.5" y="-557.8" font-family="Times,serif" font-size="14.00">receipts</text>
</g>
<!-- ApplicationRecord -->
<g id="node4" class="node"><title>ApplicationRecord</title>
<ellipse fill="none" stroke="black" cx="309" cy="-979.5" rx="77.1866" ry="18"/>
<text text-anchor="middle" x="309" y="-975.8" font-family="Times,serif" font-size="14.00">ApplicationRecord</text>
</g>
<!-- ApplicationRecord&#45;&gt;Make -->
<g id="edge1" class="edge"><title>ApplicationRecord&#45;&gt;Make</title>
<path fill="none" stroke="black" d="M287.665,-961.94C268.011,-945.888 238.956,-920.058 219,-893 192.163,-856.613 170.134,-809.848 156.035,-776.015"/>
</g>
<!-- ApplicationRecord&#45;&gt;User -->
<g id="edge16" class="edge"><title>ApplicationRecord&#45;&gt;User</title>
<path fill="none" stroke="black" d="M325.589,-961.82C341.885,-946.38 368.148,-923.92 395,-911 459.601,-879.918 487.725,-905.751 552,-874 577.556,-861.376 602.685,-844.364 625.554,-826.494"/>
</g>
<!-- ApplicationRecord&#45;&gt;FavoriteClassified -->
<g id="edge17" class="edge"><title>ApplicationRecord&#45;&gt;FavoriteClassified</title>
<path fill="none" stroke="black" d="M294.743,-961.5C282.023,-945.138 264.313,-919.097 257,-893 172.569,-591.692 237.68,-500.63 266,-189 267.782,-169.387 270.919,-148.007 274.08,-129.233"/>
</g>
<!-- ApplicationRecord&#45;&gt;Classified -->
<g id="edge23" class="edge"><title>ApplicationRecord&#45;&gt;Classified</title>
<path fill="none" stroke="black" d="M307.047,-961.248C301.333,-905.625 287.485,-726.521 328,-587 340.165,-545.106 361.557,-502.619 383.355,-466.1"/>
</g>
<!-- ApplicationRecord&#45;&gt;Flag -->
<g id="edge24" class="edge"><title>ApplicationRecord&#45;&gt;Flag</title>
<path fill="none" stroke="black" d="M324.219,-961.651C340.087,-945.383 366.574,-921.688 395,-911 466.554,-884.097 1010.68,-901.523 1082,-874 1282.43,-796.651 1364.72,-763.004 1457,-569 1527.58,-420.613 1446.55,-222.318 1399.68,-129.311"/>
</g>
<!-- Category -->
<g id="node10" class="node"><title>Category</title>
<path fill="none" stroke="black" d="M349.5,-655C349.5,-655 468.5,-655 468.5,-655 474.5,-655 480.5,-661 480.5,-667 480.5,-667 480.5,-794 480.5,-794 480.5,-800 474.5,-806 468.5,-806 468.5,-806 349.5,-806 349.5,-806 343.5,-806 337.5,-800 337.5,-794 337.5,-794 337.5,-667 337.5,-667 337.5,-661 343.5,-655 349.5,-655"/>
<text text-anchor="middle" x="409" y="-790.8" font-family="Times,serif" font-size="14.00">Category</text>
<polyline fill="none" stroke="black" points="337.5,-783 480.5,-783 "/>
<text text-anchor="start" x="345.5" y="-767.8" font-family="Times,serif" font-size="14.00">id :INTEGER</text>
<text text-anchor="start" x="345.5" y="-752.8" font-family="Times,serif" font-size="14.00">name :varchar</text>
<text text-anchor="start" x="345.5" y="-737.8" font-family="Times,serif" font-size="14.00">parent_id :integer</text>
<text text-anchor="start" x="345.5" y="-722.8" font-family="Times,serif" font-size="14.00">lft :integer</text>
<text text-anchor="start" x="345.5" y="-707.8" font-family="Times,serif" font-size="14.00">rgt :integer</text>
<text text-anchor="start" x="345.5" y="-692.8" font-family="Times,serif" font-size="14.00">depth :integer</text>
<text text-anchor="start" x="345.5" y="-677.8" font-family="Times,serif" font-size="14.00">children_count :integer</text>
<text text-anchor="start" x="345.5" y="-662.8" font-family="Times,serif" font-size="14.00">title :varchar</text>
</g>
<!-- ApplicationRecord&#45;&gt;Category -->
<g id="edge27" class="edge"><title>ApplicationRecord&#45;&gt;Category</title>
<path fill="none" stroke="black" d="M315.873,-961.523C328.648,-929.969 356.75,-860.558 378.762,-806.188"/>
</g>
<!-- Photo -->
<g id="node11" class="node"><title>Photo</title>
<path fill="none" stroke="black" d="M379.5,-0.5C379.5,-0.5 530.5,-0.5 530.5,-0.5 536.5,-0.5 542.5,-6.5 542.5,-12.5 542.5,-12.5 542.5,-139.5 542.5,-139.5 542.5,-145.5 536.5,-151.5 530.5,-151.5 530.5,-151.5 379.5,-151.5 379.5,-151.5 373.5,-151.5 367.5,-145.5 367.5,-139.5 367.5,-139.5 367.5,-12.5 367.5,-12.5 367.5,-6.5 373.5,-0.5 379.5,-0.5"/>
<text text-anchor="middle" x="455" y="-136.3" font-family="Times,serif" font-size="14.00">Photo</text>
<polyline fill="none" stroke="black" points="367.5,-128.5 542.5,-128.5 "/>
<text text-anchor="start" x="375.5" y="-113.3" font-family="Times,serif" font-size="14.00">id :INTEGER</text>
<text text-anchor="start" x="375.5" y="-98.3" font-family="Times,serif" font-size="14.00">classified_id :integer</text>
<text text-anchor="start" x="375.5" y="-83.3" font-family="Times,serif" font-size="14.00">created_at :datetime</text>
<text text-anchor="start" x="375.5" y="-68.3" font-family="Times,serif" font-size="14.00">updated_at :datetime</text>
<text text-anchor="start" x="375.5" y="-53.3" font-family="Times,serif" font-size="14.00">image_file_name :varchar</text>
<text text-anchor="start" x="375.5" y="-38.3" font-family="Times,serif" font-size="14.00">image_content_type :varchar</text>
<text text-anchor="start" x="375.5" y="-23.3" font-family="Times,serif" font-size="14.00">image_file_size :integer</text>
<text text-anchor="start" x="375.5" y="-8.3" font-family="Times,serif" font-size="14.00">image_updated_at :datetime</text>
</g>
<!-- ApplicationRecord&#45;&gt;Photo -->
<g id="edge28" class="edge"><title>ApplicationRecord&#45;&gt;Photo</title>
<path fill="none" stroke="black" d="M306.065,-961.185C302.781,-940.511 297.811,-904.851 297,-874 288.946,-567.744 252.269,-470.139 374,-189 379.483,-176.338 386.589,-163.714 394.312,-151.749"/>
</g>
<!-- OverallAverage -->
<g id="node5" class="node"><title>OverallAverage</title>
<path fill="none" stroke="black" d="M416.5,-919C416.5,-919 529.5,-919 529.5,-919 535.5,-919 541.5,-925 541.5,-931 541.5,-931 541.5,-1028 541.5,-1028 541.5,-1034 535.5,-1040 529.5,-1040 529.5,-1040 416.5,-1040 416.5,-1040 410.5,-1040 404.5,-1034 404.5,-1028 404.5,-1028 404.5,-931 404.5,-931 404.5,-925 410.5,-919 416.5,-919"/>
<text text-anchor="middle" x="473" y="-1024.8" font-family="Times,serif" font-size="14.00">OverallAverage</text>
<polyline fill="none" stroke="black" points="404.5,-1017 541.5,-1017 "/>
<text text-anchor="start" x="412.5" y="-1001.8" font-family="Times,serif" font-size="14.00">id :INTEGER</text>
<text text-anchor="start" x="412.5" y="-986.8" font-family="Times,serif" font-size="14.00">rateable_type :varchar</text>
<text text-anchor="start" x="412.5" y="-971.8" font-family="Times,serif" font-size="14.00">rateable_id :integer</text>
<text text-anchor="start" x="412.5" y="-956.8" font-family="Times,serif" font-size="14.00">overall_avg :float</text>
<text text-anchor="start" x="412.5" y="-941.8" font-family="Times,serif" font-size="14.00">created_at :datetime</text>
<text text-anchor="start" x="412.5" y="-926.8" font-family="Times,serif" font-size="14.00">updated_at :datetime</text>
</g>
<!-- Classified&#45;&gt;User -->
<g id="edge20" class="edge"><title>Classified&#45;&gt;User</title>
<path fill="none" stroke="#4e74a6" d="M533.287,-455.075C558.785,-485.947 586.752,-520.959 611,-554 616.961,-562.123 622.977,-570.54 628.966,-579.091"/>
<polygon fill="#4e74a6" stroke="#4e74a6" points="533.241,-455.02 530.327,-444.448 530.051,-451.17 526.861,-447.319 526.861,-447.319 526.861,-447.319 530.051,-451.17 523.396,-450.19 533.241,-455.02 533.241,-455.02"/>
<polygon fill="#4e74a6" stroke="#4e74a6" points="628.985,-579.119 631.003,-589.897 631.841,-583.223 634.697,-587.327 634.697,-587.327 634.697,-587.327 631.841,-583.223 638.391,-584.756 628.985,-579.119 628.985,-579.119"/>
<text text-anchor="middle" x="656" y="-557.8" font-family="Times,serif" font-size="14.00">favorited_by</text>
</g>
<!-- Classified&#45;&gt;User -->
<g id="edge22" class="edge"><title>Classified&#45;&gt;User</title>
<path fill="none" stroke="#beb0f8" d="M380.63,-490.766C373.681,-519.012 375.415,-547.042 395,-569 418.375,-595.208 519.657,-573.319 552,-587 574.858,-596.669 597.092,-610.321 617.602,-625.383"/>
<polygon fill="#beb0f8" stroke="#beb0f8" points="380.732,-490.403 387.768,-481.992 382.084,-485.59 383.436,-480.776 383.436,-480.776 383.436,-480.776 382.084,-485.59 379.103,-479.559 380.732,-490.403 380.732,-490.403"/>
<polygon fill="#beb0f8" stroke="#beb0f8" points="617.682,-625.442 622.973,-635.047 621.679,-628.446 625.676,-631.449 625.676,-631.449 625.676,-631.449 621.679,-628.446 628.38,-627.852 617.682,-625.442 617.682,-625.442"/>
<text text-anchor="middle" x="425.5" y="-557.8" font-family="Times,serif" font-size="14.00">flagged_by</text>
</g>
<!-- Classified&#45;&gt;FavoriteClassified -->
<g id="edge19" class="edge"><title>Classified&#45;&gt;FavoriteClassified</title>
<path fill="none" stroke="#09e29f" d="M379.275,-235.513C358.848,-201.528 337.667,-166.288 320.478,-137.69"/>
<ellipse fill="none" stroke="#09e29f" cx="381.411" cy="-239.066" rx="4.00002" ry="4.00002"/>
<polygon fill="#09e29f" stroke="#09e29f" points="320.429,-137.608 319.134,-126.719 317.853,-133.322 315.277,-129.037 315.277,-129.037 315.277,-129.037 317.853,-133.322 311.42,-131.355 320.429,-137.608 320.429,-137.608"/>
</g>
<!-- Classified&#45;&gt;Flag -->
<g id="edge21" class="edge"><title>Classified&#45;&gt;Flag</title>
<path fill="none" stroke="#6a188f" d="M533.553,-301.859C587.474,-263.836 662.195,-216.673 735,-189 928.227,-115.555 1173.03,-89.8066 1294.88,-81.1481"/>
<ellipse fill="none" stroke="#6a188f" cx="530.013" cy="-304.371" rx="4.00002" ry="4.00002"/>
<polygon fill="#6a188f" stroke="#6a188f" points="1295.24,-81.1233 1305.53,-84.9232 1300.23,-80.7786 1305.22,-80.4339 1305.22,-80.4339 1305.22,-80.4339 1300.23,-80.7786 1304.91,-75.9446 1295.24,-81.1233 1295.24,-81.1233"/>
</g>
<!-- Classified&#45;&gt;Photo -->
<g id="edge18" class="edge"><title>Classified&#45;&gt;Photo</title>
<path fill="none" stroke="#c8468a" d="M455,-181.2C455,-174.661 455,-168.237 455,-161.991"/>
<ellipse fill="none" stroke="#c8468a" cx="455" cy="-185.442" rx="4" ry="4"/>
<polygon fill="#c8468a" stroke="#c8468a" points="455,-161.656 459.5,-151.656 455,-156.656 455,-151.656 455,-151.656 455,-151.656 455,-156.656 450.5,-151.656 455,-161.656 455,-161.656"/>
</g>
<!-- Category&#45;&gt;Classified -->
<g id="edge26" class="edge"><title>Category&#45;&gt;Classified</title>
<path fill="none" stroke="#4a7220" d="M366.005,-647.064C355.713,-617.845 349.586,-584.62 357,-554 362.123,-532.841 370.028,-511.398 379.173,-490.908"/>
<ellipse fill="none" stroke="#4a7220" cx="367.473" cy="-651.044" rx="4.00001" ry="4.00001"/>
<polygon fill="#4a7220" stroke="#4a7220" points="379.289,-490.655 387.547,-483.44 381.373,-486.11 383.457,-481.565 383.457,-481.565 383.457,-481.565 381.373,-486.11 379.366,-479.689 379.289,-490.655 379.289,-490.655"/>
</g>
<!-- Category&#45;&gt;Category -->
<g id="edge25" class="edge"><title>Category&#45;&gt;Category</title>
<path fill="none" stroke="#0da79d" d="M487.917,-753.92C494.443,-748.867 498.5,-741.06 498.5,-730.5 498.5,-720.82 495.091,-713.454 489.496,-708.401"/>
<ellipse fill="none" stroke="#0da79d" cx="484.105" cy="-756.082" rx="4.00002" ry="4.00002"/>
<polygon fill="#0da79d" stroke="#0da79d" points="489.144,-708.184 482.984,-699.112 484.885,-705.564 480.626,-702.945 480.626,-702.945 480.626,-702.945 484.885,-705.564 478.268,-706.778 489.144,-708.184 489.144,-708.184"/>
<text text-anchor="middle" x="521" y="-726.8" font-family="Times,serif" font-size="14.00">children</text>
</g>
<!-- AverageCache -->
<g id="node12" class="node"><title>AverageCache</title>
<path fill="none" stroke="black" d="M571.5,-911.5C571.5,-911.5 684.5,-911.5 684.5,-911.5 690.5,-911.5 696.5,-917.5 696.5,-923.5 696.5,-923.5 696.5,-1035.5 696.5,-1035.5 696.5,-1041.5 690.5,-1047.5 684.5,-1047.5 684.5,-1047.5 571.5,-1047.5 571.5,-1047.5 565.5,-1047.5 559.5,-1041.5 559.5,-1035.5 559.5,-1035.5 559.5,-923.5 559.5,-923.5 559.5,-917.5 565.5,-911.5 571.5,-911.5"/>
<text text-anchor="middle" x="628" y="-1032.3" font-family="Times,serif" font-size="14.00">AverageCache</text>
<polyline fill="none" stroke="black" points="559.5,-1024.5 696.5,-1024.5 "/>
<text text-anchor="start" x="567.5" y="-1009.3" font-family="Times,serif" font-size="14.00">id :INTEGER</text>
<text text-anchor="start" x="567.5" y="-994.3" font-family="Times,serif" font-size="14.00">rater_id :integer</text>
<text text-anchor="start" x="567.5" y="-979.3" font-family="Times,serif" font-size="14.00">rateable_type :varchar</text>
<text text-anchor="start" x="567.5" y="-964.3" font-family="Times,serif" font-size="14.00">rateable_id :integer</text>
<text text-anchor="start" x="567.5" y="-949.3" font-family="Times,serif" font-size="14.00">avg :float</text>
<text text-anchor="start" x="567.5" y="-934.3" font-family="Times,serif" font-size="14.00">created_at :datetime</text>
<text text-anchor="start" x="567.5" y="-919.3" font-family="Times,serif" font-size="14.00">updated_at :datetime</text>
</g>
<!-- Mailboxer::Conversation -->
<g id="node16" class="node"><title>Mailboxer::Conversation</title>
<path fill="none" stroke="black" d="M1715.5,-685C1715.5,-685 1844.5,-685 1844.5,-685 1850.5,-685 1856.5,-691 1856.5,-697 1856.5,-697 1856.5,-764 1856.5,-764 1856.5,-770 1850.5,-776 1844.5,-776 1844.5,-776 1715.5,-776 1715.5,-776 1709.5,-776 1703.5,-770 1703.5,-764 1703.5,-764 1703.5,-697 1703.5,-697 1703.5,-691 1709.5,-685 1715.5,-685"/>
<text text-anchor="middle" x="1780" y="-760.8" font-family="Times,serif" font-size="14.00">Mailboxer::Conversation</text>
<polyline fill="none" stroke="black" points="1703.5,-753 1856.5,-753 "/>
<text text-anchor="start" x="1711.5" y="-737.8" font-family="Times,serif" font-size="14.00">id :INTEGER</text>
<text text-anchor="start" x="1711.5" y="-722.8" font-family="Times,serif" font-size="14.00">subject :varchar</text>
<text text-anchor="start" x="1711.5" y="-707.8" font-family="Times,serif" font-size="14.00">created_at :datetime</text>
<text text-anchor="start" x="1711.5" y="-692.8" font-family="Times,serif" font-size="14.00">updated_at :datetime</text>
</g>
<!-- Mailboxer::Conversation&#45;&gt;Mailboxer::Message -->
<g id="edge31" class="edge"><title>Mailboxer::Conversation&#45;&gt;Mailboxer::Message</title>
<path fill="none" stroke="#f7bd66" d="M1752.69,-677.719C1729.32,-633.399 1694.53,-567.417 1662.85,-507.343"/>
<ellipse fill="none" stroke="#f7bd66" cx="1754.66" cy="-681.449" rx="4.00002" ry="4.00002"/>
<polygon fill="#f7bd66" stroke="#f7bd66" points="1662.66,-506.987 1661.98,-496.042 1660.33,-502.564 1658,-498.141 1658,-498.141 1658,-498.141 1660.33,-502.564 1654.02,-500.241 1662.66,-506.987 1662.66,-506.987"/>
<text text-anchor="middle" x="1721" y="-557.8" font-family="Times,serif" font-size="14.00">messages</text>
</g>
<!-- Mailboxer::Conversation&#45;&gt;Mailboxer::Receipt -->
<g id="edge32" class="edge"><title>Mailboxer::Conversation&#45;&gt;Mailboxer::Receipt</title>
<path fill="none" stroke="#baa2ae" d="M1821.02,-676.459C1843.81,-645.876 1871.93,-606.217 1894,-569 1909.8,-542.362 1925.26,-512.864 1939.12,-484.727"/>
<polygon fill="#baa2ae" stroke="#baa2ae" points="1820.74,-676.833 1811.14,-682.137 1817.74,-680.834 1814.74,-684.835 1814.74,-684.835 1814.74,-684.835 1817.74,-680.834 1818.34,-687.534 1820.74,-676.833 1820.74,-676.833"/>
<polygon fill="#baa2ae" stroke="#baa2ae" points="1939.16,-484.628 1947.6,-477.622 1941.36,-480.136 1943.56,-475.645 1943.56,-475.645 1943.56,-475.645 1941.36,-480.136 1939.52,-473.667 1939.16,-484.628 1939.16,-484.628"/>
<text text-anchor="middle" x="1921.5" y="-557.8" font-family="Times,serif" font-size="14.00">receipts</text>
</g>
<!-- Mailboxer::Conversation::OptOut -->
<g id="node17" class="node"><title>Mailboxer::Conversation::OptOut</title>
<path fill="none" stroke="black" d="M1705.5,-317C1705.5,-317 1882.5,-317 1882.5,-317 1888.5,-317 1894.5,-323 1894.5,-329 1894.5,-329 1894.5,-396 1894.5,-396 1894.5,-402 1888.5,-408 1882.5,-408 1882.5,-408 1705.5,-408 1705.5,-408 1699.5,-408 1693.5,-402 1693.5,-396 1693.5,-396 1693.5,-329 1693.5,-329 1693.5,-323 1699.5,-317 1705.5,-317"/>
<text text-anchor="middle" x="1794" y="-392.8" font-family="Times,serif" font-size="14.00">Mailboxer::Conversation::OptOut</text>
<polyline fill="none" stroke="black" points="1693.5,-385 1894.5,-385 "/>
<text text-anchor="start" x="1701.5" y="-369.8" font-family="Times,serif" font-size="14.00">id :INTEGER</text>
<text text-anchor="start" x="1701.5" y="-354.8" font-family="Times,serif" font-size="14.00">unsubscriber_type :varchar</text>
<text text-anchor="start" x="1701.5" y="-339.8" font-family="Times,serif" font-size="14.00">unsubscriber_id :integer</text>
<text text-anchor="start" x="1701.5" y="-324.8" font-family="Times,serif" font-size="14.00">conversation_id :integer</text>
</g>
<!-- Mailboxer::Conversation&#45;&gt;Mailboxer::Conversation::OptOut -->
<g id="edge30" class="edge"><title>Mailboxer::Conversation&#45;&gt;Mailboxer::Conversation::OptOut</title>
<path fill="none" stroke="#f390a0" d="M1779.44,-676.617C1779.29,-641.776 1779.48,-595.155 1781,-554 1782.69,-508.277 1786.34,-456.481 1789.34,-418.453"/>
<ellipse fill="none" stroke="#f390a0" cx="1779.46" cy="-680.761" rx="4" ry="4"/>
<polygon fill="#f390a0" stroke="#f390a0" points="1789.37,-418.076 1794.65,-408.467 1789.77,-413.092 1790.17,-408.108 1790.17,-408.108 1790.17,-408.108 1789.77,-413.092 1785.68,-407.749 1789.37,-418.076 1789.37,-418.076"/>
<text text-anchor="middle" x="1804.5" y="-557.8" font-family="Times,serif" font-size="14.00">opt_outs</text>
</g>
<!-- Mailboxer::Notification -->
<g id="node18" class="node"><title>Mailboxer::Notification</title>
<path fill="none" stroke="black" d="M1914,-595C1914,-595 2066,-595 2066,-595 2072,-595 2078,-601 2078,-607 2078,-607 2078,-854 2078,-854 2078,-860 2072,-866 2066,-866 2066,-866 1914,-866 1914,-866 1908,-866 1902,-860 1902,-854 1902,-854 1902,-607 1902,-607 1902,-601 1908,-595 1914,-595"/>
<text text-anchor="middle" x="1990" y="-850.8" font-family="Times,serif" font-size="14.00">Mailboxer::Notification</text>
<polyline fill="none" stroke="black" points="1902,-843 2078,-843 "/>
<text text-anchor="start" x="1910" y="-827.8" font-family="Times,serif" font-size="14.00">id :INTEGER</text>
<text text-anchor="start" x="1910" y="-812.8" font-family="Times,serif" font-size="14.00">type :varchar</text>
<text text-anchor="start" x="1910" y="-797.8" font-family="Times,serif" font-size="14.00">body :text</text>
<text text-anchor="start" x="1910" y="-782.8" font-family="Times,serif" font-size="14.00">subject :varchar</text>
<text text-anchor="start" x="1910" y="-767.8" font-family="Times,serif" font-size="14.00">sender_type :varchar</text>
<text text-anchor="start" x="1910" y="-752.8" font-family="Times,serif" font-size="14.00">sender_id :integer</text>
<text text-anchor="start" x="1910" y="-737.8" font-family="Times,serif" font-size="14.00">conversation_id :integer</text>
<text text-anchor="start" x="1910" y="-722.8" font-family="Times,serif" font-size="14.00">draft :boolean</text>
<text text-anchor="start" x="1910" y="-707.8" font-family="Times,serif" font-size="14.00">notification_code :varchar</text>
<text text-anchor="start" x="1910" y="-692.8" font-family="Times,serif" font-size="14.00">notified_object_type :varchar</text>
<text text-anchor="start" x="1910" y="-677.8" font-family="Times,serif" font-size="14.00">notified_object_id :integer</text>
<text text-anchor="start" x="1910" y="-662.8" font-family="Times,serif" font-size="14.00">attachment :varchar</text>
<text text-anchor="start" x="1910" y="-647.8" font-family="Times,serif" font-size="14.00">updated_at :datetime</text>
<text text-anchor="start" x="1910" y="-632.8" font-family="Times,serif" font-size="14.00">created_at :datetime</text>
<text text-anchor="start" x="1910" y="-617.8" font-family="Times,serif" font-size="14.00">global :boolean</text>
<text text-anchor="start" x="1910" y="-602.8" font-family="Times,serif" font-size="14.00">expires :datetime</text>
</g>
<!-- Mailboxer::Notification&#45;&gt;Mailboxer::Message -->
<g id="edge29" class="edge"><title>Mailboxer::Notification&#45;&gt;Mailboxer::Message</title>
<path fill="none" stroke="black" d="M1976.33,-594.936C1969.54,-579.283 1960.08,-565.008 1947,-554 1902.35,-516.424 1734.4,-567.068 1685,-536 1669.4,-526.19 1656.04,-512.947 1644.67,-498.133"/>
</g>
<!-- Mailboxer::Notification&#45;&gt;Mailboxer::Receipt -->
<g id="edge33" class="edge"><title>Mailboxer::Notification&#45;&gt;Mailboxer::Receipt</title>
<path fill="none" stroke="#d57ed0" d="M1991.56,-586.475C1991.93,-553.304 1992.31,-518.29 1992.66,-486.088"/>
<ellipse fill="none" stroke="#d57ed0" cx="1991.52" cy="-590.775" rx="4" ry="4"/>
<polygon fill="#d57ed0" stroke="#d57ed0" points="1992.66,-485.736 1997.27,-475.786 1992.72,-480.737 1992.77,-475.737 1992.77,-475.737 1992.77,-475.737 1992.72,-480.737 1988.27,-475.688 1992.66,-485.736 1992.66,-485.736"/>
<text text-anchor="middle" x="2012.5" y="-557.8" font-family="Times,serif" font-size="14.00">receipts</text>
</g>
<!-- Mailboxer::Mailbox -->
<g id="node19" class="node"><title>Mailboxer::Mailbox</title>
<polygon fill="none" stroke="black" points="715,-956.5 715,-1002.5 843,-1002.5 843,-956.5 715,-956.5"/>
<text text-anchor="middle" x="779" y="-987.3" font-family="Times,serif" font-size="14.00">Mailboxer::Mailbox</text>
<polyline fill="none" stroke="black" points="715,-979.5 843,-979.5 "/>
<text text-anchor="middle" x="779" y="-964.3" font-family="Times,serif" font-size="14.00"> </text>
</g>
</g>
</svg>
